<svg xmlns:xlink="http://www.w3.org/1999/xlink" xmlns="http://www.w3.org/2000/svg" width="16" height="17" viewBox="0 0 16 17" fill="none">
<g clip-path="url(#clip0_7845_12409)">
<mask id="mask0_7845_12409" style="mask-type:luminance" maskUnits="userSpaceOnUse" x="0" y="0" width="16" height="17">
<path d="M8 16.3916C12.4183 16.3916 16 12.8099 16 8.3916C16 3.97332 12.4183 0.391602 8 0.391602C3.58172 0.391602 0 3.97332 0 8.3916C0 12.8099 3.58172 16.3916 8 16.3916Z" fill="white"></path>
</mask>
<g mask="url(#mask0_7845_12409)">
<path d="M8 0.391602H16V2.3916L15 3.3916L16 4.3916V6.3916L15 7.3916L16 8.3916V10.3916L15 11.3916L16 12.3916V14.3916L8 15.3916L0 14.3916V12.3916L1 11.3916L0 10.3916V8.3916L8 0.391602Z" fill="#EEEEEE"></path>
<path d="M7 2.3916H16V4.3916H7V2.3916ZM7 6.3916H16V8.3916H8L7 6.3916ZM0 10.3916H16V12.3916H0V10.3916ZM0 14.3916H16V16.3916H0V14.3916Z" fill="#D80027"></path>
<path d="M0 0.391602H8V8.3916H0V0.391602Z" fill="#0052B4"></path>
<path d="M5.84375 7.98535L7.625 6.7041H5.4375L7.21875 7.98535L6.53125 5.8916L5.84375 7.98535ZM3.3125 7.98535L5.09375 6.7041H2.90625L4.6875 7.98535L4 5.8916L3.3125 7.98535ZM0.78125 7.98535L2.5625 6.7041H0.375L2.15625 7.98535L1.46875 5.8916L0.78125 7.98535ZM5.84375 5.4541L7.625 4.17285H5.4375L7.21875 5.4541L6.53125 3.36035L5.84375 5.4541ZM3.3125 5.4541L5.09375 4.17285H2.90625L4.6875 5.4541L4 3.36035L3.3125 5.4541ZM0.78125 5.4541L2.5625 4.17285H0.375L2.15625 5.4541L1.46875 3.36035L0.78125 5.4541ZM5.84375 2.8916L7.625 1.61035H5.4375L7.21875 2.8916L6.53125 0.797852L5.84375 2.8916ZM3.3125 2.8916L5.09375 1.61035H2.90625L4.6875 2.8916L4 0.797852L3.3125 2.8916ZM0.78125 2.8916L2.5625 1.61035H0.375L2.15625 2.8916L1.46875 0.797852L0.78125 2.8916Z" fill="#EEEEEE"></path>
</g>
</g>
<defs>
<clipPath id="clip0_7845_12409">
<rect width="16" height="16" fill="white" transform="translate(0 0.391602)"></rect>
</clipPath>
</defs>
</svg>