<svg xmlns:xlink="http://www.w3.org/1999/xlink" xmlns="http://www.w3.org/2000/svg" width="16" height="17" viewBox="0 0 16 17" fill="none">
<g clip-path="url(#clip0_532_4690)">
<path d="M8.00174 0.390625C4.50841 0.390625 1.54841 2.63063 0.455078 5.72396H15.5484C14.4551 2.63063 11.4951 0.390625 8.00174 0.390625Z" fill="#ED4C5C"></path>
<path d="M8.00174 16.39C11.4951 16.39 14.4551 14.1766 15.5484 11.0566H0.455078C1.54841 14.1766 4.50841 16.39 8.00174 16.39Z" fill="#F9F9F9"></path>
<path d="M0.453333 5.72461C0.16 6.55128 0 7.45794 0 8.39128C0 9.32461 0.16 10.2313 0.453333 11.0579H15.5467C15.84 10.2313 16 9.32461 16 8.39128C16 7.45794 15.84 6.55128 15.5467 5.72461H0.453333Z" fill="#2872A0"></path>
<path d="M3.59961 5.64453V9.96453C3.59961 11.4579 4.85294 12.6579 6.39961 12.6579C7.94628 12.6579 9.19961 11.4579 9.19961 9.96453V5.64453H3.59961Z" fill="#ED4C5C"></path>
<path d="M7.41203 12.2046L7.3587 11.9646L7.14537 11.5913L7.22537 11.5379L7.17203 11.2979L6.98537 11.0046L7.0387 10.9779L6.98537 10.7379L6.85204 10.4713L7.06537 10.0713L7.1987 10.4979L7.30537 10.3379L7.46537 10.5779L7.5187 10.4179L7.6787 10.4979L7.65204 10.1779L8.02537 10.2846L7.7587 9.93794H7.78537L7.57203 9.51128L7.62537 9.35128L7.7587 9.61794L7.81203 9.51128L8.02537 10.0979V10.0713L8.13203 10.2846L8.18537 10.1779L8.3987 10.6046L8.4787 10.3646L8.7987 10.6046C8.7987 10.6046 8.77203 9.80461 8.77203 9.56461C8.82537 8.87128 9.06537 7.45794 8.8787 6.81794C8.7987 6.49794 8.1587 5.72461 8.1587 5.72461C8.1587 5.72461 8.13203 6.65794 7.97203 6.95128C7.9187 7.05794 7.4387 7.35128 7.4387 7.35128L7.25204 7.32461L7.33203 7.29794L6.98537 6.95128L7.1187 6.25794L7.46537 5.75128L6.93203 5.77794L6.53203 5.88461L6.6387 6.04461L6.3987 6.89794L6.1587 6.07128L6.26537 5.91128L5.86537 5.77794L5.33203 5.75128L5.6787 6.25794L5.81203 6.95128L5.46537 7.29794L5.54537 7.32461L5.33203 7.37794C5.33203 7.37794 4.85203 7.08461 4.7987 6.97794C4.6387 6.71128 4.61203 5.75128 4.61203 5.75128C4.61203 5.75128 3.97204 6.52461 3.89204 6.84461C3.70537 7.51128 3.97204 8.92461 3.9987 9.59128C4.02537 9.85794 3.97203 10.6313 3.97203 10.6313L4.29204 10.3913L4.37203 10.6313L4.58537 10.2046L4.6387 10.3113L4.74537 10.0979V10.1246L4.9587 9.53794L5.01203 9.64461L5.14537 9.37794L5.1987 9.53794L4.98537 9.96461H5.01203L4.74537 10.3113L5.1187 10.2046V10.5246L5.2787 10.4446L5.33203 10.6046L5.49204 10.3646L5.5987 10.5246L5.73203 10.0979L5.94537 10.4979L5.81203 10.7646L5.7587 11.0046L5.81203 11.0313L5.62537 11.3246L5.57203 11.5646L5.65204 11.6179L5.46537 12.0179L5.41203 12.2579L7.41203 12.2046Z" fill="white"></path>
<path d="M4.79948 10.9781L4.85281 10.8714L5.09281 10.7647L5.25281 10.7114H5.35948L5.38615 10.6847L5.22615 10.6047L5.19948 10.5781L5.06615 10.6314L4.95948 10.7114L5.17281 10.4447L5.35948 10.0181L5.06615 10.2047L4.79948 10.6847L4.69281 10.7381H4.42615L4.29281 10.7114L4.13281 10.7914L4.15948 10.8181H4.26615L4.37281 10.8714L4.61281 10.8447L4.34615 10.9247L4.29281 11.0314V11.1914H4.31948L4.34615 11.1114H4.47948L4.71948 10.8981L4.53281 11.1914L4.50615 11.3247L4.58615 11.5114L4.63948 11.4847V11.3514L4.74615 11.2447L4.79948 10.9781ZM7.97281 10.9781L7.94615 10.8714L7.70615 10.7647L7.54615 10.7114H7.43948L7.41281 10.6847L7.57281 10.6047L7.59948 10.5781L7.73281 10.6314L7.83948 10.7114L7.62615 10.4447L7.43948 10.0181L7.73281 10.2047L7.99948 10.6847L8.10615 10.7381H8.37281L8.50615 10.7114L8.66615 10.7914L8.63948 10.8181H8.53281L8.42615 10.8714L8.18615 10.8447L8.45281 10.9247L8.50615 11.0314V11.1914H8.47948L8.45281 11.1114H8.31948L8.07948 10.8981L8.26615 11.1914L8.29281 11.3247L8.21281 11.5114L8.15948 11.4847V11.3514L8.05281 11.2447L7.97281 10.9781ZM5.17281 5.77806C4.90615 5.80473 4.93281 5.9914 5.17281 6.2314C5.22615 6.28473 5.22615 6.28473 5.25281 6.2314C5.27948 6.1514 5.35948 6.09806 5.41281 6.1514C5.43948 6.20473 5.43948 6.2314 5.54615 6.20473C5.57281 6.2314 5.62615 6.25806 5.65281 6.28473C5.62615 6.28473 5.51948 6.3114 5.35948 6.33806C5.22615 6.36473 5.14615 6.3114 5.03948 6.20473C5.06615 6.33806 5.38615 6.41806 5.35948 6.41806C5.38615 6.4714 5.38615 6.49806 5.41281 6.49806C5.51948 6.52473 5.62615 6.44473 5.73281 6.4714C5.97281 6.52473 5.57281 5.85806 5.59948 5.8314C5.62615 5.77806 5.25281 5.6714 5.17281 5.77806ZM7.35948 6.52473C7.38615 6.52473 7.38615 6.52473 7.41281 6.44473C7.38615 6.44473 7.70615 6.36473 7.73281 6.2314C7.65281 6.33806 7.54615 6.3914 7.41281 6.36473C7.25281 6.33806 7.14615 6.28473 7.11948 6.3114C7.14615 6.28473 7.17281 6.25806 7.22615 6.2314C7.33281 6.25806 7.33281 6.2314 7.35948 6.17806C7.41281 6.12473 7.49281 6.1514 7.51948 6.25806C7.51948 6.3114 7.54615 6.3114 7.59948 6.25806C7.83948 6.01806 7.86615 5.8314 7.59948 5.80473C7.54615 5.69806 7.17281 5.80473 7.19948 5.88473C7.19948 5.9114 6.82615 6.57806 7.06615 6.52473C7.14615 6.4714 7.25281 6.52473 7.35948 6.52473Z" fill="#FFCE31"></path>
<path d="M5.22656 7.48438V9.43104C5.22656 10.0177 5.7599 10.4977 6.3999 10.4977C7.0399 10.4977 7.57323 10.0177 7.57323 9.43104V7.48438H5.22656Z" fill="#ED4C5C"></path>
<path d="M6.08203 7.13672H6.7487V11.1367H6.08203V7.13672Z" fill="white"></path>
<path d="M4.56055 8.47128H8.24055V9.13794H4.56055V8.47128ZM5.86721 7.96461L5.60055 8.23128L5.68055 7.96461L5.60055 7.72461L5.86721 7.96461ZM5.86721 9.64461L5.60055 9.91128L5.68055 9.64461L5.60055 9.37794L5.86721 9.64461ZM6.93388 7.96461L7.20055 8.23128L7.14721 7.96461L7.20055 7.72461L6.93388 7.96461ZM6.93388 9.64461L7.20055 9.91128L7.14721 9.64461L7.20055 9.37794L6.93388 9.64461Z" fill="white"></path>
<path d="M6.66615 2.97852H6.13281V3.51185H6.66615V2.97852Z" fill="#428BC1"></path>
<path d="M6.15881 2.63115L6.21214 2.65781L6.26548 2.63115H6.34547V2.95115H6.13214V3.05781H6.66548V2.95115H6.45214V2.63115H6.53214L6.58548 2.65781L6.63881 2.63115L6.69214 2.57781L6.63881 2.52448L6.58548 2.47115L6.53214 2.52448H6.45214V2.41781L6.50547 2.36448L6.45214 2.31115L6.39881 2.25781L6.34547 2.31115L6.29214 2.36448L6.34547 2.41781V2.52448H6.26548L6.21214 2.47115L6.15881 2.52448L6.10548 2.57781L6.15881 2.63115ZM8.13214 3.69781C7.78548 3.51115 7.57214 3.45781 7.49214 3.59115C7.49214 3.59115 7.49214 3.61781 7.46548 3.61781C7.03881 3.40448 6.71881 3.37781 6.39881 3.51115C6.07881 3.37781 5.78548 3.40448 5.33214 3.61781C5.33214 3.59115 5.33214 3.59115 5.30548 3.59115C5.22548 3.45781 5.01214 3.48448 4.66548 3.69781C4.31881 3.88448 3.99881 4.15115 4.07881 4.25781C4.10548 4.44448 4.21214 4.60448 4.39881 4.79115C4.61214 4.89781 5.03881 4.92448 5.49214 4.89781C6.07881 4.87115 6.69214 4.87115 7.27881 4.89781C7.73214 4.92448 8.15881 4.89781 8.37214 4.79115C8.55881 4.60448 8.66547 4.44448 8.69214 4.25781C8.79881 4.17781 8.45214 3.91115 8.13214 3.69781Z" fill="#FFCE31"></path>
<path d="M6.77309 4.44343C6.98642 4.25676 7.11975 4.0701 7.22642 3.88343C7.03975 3.8301 6.85309 3.80343 6.69309 3.8301C6.71975 4.04343 6.74642 4.25676 6.77309 4.44343ZM6.02642 4.44343C6.05309 4.2301 6.07975 4.01676 6.13309 3.80343C5.97309 3.77676 5.78642 3.80343 5.59975 3.85676C5.65309 4.0701 5.81309 4.25676 6.02642 4.44343ZM8.15975 4.0701C8.13309 4.04343 8.07975 3.9901 7.99975 3.96343C7.91975 3.93676 7.83975 3.9101 7.78642 3.9101C7.75975 4.12343 7.67975 4.33676 7.49309 4.5501C7.57309 4.5501 7.65309 4.52343 7.70642 4.49676C7.91975 4.3901 8.05309 4.25676 8.15975 4.1501C8.18642 4.12343 8.18642 4.09676 8.15975 4.0701ZM5.01309 3.88343C4.95975 3.88343 4.87975 3.9101 4.79975 3.93676C4.66642 3.9901 4.58642 4.09676 4.63975 4.12343C4.74642 4.2301 4.87975 4.33676 5.09309 4.4701C5.14642 4.49676 5.22642 4.49676 5.30642 4.52343C5.11975 4.3101 5.03975 4.12343 5.01309 3.88343Z" fill="#ED4C5C"></path>
<path d="M4.42773 4.79102H8.3744V5.32435H4.42773V4.79102Z" fill="#FFCE31"></path>
<path d="M4.42698 4.89701L4.32031 5.08367L4.45365 5.21701L4.64031 5.03034L4.42698 4.89701ZM8.37365 4.89701L8.16031 5.03034L8.34698 5.21701L8.48031 5.08367L8.37365 4.89701ZM6.40031 4.76367L6.18698 4.95034L6.40031 5.11034L6.61365 4.95034L6.40031 4.76367Z" fill="#428BC1"></path>
<path d="M5.41255 5.13836L5.59922 4.95169L5.38589 4.81836L5.19922 4.97836L5.41255 5.13836ZM7.38589 5.13836L7.59922 4.97836L7.41255 4.81836L7.19922 4.95169L7.38589 5.13836Z" fill="#ED4C5C"></path>
</g>
<defs>
<clipPath id="clip0_532_4690">
<rect width="16" height="16" fill="white" transform="translate(0 0.390625)"></rect>
</clipPath>
</defs>
</svg>