<svg width="17" height="18" viewBox="0 0 17 18" fill="none" xmlns="http://www.w3.org/2000/svg">
<path d="M12.0812 7.20835C12.5221 6.87762 12.8479 6.41652 13.0123 5.89037C13.1766 5.36422 13.1713 4.7997 12.9969 4.27677C12.8226 3.75383 12.4882 3.299 12.041 2.9767C11.5938 2.6544 11.0566 2.48096 10.5054 2.48096H5.77799C5.22676 2.48096 4.68952 2.6544 4.24234 2.9767C3.79517 3.299 3.46074 3.75383 3.28643 4.27677C3.11211 4.7997 3.10676 5.36422 3.27111 5.89037C3.43547 6.41652 3.76121 6.87762 4.20219 7.20835C3.8683 7.45857 3.59884 7.78474 3.41611 8.15985C3.2334 8.53495 3.14267 8.94819 3.15146 9.3653C3.16025 9.78249 3.26831 10.1915 3.46667 10.5586C3.66504 10.9256 3.948 11.2402 4.29214 11.4761C3.9007 11.7737 3.59171 12.1664 3.39441 12.6167C3.19711 13.0671 3.11804 13.5604 3.16467 14.0499C3.21132 14.5394 3.38212 15.0089 3.66092 15.4139C3.93972 15.8189 4.31729 16.1461 4.75788 16.3645C5.19846 16.5828 5.68748 16.6851 6.17863 16.6615C6.66979 16.6381 7.14682 16.4896 7.56455 16.2302C7.9823 15.9709 8.32691 15.6092 8.56575 15.1794C8.80468 14.7496 8.92991 14.2659 8.92957 13.7742V11.4105C9.20548 11.6174 9.51947 11.768 9.85354 11.8536C10.1877 11.9392 10.5354 11.9581 10.8768 11.9094C11.2182 11.8606 11.5467 11.7451 11.8435 11.5693C12.1403 11.3936 12.3995 11.1611 12.6064 10.8852C12.8133 10.6093 12.964 10.2953 13.0495 9.96125C13.1351 9.6271 13.1541 9.27942 13.1053 8.938C13.0566 8.59657 12.941 8.26809 12.7653 7.97131C12.5895 7.67454 12.3571 7.41529 12.0812 7.20835ZM12.0812 5.10729C12.0812 5.52521 11.9152 5.92602 11.6196 6.22155C11.3241 6.51707 10.9233 6.68308 10.5054 6.68308H8.92957V3.53149H10.5054C10.9233 3.53149 11.3241 3.69751 11.6196 3.99303C11.9152 4.28855 12.0812 4.68936 12.0812 5.10729ZM4.20219 5.10729C4.20219 4.68936 4.3682 4.28855 4.66372 3.99303C4.95924 3.69751 5.36006 3.53149 5.77799 3.53149H7.87905V6.68308H5.77799C5.36006 6.68308 4.95924 6.51707 4.66372 6.22155C4.3682 5.92602 4.20219 5.52521 4.20219 5.10729ZM5.77799 10.8852C5.36006 10.8852 4.95924 10.7192 4.66372 10.4237C4.3682 10.1282 4.20219 9.72736 4.20219 9.30941C4.20219 8.89149 4.3682 8.49068 4.66372 8.19515C4.95924 7.89963 5.36006 7.73362 5.77799 7.73362H7.87905V10.8852H5.77799ZM7.87905 13.7742C7.87905 14.1377 7.77122 14.4932 7.56922 14.7955C7.3672 15.0978 7.08008 15.3335 6.74415 15.4727C6.40822 15.6118 6.03858 15.6482 5.68196 15.5773C5.32533 15.5064 4.99776 15.3312 4.74065 15.0741C4.48354 14.8171 4.30844 14.4895 4.23751 14.1329C4.16657 13.7762 4.20298 13.4066 4.34213 13.0707C4.48128 12.7347 4.71691 12.4476 5.01924 12.2456C5.32157 12.0436 5.67701 11.9357 6.04062 11.9357H7.87905V13.7742ZM10.5054 10.8852C10.1937 10.8852 9.88909 10.7928 9.6299 10.6196C9.3708 10.4465 9.16876 10.2003 9.0495 9.91242C8.93024 9.62449 8.89907 9.30767 8.95983 9.002C9.02067 8.69632 9.17077 8.41554 9.39113 8.19515C9.61149 7.97478 9.89228 7.82469 10.1979 7.7639C10.5036 7.70309 10.8204 7.7343 11.1084 7.85357C11.3963 7.97284 11.6425 8.17481 11.8156 8.43395C11.9887 8.69309 12.0812 8.99775 12.0812 9.30941C12.0812 9.72736 11.9152 10.1282 11.6196 10.4237C11.3241 10.7192 10.9233 10.8852 10.5054 10.8852Z" fill="#949494"/>
</svg>
