<svg width="18" height="18" viewBox="0 0 18 18" fill="none" xmlns="http://www.w3.org/2000/svg">
<path fill-rule="evenodd" clip-rule="evenodd" d="M4.41683 3.00635H14.2218C14.9954 3.00635 15.6225 3.63346 15.6225 4.40706V14.212C15.6225 14.9856 14.9954 15.6127 14.2218 15.6127H4.41683C3.64323 15.6127 3.01611 14.9856 3.01611 14.212V4.40706C3.01611 3.63346 3.64323 3.00635 4.41683 3.00635ZM6.51789 13.5117C6.71129 13.5117 6.86806 13.3549 6.86806 13.1615V8.25901C6.86806 8.06561 6.71129 7.90883 6.51789 7.90883H5.46736C5.27396 7.90883 5.11718 8.06561 5.11718 8.25901V13.1615C5.11718 13.3549 5.27396 13.5117 5.46736 13.5117H6.51789ZM5.99262 7.20848C5.41243 7.20848 4.94209 6.73814 4.94209 6.15794C4.94209 5.57775 5.41243 5.10741 5.99262 5.10741C6.57281 5.10741 7.04316 5.57775 7.04316 6.15794C7.04316 6.73814 6.57281 7.20848 5.99262 7.20848ZM13.1712 13.5117C13.3647 13.5117 13.5214 13.3549 13.5214 13.1615V9.93986C13.5441 8.82684 12.7213 7.87698 11.6164 7.74074C10.844 7.67018 10.0955 8.03097 9.66951 8.67922V8.25901C9.66951 8.06561 9.51269 7.90883 9.3193 7.90883H8.26877C8.07537 7.90883 7.91859 8.06561 7.91859 8.25901V13.1615C7.91859 13.3549 8.07537 13.5117 8.26877 13.5117H9.3193C9.51269 13.5117 9.66951 13.3549 9.66951 13.1615V10.5351C9.66951 9.95499 10.1398 9.4846 10.72 9.4846C11.3002 9.4846 11.7706 9.95499 11.7706 10.5351V13.1615C11.7706 13.3549 11.9273 13.5117 12.1207 13.5117H13.1712Z" fill="#949494"/>
</svg>
