<svg width="21" height="21" viewBox="0 0 21 21" fill="none" xmlns="http://www.w3.org/2000/svg">
<path d="M14.6429 5.11561C14.0684 4.45976 13.7518 3.61749 13.752 2.74561H11.1551V13.1669C11.1351 13.7308 10.897 14.265 10.491 14.6569C10.085 15.0488 9.54272 15.2679 8.97841 15.2679C7.78501 15.2679 6.79331 14.2931 6.79331 13.0828C6.79331 11.6373 8.18841 10.5532 9.62554 10.9986V8.34284C6.72607 7.95624 4.18799 10.2086 4.18799 13.0828C4.18799 15.8815 6.50756 17.8733 8.97001 17.8733C11.6089 17.8733 13.752 15.7302 13.752 13.0828V7.79656C14.8051 8.55282 16.0694 8.95857 17.3659 8.95635V6.35944C17.3659 6.35944 15.7859 6.43507 14.6429 5.11561Z" fill="#949494"/>
</svg>
