<svg width="13" height="13" viewBox="0 0 13 13" fill="none" xmlns="http://www.w3.org/2000/svg">
<g clip-path="url(#clip0_1983_1877)">
<path d="M0.928223 6.59506V6.05782C0.928223 5.90947 1.04849 5.7892 1.19684 5.7892H9.88399L7.49327 3.40386C7.44242 3.35342 7.41382 3.28476 7.41382 3.21314C7.41382 3.14152 7.44242 3.07285 7.49327 3.02242L7.87474 2.64635C7.92512 2.5955 7.99377 2.56689 8.06543 2.56689C8.13709 2.56689 8.20573 2.5955 8.25611 2.64635L11.5548 5.93962C11.6304 6.01512 11.6729 6.11753 11.673 6.22436V6.42852C11.6717 6.53511 11.6294 6.63711 11.5548 6.71325L8.25611 10.0065C8.20573 10.0574 8.13709 10.086 8.06543 10.086C7.99377 10.086 7.92512 10.0574 7.87474 10.0065L7.49327 9.62506C7.44273 9.57558 7.41426 9.50776 7.41426 9.43708C7.41426 9.36633 7.44273 9.2985 7.49327 9.24903L9.88399 6.86368H1.19684C1.04849 6.86368 0.928223 6.74341 0.928223 6.59506Z" fill="white"/>
</g>
<defs>
<clipPath id="clip0_1983_1877">
<rect width="12.0305" height="12.0305" fill="white" transform="translate(0.286133 0.311035)"/>
</clipPath>
</defs>
</svg>
