<svg width="44" height="44" viewBox="0 0 44 44" fill="none" xmlns="http://www.w3.org/2000/svg">
<g clip-path="url(#clip0_1983_1864)">
<mask id="mask0_1983_1864" style="mask-type:luminance" maskUnits="userSpaceOnUse" x="0" y="0" width="44" height="44">
<path d="M43.5149 0.0908203H0.20166V43.4041H43.5149V0.0908203Z" fill="white"/>
</mask>
<g mask="url(#mask0_1983_1864)">
<path fill-rule="evenodd" clip-rule="evenodd" d="M25.8917 0.0908227C29.3964 0.0907476 32.2605 0.0906862 34.5216 0.394689C36.8852 0.712456 38.9343 1.40015 40.57 3.03583C42.2057 4.6715 42.8933 6.72065 43.2111 9.08413C43.5151 11.3453 43.515 14.2093 43.5149 17.7141V25.7809C43.515 29.2856 43.5151 32.1496 43.2111 34.4108C42.8933 36.7743 42.2057 38.8234 40.57 40.4591C38.9343 42.0948 36.8852 42.7825 34.5216 43.1002C32.2605 43.4043 29.3964 43.4042 25.8917 43.4041H17.825C14.3202 43.4042 11.4562 43.4043 9.19497 43.1002C6.83149 42.7825 4.78234 42.0948 3.14667 40.4591C1.51099 38.8234 0.823296 36.7743 0.505529 34.4108C0.201526 32.1496 0.201587 29.2856 0.201663 25.7809V17.7141C0.201587 14.2093 0.201526 11.3453 0.505529 9.08413C0.823296 6.72065 1.51099 4.6715 3.14667 3.03583C4.78234 1.40015 6.83149 0.712456 9.19497 0.394689C11.4562 0.0906862 14.3202 0.0907476 17.8249 0.0908227H25.8917ZM4.78741 4.67657C2.52202 6.94195 2.52202 10.588 2.52202 17.8802V25.6147C2.52202 32.9069 2.52202 36.553 4.78741 38.8184C7.05279 41.0838 10.6989 41.0838 17.991 41.0838H25.7256C33.0177 41.0838 36.6638 41.0838 38.9292 38.8184C41.1946 36.553 41.1946 32.9069 41.1946 25.6147V17.8802C41.1946 10.588 41.1946 6.94195 38.9292 4.67657C36.6638 2.41118 33.0177 2.41118 25.7256 2.41118H17.991C10.6989 2.41118 7.05279 2.41118 4.78741 4.67657Z" fill="url(#paint0_linear_1983_1864)"/>
<path d="M2.52295 17.8799C2.52295 10.5877 2.52295 6.94166 4.78833 4.67627C7.05372 2.41089 10.6998 2.41089 17.992 2.41089H25.7265C33.0187 2.41089 36.6647 2.41089 38.9302 4.67627C41.1955 6.94166 41.1955 10.5877 41.1955 17.8799V25.6144C41.1955 32.9066 41.1955 36.5527 38.9302 38.8181C36.6647 41.0835 33.0187 41.0835 25.7265 41.0835H17.992C10.6998 41.0835 7.05372 41.0835 4.78833 38.8181C2.52295 36.5527 2.52295 32.9066 2.52295 25.6144V17.8799Z" fill="white"/>
<path fill-rule="evenodd" clip-rule="evenodd" d="M33.6648 14.7864L26.4426 28.7085H19.6588L22.6813 22.9386H22.5458C20.0522 26.1304 16.3318 28.2317 11.0308 28.7085V23.0185C11.0308 23.0185 14.422 22.8209 16.4155 20.7541H11.0308V14.7865H17.0826V19.6948L17.2185 19.6942L19.6916 14.7865H24.2685V19.6637L24.4043 19.6635L26.9701 14.7864H33.6648Z" fill="#161616"/>
<path fill-rule="evenodd" clip-rule="evenodd" d="M25.7265 4.73124H17.992C14.2803 4.73124 11.73 4.73617 9.81428 4.99372C7.96542 5.24231 7.05879 5.6873 6.42907 6.31701C5.79936 6.94673 5.35437 7.85336 5.10578 9.70222C4.84823 11.6179 4.8433 14.1682 4.8433 17.8799V25.6144C4.8433 29.3262 4.84823 31.8765 5.10578 33.7921C5.35437 35.641 5.79936 36.5476 6.42907 37.1773C7.05879 37.807 7.96542 38.252 9.81428 38.5006C11.73 38.7582 14.2803 38.7631 17.992 38.7631H25.7265C29.4382 38.7631 31.9885 38.7582 33.9042 38.5006C35.7531 38.252 36.6597 37.807 37.2894 37.1773C37.9191 36.5476 38.3641 35.641 38.6127 33.7921C38.8702 31.8765 38.8752 29.3262 38.8752 25.6144V17.8799C38.8752 14.1682 38.8702 11.6179 38.6127 9.70222C38.3641 7.85336 37.9191 6.94673 37.2894 6.31701C36.6597 5.6873 35.7531 5.24231 33.9042 4.99372C31.9885 4.73617 29.4382 4.73124 25.7265 4.73124ZM4.78833 4.67627C2.52295 6.94166 2.52295 10.5877 2.52295 17.8799V25.6144C2.52295 32.9066 2.52295 36.5527 4.78833 38.8181C7.05372 41.0835 10.6998 41.0835 17.992 41.0835H25.7265C33.0187 41.0835 36.6647 41.0835 38.9302 38.8181C41.1955 36.5527 41.1955 32.9066 41.1955 25.6144V17.8799C41.1955 10.5877 41.1955 6.94166 38.9302 4.67627C36.6647 2.41089 33.0187 2.41089 25.7265 2.41089H17.992C10.6998 2.41089 7.05372 2.41089 4.78833 4.67627Z" fill="#161616"/>
</g>
</g>
<defs>
<linearGradient id="paint0_linear_1983_1864" x1="0.20166" y1="0.0908203" x2="44.0568" y2="4.88715" gradientUnits="userSpaceOnUse">
<stop stop-color="#FF7448"/>
<stop offset="0.567708" stop-color="#FF4848"/>
<stop offset="1" stop-color="#6248FF"/>
</linearGradient>
<clipPath id="clip0_1983_1864">
<rect width="43.3133" height="43.3133" fill="white" transform="translate(0.20166 0.0908203)"/>
</clipPath>
</defs>
</svg>
