<svg width="49" height="49" viewBox="0 0 49 49" fill="none" xmlns="http://www.w3.org/2000/svg">
<g clip-path="url(#clip0_2099_2925)">
<mask id="mask0_2099_2925" style="mask-type:luminance" maskUnits="userSpaceOnUse" x="0" y="0" width="49" height="49">
<path d="M49 0H0V49H49V0Z" fill="white"/>
</mask>
<g mask="url(#mask0_2099_2925)">
<path fill-rule="evenodd" clip-rule="evenodd" d="M29.063 2.65658e-06C33.0278 -8.22503e-05 36.2679 -0.000151716 38.8259 0.343765C41.4998 0.703251 43.8179 1.48124 45.6684 3.33167C47.5188 5.18209 48.2968 7.50027 48.6562 10.1741C49.0002 12.7321 49.0001 15.9722 49 19.9371V29.063C49.0001 33.0278 49.0002 36.2679 48.6562 38.8259C48.2968 41.4998 47.5188 43.8179 45.6684 45.6684C43.8179 47.5188 41.4998 48.2968 38.8259 48.6562C36.2679 49.0002 33.0278 49.0001 29.063 49H19.9371C15.9722 49.0001 12.7321 49.0002 10.1741 48.6562C7.50027 48.2968 5.18209 47.5188 3.33167 45.6684C1.48124 43.8179 0.703251 41.4998 0.343765 38.8259C-0.000151716 36.2679 -8.22503e-05 33.0278 2.65658e-06 29.063V19.937C-8.22503e-05 15.9722 -0.000151716 12.7321 0.343765 10.1741C0.703251 7.50027 1.48124 5.18209 3.33167 3.33167C5.18209 1.48124 7.50027 0.703251 10.1741 0.343765C12.7321 -0.000151716 15.9722 -8.22503e-05 19.937 2.65658e-06H29.063ZM5.18782 5.18782C2.62501 7.75064 2.62501 11.8754 2.62501 20.125V28.875C2.62501 37.1246 2.62501 41.2493 5.18782 43.8122C7.75064 46.375 11.8754 46.375 20.125 46.375H28.875C37.1246 46.375 41.2493 46.375 43.8122 43.8122C46.375 41.2493 46.375 37.1246 46.375 28.875V20.125C46.375 11.8754 46.375 7.75064 43.8122 5.18782C41.2493 2.62501 37.1246 2.62501 28.875 2.62501H20.125C11.8754 2.62501 7.75064 2.62501 5.18782 5.18782Z" fill="url(#paint0_linear_2099_2925)"/>
<path d="M2.625 20.1248C2.625 11.8752 2.625 7.75041 5.18781 5.1876C7.75063 2.62479 11.8754 2.62479 20.125 2.62479H28.875C37.1246 2.62479 41.2493 2.62479 43.8122 5.1876C46.375 7.75041 46.375 11.8752 46.375 20.1248V28.8748C46.375 37.1244 46.375 41.2491 43.8122 43.812C41.2493 46.3748 37.1246 46.3748 28.875 46.3748H20.125C11.8754 46.3748 7.75063 46.3748 5.18781 43.812C2.625 41.2491 2.625 37.1244 2.625 28.8748V20.1248Z" fill="white"/>
<path fill-rule="evenodd" clip-rule="evenodd" d="M37.8557 16.6249L29.6852 32.3749H22.0109L25.4302 25.8474H25.2768C22.4559 29.4584 18.247 31.8355 12.25 32.3749V25.9378C12.25 25.9378 16.0864 25.7144 18.3417 23.3762H12.25V16.625H19.0964V22.1778L19.2502 22.1772L22.0479 16.625H27.2257V22.1426L27.3794 22.1423L30.2821 16.6249H37.8557Z" fill="#161616"/>
<path fill-rule="evenodd" clip-rule="evenodd" d="M28.875 5.24979H20.125C15.926 5.24979 13.0408 5.25536 10.8736 5.54673C8.78203 5.82795 7.75636 6.33137 7.04397 7.04376C6.33158 7.75615 5.82817 8.78181 5.54694 10.8734C5.25557 13.0406 5.25 15.9257 5.25 20.1248V28.8748C5.25 33.0738 5.25557 35.959 5.54694 38.1262C5.82817 40.2178 6.33158 41.2434 7.04397 41.9558C7.75636 42.6682 8.78203 43.1716 10.8736 43.4528C13.0408 43.7442 15.926 43.7498 20.125 43.7498H28.875C33.074 43.7498 35.9592 43.7442 38.1264 43.4528C40.218 43.1716 41.2436 42.6682 41.956 41.9558C42.6684 41.2434 43.1718 40.2178 43.453 38.1262C43.7444 35.959 43.75 33.0738 43.75 28.8748V20.1248C43.75 15.9257 43.7444 13.0406 43.453 10.8734C43.1718 8.78181 42.6684 7.75615 41.956 7.04376C41.2436 6.33137 40.218 5.82795 38.1264 5.54673C35.9592 5.25536 33.074 5.24979 28.875 5.24979ZM5.18781 5.1876C2.625 7.75041 2.625 11.8752 2.625 20.1248V28.8748C2.625 37.1244 2.625 41.2491 5.18781 43.812C7.75063 46.3748 11.8754 46.3748 20.125 46.3748H28.875C37.1246 46.3748 41.2493 46.3748 43.8122 43.812C46.375 41.2491 46.375 37.1244 46.375 28.8748V20.1248C46.375 11.8752 46.375 7.75041 43.8122 5.1876C41.2493 2.62479 37.1246 2.62479 28.875 2.62479H20.125C11.8754 2.62479 7.75063 2.62479 5.18781 5.1876Z" fill="#161616"/>
</g>
</g>
<defs>
<linearGradient id="paint0_linear_2099_2925" x1="0" y1="0" x2="49.613" y2="5.42605" gradientUnits="userSpaceOnUse">
<stop stop-color="#FF7448"/>
<stop offset="0.567708" stop-color="#FF4848"/>
<stop offset="1" stop-color="#6248FF"/>
</linearGradient>
<clipPath id="clip0_2099_2925">
<rect width="49" height="49" fill="white"/>
</clipPath>
</defs>
</svg>
