<svg width="16" height="16" viewBox="0 0 16 16" fill="none" xmlns="http://www.w3.org/2000/svg">
<g clip-path="url(#clip0_2099_3035)">
<path fill-rule="evenodd" clip-rule="evenodd" d="M15.1998 5.66405V5.53605C15.2001 5.40406 15.134 5.28078 15.0238 5.20805L8.88781 1.00805C8.68983 0.872693 8.45563 0.800202 8.21581 0.800049H7.78381C7.54398 0.800202 7.30978 0.872693 7.11181 1.00805L0.975807 5.20805C0.86566 5.28078 0.799511 5.40406 0.799806 5.53605V5.66405C0.799511 5.79604 0.86566 5.91932 0.975807 5.99205L7.11181 10.192C7.30978 10.3274 7.54398 10.3999 7.78381 10.4H8.21581C8.45563 10.3999 8.68983 10.3274 8.88781 10.192L15.0238 5.99205C15.134 5.91932 15.2001 5.79604 15.1998 5.66405ZM11.9198 9.81605L13.3358 8.84805L15.0238 10.008C15.134 10.0808 15.2001 10.2041 15.1998 10.336V10.464C15.2001 10.596 15.134 10.7193 15.0238 10.792L8.88781 14.992C8.68983 15.1274 8.45563 15.1999 8.21581 15.2H7.78381C7.54398 15.1999 7.30978 15.1274 7.11181 14.992L0.975807 10.792C0.86566 10.7193 0.799511 10.596 0.799806 10.464V10.336C0.799511 10.2041 0.86566 10.0808 0.975807 10.008L2.66381 8.84805L4.04781 9.81605L3.19981 10.4L7.94381 13.6H8.11981L12.7998 10.4L11.9198 9.81605Z" fill="white"/>
</g>
<defs>
<clipPath id="clip0_2099_3035">
<rect width="16" height="16" fill="white"/>
</clipPath>
</defs>
</svg>
