<svg width="23" height="24" viewBox="0 0 23 24" fill="none" xmlns="http://www.w3.org/2000/svg">
<g clip-path="url(#clip0_2102_3423)">
<path fill-rule="evenodd" clip-rule="evenodd" d="M11.2226 0.596191C5.02453 0.596191 0 5.62072 0 11.8188C0 18.0168 5.02453 23.0414 11.2226 23.0414C17.4206 23.0414 22.4452 18.0168 22.4452 11.8188C22.4452 8.84238 21.2628 5.98787 19.1582 3.88321C17.0535 1.77857 14.1991 0.596191 11.2226 0.596191ZM11.2226 20.7969C6.26418 20.7969 2.24454 16.7772 2.24454 11.8187C2.24454 6.86028 6.26418 2.84066 11.2226 2.84066C16.1811 2.84066 20.2007 6.86028 20.2007 11.8187C20.2007 14.1999 19.2549 16.4835 17.5711 18.1672C15.8874 19.8509 13.6038 20.7969 11.2226 20.7969ZM14.7241 7.87961C14.9422 7.66574 15.2915 7.66574 15.5096 7.87961L16.0708 8.47441C16.1771 8.57976 16.2368 8.72319 16.2368 8.87281C16.2368 9.02243 16.1771 9.16585 16.0708 9.27121L9.76367 15.5784C9.66185 15.6868 9.51968 15.7484 9.37088 15.7484C9.22208 15.7484 9.07991 15.6868 8.97809 15.5784L6.34077 12.9185C6.23454 12.8132 6.17479 12.6698 6.17479 12.5202C6.17479 12.3705 6.23454 12.2271 6.34077 12.1217L6.93557 11.527C7.03739 11.4185 7.17956 11.3569 7.32836 11.3569C7.47716 11.3569 7.61933 11.4185 7.72115 11.527L9.40455 13.1991L14.7241 7.87961Z" fill="white"/>
</g>
<defs>
<clipPath id="clip0_2102_3423">
<rect width="22.4452" height="22.4452" fill="white" transform="translate(0 0.596191)"/>
</clipPath>
</defs>
</svg>
