<svg width="127" height="30" viewBox="0 0 127 30" fill="none" xmlns="http://www.w3.org/2000/svg">
<mask id="mask0_2108_1643" style="mask-type:luminance" maskUnits="userSpaceOnUse" x="0" y="0" width="32" height="30">
<path d="M31.1387 0.0249023H0.682617V29.5217H31.1387V0.0249023Z" fill="white"/>
</mask>
<g mask="url(#mask0_2108_1643)">
<path d="M30.8152 15.1053C30.8152 14.1343 30.7263 13.2126 30.5741 12.3154H16.2344V17.8583H24.4448C24.0768 19.6773 22.9981 21.2136 21.3992 22.2583V25.9454H26.2975C29.1655 23.3767 30.8152 19.5913 30.8152 15.1053Z" fill="white"/>
<path d="M16.2345 29.5218C20.3461 29.5218 23.7852 28.1945 26.2977 25.9453L21.3994 22.2582C20.0289 23.1431 18.2903 23.6839 16.2345 23.6839C12.2626 23.6839 8.89975 21.0907 7.69421 17.5879H2.64355V21.3856C5.14349 26.2034 10.283 29.5218 16.2345 29.5218Z" fill="white"/>
<path d="M7.69399 17.5879C7.37671 16.703 7.21177 15.7565 7.21177 14.7734C7.21177 13.7902 7.38943 12.8438 7.69399 11.9588V8.16113H2.64336C1.60278 10.1522 1.00635 12.389 1.00635 14.7734C1.00635 17.1577 1.60278 19.3946 2.64336 21.3856L7.69399 17.5879Z" fill="white"/>
<path d="M16.2345 5.86282C18.4807 5.86282 20.4858 6.6125 22.072 8.07511L26.412 3.87178C23.7852 1.48746 20.3461 0.0249023 16.2345 0.0249023C10.283 0.0249023 5.14349 3.3433 2.64355 8.16106L7.69421 11.9588C8.89975 8.45604 12.2626 5.86282 16.2345 5.86282Z" fill="white"/>
</g>
<path d="M48.5413 23.7021C49.8654 23.7021 50.5434 22.7172 50.5434 20.8602V20.4498C50.5434 18.7467 49.8019 17.6386 48.5201 17.6386C47.2383 17.6386 46.4755 18.6646 46.4755 20.4703V20.8807C46.4755 22.7377 47.2807 23.7021 48.5413 23.7021ZM48.5413 24.4408C46.7298 24.4408 45.5327 23.025 45.5327 20.891V20.4806C45.5327 18.3158 46.6663 16.9204 48.5201 16.9204C50.3845 16.9204 51.4756 18.3671 51.4756 20.46V20.8704C51.4756 23.0045 50.4057 24.4408 48.5413 24.4408Z" fill="white"/>
<path d="M43.9285 24.3997C43.5577 24.3997 43.2505 24.1124 43.2505 23.7431C43.2505 23.3737 43.5577 23.0864 43.9285 23.0864C44.2992 23.0864 44.6064 23.3737 44.6064 23.7431C44.6064 24.1124 44.2992 24.3997 43.9285 24.3997Z" fill="white"/>
<path d="M39.6183 24.4408C37.987 24.4408 37.2031 23.5687 37.0972 22.3683H37.9764C38.1247 23.1685 38.4531 23.7226 39.6078 23.7226C40.6354 23.7226 41.271 23.0557 41.271 21.9476C41.271 20.9114 40.646 20.2342 39.6819 20.2342C38.8027 20.2342 38.2942 20.501 37.8917 20.9422H37.5527V17.0127H41.8112V17.7821H38.3154V20.0188C38.6226 19.7418 39.1417 19.516 39.8621 19.516C41.218 19.516 42.2138 20.4497 42.2138 21.9476C42.2138 23.4968 41.0591 24.4408 39.6183 24.4408Z" fill="white"/>
<path d="M67.2396 19.0477C67.2019 18.9406 67.133 18.8464 67.041 18.7769C66.9483 18.7075 66.8374 18.6655 66.7209 18.6565L63.314 18.3943L61.8397 15.2337C61.7928 15.1318 61.7164 15.0454 61.6198 14.9847C61.5233 14.924 61.4106 14.8917 61.2955 14.8916C61.1804 14.8915 61.0677 14.9238 60.971 14.9844C60.8744 15.045 60.798 15.1313 60.7509 15.2331L59.2766 18.3943L55.8698 18.6565C55.7552 18.6653 55.6458 18.7058 55.5545 18.7733C55.4632 18.8407 55.3939 18.9322 55.3549 19.0368C55.3159 19.1413 55.3088 19.2547 55.3345 19.363C55.3602 19.4714 55.4176 19.5703 55.4998 19.648L58.0174 22.025L57.1271 25.7592C57.1 25.8723 57.1087 25.9906 57.1519 26.0988C57.1952 26.207 57.271 26.3001 57.3696 26.366C57.4682 26.432 57.5849 26.4677 57.7048 26.4686C57.8245 26.4695 57.9418 26.4355 58.0414 26.371L61.2953 24.27L64.5492 26.371C64.651 26.4364 64.7711 26.4702 64.8932 26.4676C65.0154 26.4649 65.1337 26.4262 65.2325 26.3565C65.3313 26.2867 65.4055 26.1895 65.4455 26.0776C65.4854 25.9657 65.4889 25.8448 65.4558 25.7309L64.3627 22.0267L67.0734 19.6642C67.2508 19.5091 67.3164 19.2671 67.2396 19.0477Z" fill="#F8D830"/>
<path d="M81.5819 19.0478C81.544 18.9406 81.4751 18.8464 81.3829 18.7769C81.2908 18.7075 81.18 18.6655 81.0631 18.6565L77.6566 18.3943L76.1818 15.2337C76.1348 15.1318 76.0586 15.0454 75.962 14.9847C75.8653 14.924 75.7527 14.8917 75.6376 14.8916C75.5223 14.8915 75.4098 14.9238 75.3131 14.9844C75.2165 15.045 75.1403 15.1313 75.0933 15.2331L73.6189 18.3943L70.2117 18.6565C70.0979 18.6653 69.9879 18.7058 69.8966 18.7733C69.8053 18.8407 69.7363 18.9322 69.6973 19.0368C69.6583 19.1413 69.651 19.2547 69.6768 19.363C69.7026 19.4714 69.7596 19.5703 69.8423 19.648L72.3596 22.025L71.469 25.7592C71.4425 25.8723 71.4511 25.9906 71.4942 26.0988C71.5373 26.207 71.6134 26.3001 71.712 26.366C71.8107 26.432 71.9272 26.4677 72.047 26.4686C72.1669 26.4695 72.2841 26.4355 72.3834 26.371L75.6376 24.2701L78.8917 26.371C78.9932 26.4365 79.1132 26.4702 79.2355 26.4676C79.3579 26.4649 79.4764 26.4262 79.5747 26.3565C79.6739 26.2867 79.7474 26.1895 79.7877 26.0776C79.828 25.9657 79.831 25.8448 79.7978 25.7309L78.7051 22.0267L81.4155 19.6642C81.5928 19.5091 81.6586 19.2671 81.5819 19.0478Z" fill="#F8D830"/>
<path d="M95.9236 19.0478C95.8864 18.9406 95.8167 18.8464 95.7253 18.7769C95.6332 18.7075 95.5216 18.6655 95.4055 18.6565L91.9982 18.3943L90.5237 15.2337C90.4765 15.1318 90.4006 15.0454 90.3038 14.9847C90.207 14.924 90.0947 14.8917 89.9793 14.8916C89.8647 14.8915 89.7517 14.9238 89.6549 14.9844C89.5581 15.045 89.4822 15.1313 89.4349 15.2331L87.9605 18.3943L84.554 18.6565C84.4394 18.6653 84.3294 18.7058 84.2388 18.7733C84.1474 18.8407 84.0785 18.9322 84.039 19.0368C84.0003 19.1413 83.9925 19.2547 84.0189 19.363C84.0444 19.4714 84.1017 19.5703 84.1838 19.648L86.7013 22.025L85.8116 25.7592C85.7845 25.8723 85.793 25.9906 85.8364 26.0988C85.8789 26.207 85.9548 26.3001 86.054 26.366C86.1523 26.432 86.2692 26.4677 86.3885 26.4686C86.5085 26.4695 86.6262 26.4355 86.7261 26.371L89.9793 24.2701L93.2333 26.371C93.3356 26.4365 93.4556 26.4702 93.5772 26.4676C93.6995 26.4649 93.818 26.4262 93.9171 26.3565C94.0155 26.2867 94.0898 26.1895 94.1293 26.0776C94.1696 25.9657 94.1727 25.8448 94.1401 25.7309L93.0467 22.0267L95.7571 19.6642C95.9352 19.5091 96.0002 19.2671 95.9236 19.0478Z" fill="#F8D830"/>
<path d="M110.267 19.0478C110.229 18.9406 110.16 18.8464 110.067 18.7769C109.975 18.7075 109.865 18.6655 109.748 18.6565L106.341 18.3943L104.867 15.2337C104.82 15.1318 104.743 15.0454 104.647 14.9847C104.551 14.924 104.438 14.8917 104.323 14.8916C104.208 14.8915 104.095 14.9238 103.999 14.9844C103.902 15.045 103.825 15.1313 103.778 15.2331L102.304 18.3943L98.8968 18.6565C98.7822 18.6653 98.673 18.7058 98.5817 18.7733C98.4903 18.8407 98.4206 18.9322 98.3826 19.0368C98.3432 19.1413 98.3362 19.2547 98.3617 19.363C98.3873 19.4714 98.4446 19.5703 98.5267 19.648L101.045 22.025L100.154 25.7592C100.127 25.8723 100.136 25.9906 100.179 26.0988C100.223 26.207 100.298 26.3001 100.396 26.366C100.495 26.432 100.612 26.4677 100.732 26.4686C100.852 26.4695 100.969 26.4355 101.068 26.371L104.323 24.2701L107.576 26.371C107.678 26.4365 107.798 26.4702 107.92 26.4676C108.042 26.4649 108.161 26.4262 108.259 26.3565C108.358 26.2867 108.433 26.1895 108.473 26.0776C108.512 25.9657 108.516 25.8448 108.483 25.7309L107.39 22.0267L110.101 19.6642C110.278 19.5091 110.343 19.2671 110.267 19.0478Z" fill="#F8D830"/>
<path d="M124.609 19.0478C124.571 18.9406 124.502 18.8464 124.41 18.7769C124.317 18.7075 124.206 18.6655 124.09 18.6565L120.683 18.3943L119.209 15.2337C119.162 15.1318 119.086 15.0454 118.989 14.9847C118.892 14.924 118.78 14.8917 118.664 14.8916C118.549 14.8915 118.437 14.9238 118.34 14.9844C118.243 15.045 118.167 15.1313 118.12 15.2331L116.646 18.3943L113.238 18.6565C113.124 18.6653 113.014 18.7058 112.924 18.7733C112.832 18.8407 112.764 18.9322 112.724 19.0368C112.685 19.1413 112.678 19.2547 112.704 19.363C112.729 19.4714 112.787 19.5703 112.869 19.648L115.386 22.025L114.496 25.7592C114.469 25.8723 114.478 25.9906 114.521 26.0988C114.564 26.207 114.64 26.3001 114.739 26.366C114.837 26.432 114.954 26.4677 115.074 26.4686C115.194 26.4695 115.311 26.4355 115.41 26.371L118.664 24.2701L121.918 26.371C122.02 26.4365 122.141 26.4702 122.262 26.4676C122.385 26.4649 122.502 26.4262 122.601 26.3565C122.701 26.2867 122.775 26.1895 122.814 26.0776C122.854 25.9657 122.858 25.8448 122.825 25.7309L121.732 22.0267L124.442 19.6642C124.62 19.5091 124.685 19.2671 124.609 19.0478Z" fill="#F8D830"/>
<path d="M122.452 9.41121L123.035 9.04191C123.268 9.46251 123.66 9.86263 124.412 9.86263C124.964 9.86263 125.429 9.55491 125.429 9.01108C125.429 7.77996 122.664 8.20056 122.664 6.39486C122.664 5.49201 123.438 4.94824 124.434 4.94824C125.461 4.94824 125.99 5.57409 126.139 5.97422L125.525 6.31279C125.376 6.02552 125.091 5.62539 124.38 5.62539C123.872 5.62539 123.47 5.9024 123.47 6.36409C123.47 7.56448 126.245 7.11305 126.245 8.97006C126.245 9.91393 125.44 10.5501 124.37 10.5501C123.215 10.5501 122.696 9.91393 122.452 9.41121Z" fill="white"/>
<path d="M119.281 10.4166L117.819 6.17934L116.346 10.4166H115.424L113.57 5.08154H114.482L115.922 9.4727C115.922 9.4727 115.933 9.45222 117.405 5.08154H118.231C119.693 9.45222 119.704 9.4727 119.704 9.4727L121.155 5.08154H122.066L120.202 10.4166H119.281Z" fill="white"/>
<path d="M107.867 7.76968C107.867 6.06655 109.074 4.94824 110.537 4.94824C112.157 4.94824 113.153 6.07681 113.153 7.67736C113.153 7.70811 113.153 7.82098 113.142 7.92358H108.725C108.735 9.11368 109.562 9.83188 110.706 9.83188C111.638 9.83188 112.157 9.35991 112.422 9.00088L112.973 9.39073C112.666 9.89346 111.945 10.5501 110.695 10.5501C109.022 10.5501 107.867 9.41121 107.867 7.76968ZM108.767 7.31825H112.295C112.242 6.21019 111.447 5.64591 110.537 5.64591C109.636 5.64591 108.831 6.31279 108.767 7.31825Z" fill="white"/>
<path d="M105.951 10.4168V5.08167H106.788V10.4168H105.951ZM105.792 3.70686C105.792 3.39906 106.046 3.15283 106.364 3.15283C106.693 3.15283 106.947 3.39906 106.947 3.70686C106.947 4.02491 106.693 4.27114 106.364 4.27114C106.046 4.27114 105.792 4.02491 105.792 3.70686Z" fill="white"/>
<path d="M103.038 10.4166H102.116L99.9868 5.08154H100.887L102.583 9.50352L104.267 5.08154H105.157L103.038 10.4166Z" fill="white"/>
<path d="M94.2944 7.76968C94.2944 6.06655 95.5017 4.94824 96.9638 4.94824C98.5846 4.94824 99.5804 6.07681 99.5804 7.67736C99.5804 7.70811 99.5804 7.82098 99.5696 7.92358H95.1525C95.1625 9.11368 95.9888 9.83188 97.1333 9.83188C98.0657 9.83188 98.5846 9.35991 98.8494 9.00088L99.4 9.39073C99.0933 9.89346 98.3724 10.5501 97.1225 10.5501C95.449 10.5501 94.2944 9.41121 94.2944 7.76968ZM95.1943 7.31825H98.7224C98.669 6.21019 97.8744 5.64591 96.9638 5.64591C96.0631 5.64591 95.2578 6.31279 95.1943 7.31825Z" fill="white"/>
<path d="M88.9775 10.4167V3.23486H90.8632C92.3779 3.23486 93.1724 3.97357 93.1724 5.22526C93.1724 6.07682 92.738 6.85656 91.88 7.12331L93.7238 10.4167H92.7697L91.0963 7.29773H89.8356V10.4167H88.9775ZM89.8356 6.56929H90.8632C91.732 6.56929 92.2726 6.17942 92.2726 5.23552C92.2726 4.4763 91.859 3.97357 90.8105 3.97357H89.8356V6.56929Z" fill="white"/>
<path d="M85.2356 4.94824V5.75876C83.9756 5.75876 83.6047 6.72318 83.6047 7.86201V10.4167H82.7676V5.08161H83.5939V5.97422C83.7844 5.44071 84.3992 4.94824 85.2356 4.94824Z" fill="white"/>
<path d="M77.0073 8.77513C77.0073 7.75941 77.8866 7.02071 79.1264 7.02071C79.8249 7.02071 80.3546 7.27721 80.5776 7.50291V6.8463C80.5776 6.09733 80.058 5.66643 79.2425 5.66643C78.5649 5.66643 78.0136 5.9024 77.6217 6.12811L77.2828 5.53305C77.6535 5.30733 78.3845 4.94824 79.3169 4.94824C80.8207 4.94824 81.4139 5.75876 81.4139 6.8976V10.4167H80.6937L80.5985 9.96523C80.3127 10.2833 79.8466 10.5501 79.1047 10.5501C77.8974 10.5501 77.0073 9.81133 77.0073 8.77513ZM77.8548 8.76486C77.8548 9.38046 78.3953 9.87291 79.2425 9.87291C80.0479 9.87291 80.6093 9.41121 80.6093 8.76486C80.6093 8.09796 80.058 7.66708 79.2317 7.66708C78.3953 7.66708 77.8548 8.13906 77.8548 8.76486Z" fill="white"/>
<path d="M74.3069 5.08169V3.96338H75.1438V5.08169H76.3514V5.76909H75.1438V8.51869C75.1438 9.51394 75.4403 9.74989 76.1608 9.74989C76.2667 9.74989 76.3938 9.73962 76.3938 9.73962V10.4578C76.3938 10.4578 76.1713 10.4886 75.8853 10.4886C74.7836 10.4886 74.3069 9.79092 74.3069 8.59054V5.76909H73.6606V5.08169H74.3069Z" fill="white"/>
<path d="M68.5244 8.97013L69.2554 8.66233C69.4566 9.21636 69.9015 9.78066 70.8762 9.78066C71.6601 9.78066 72.2215 9.33951 72.2215 8.59056C72.2215 6.79507 68.7469 7.25676 68.7469 4.93806C68.7469 3.91208 69.552 3.10156 70.8656 3.10156C72.1898 3.10156 72.7829 3.99416 72.9631 4.47637L72.2427 4.76365C72.0732 4.40455 71.6706 3.86078 70.8549 3.86078C70.0393 3.86078 69.6049 4.34299 69.6049 4.93806C69.6049 6.57962 73.0901 6.24105 73.0901 8.53926C73.0901 9.66778 72.2321 10.5502 70.8443 10.5502C69.4037 10.5502 68.7574 9.65758 68.5244 8.97013Z" fill="white"/>
<path d="M62.6521 9.78057C63.5843 9.78057 64.1352 9.07265 64.1352 8.18007C64.1352 7.29773 63.5632 6.57955 62.578 6.57955C61.9847 6.57955 61.6352 6.81552 61.3491 7.0515L60.6288 6.92838L60.7877 3.23486H64.5695V3.99409H61.561L61.455 6.2102C61.7835 5.99474 62.1966 5.86136 62.6944 5.86136C64.061 5.86136 65.0038 6.80526 65.0038 8.13905C65.0038 9.5036 64.0822 10.5501 62.6839 10.5501C61.2538 10.5501 60.5652 9.68825 60.3428 8.98032L61.0843 8.72382C61.2644 9.30867 61.7411 9.78057 62.6521 9.78057Z" fill="white"/>
<path d="M51.8394 7.56462V6.87722H53.9475V4.69189H54.7102V6.87722H56.8182V7.56462H54.7102V9.76024H53.9475V7.56462H51.8394Z" fill="white"/>
<path d="M50.8781 6.82585C50.8781 9.18561 50.3378 10.5502 48.484 10.5502C46.6301 10.5502 46.0898 9.18561 46.0898 6.82585C46.0898 4.46611 46.6301 3.10156 48.484 3.10156C50.3378 3.10156 50.8781 4.46611 50.8781 6.82585ZM46.9586 6.82585C46.9586 8.51871 47.0856 9.77038 48.484 9.77038C49.8823 9.77038 49.9988 8.50843 49.9988 6.82585C49.9988 5.14326 49.8823 3.8813 48.484 3.8813C47.0856 3.8813 46.9586 5.15351 46.9586 6.82585Z" fill="white"/>
<path d="M42.7273 9.78057C43.6595 9.78057 44.2104 9.07265 44.2104 8.18007C44.2104 7.29773 43.6383 6.57955 42.6532 6.57955C42.0599 6.57955 41.7103 6.81552 41.4243 7.0515L40.7039 6.92838L40.8629 3.23486H44.6447V3.99409H41.6362L41.5302 6.2102C41.8586 5.99474 42.2718 5.86136 42.7696 5.86136C44.1362 5.86136 45.079 6.80526 45.079 8.13905C45.079 9.5036 44.1574 10.5501 42.7591 10.5501C41.329 10.5501 40.6404 9.68825 40.418 8.98032L41.1594 8.72382C41.3396 9.30867 41.8163 9.78057 42.7273 9.78057Z" fill="white"/>
<path d="M37.4035 4.41474L37.1387 3.72734L38.4205 3.23486H39.1196V10.4167H38.2616V4.07617L37.4035 4.41474Z" fill="white"/>
</svg>
