<svg width="95" height="30" viewBox="0 0 95 30" fill="none" xmlns="http://www.w3.org/2000/svg">
<path d="M30.2329 22V8.98436H25.2048V7.25372H37.0838V8.98436H32.0557V22H30.2329ZM46.6737 22.3072C45.5336 22.3072 44.5266 22.0717 43.6527 21.6006C42.7789 21.1296 42.0928 20.4708 41.5944 19.6242C41.1029 18.7708 40.8571 17.7707 40.8571 16.6238V7.26396L42.7004 7.25372V16.4701C42.7004 17.1665 42.8164 17.7741 43.0486 18.2929C43.2875 18.805 43.6015 19.2317 43.9907 19.573C44.3798 19.9144 44.8065 20.1704 45.2707 20.341C45.7418 20.5049 46.2094 20.5868 46.6737 20.5868C47.1447 20.5868 47.6158 20.5015 48.0869 20.3308C48.5579 20.1601 48.9846 19.9075 49.3669 19.573C49.7561 19.2317 50.0667 18.8016 50.2988 18.2827C50.5309 17.7639 50.647 17.1597 50.647 16.4701V7.25372H52.4903V16.6238C52.4903 17.7639 52.2411 18.7606 51.7427 19.614C51.2512 20.4673 50.5685 21.1296 49.6946 21.6006C48.8208 22.0717 47.8138 22.3072 46.6737 22.3072ZM57.5006 22V7.25372H62.0474C62.1976 7.25372 62.4604 7.25713 62.8359 7.26396C63.2114 7.27078 63.5698 7.29809 63.9112 7.34588C65.0513 7.49607 66.0036 7.91252 66.7683 8.59522C67.5397 9.27109 68.12 10.1313 68.5091 11.1758C68.8983 12.2203 69.0928 13.3707 69.0928 14.6269C69.0928 15.883 68.8983 17.0334 68.5091 18.0779C68.12 19.1224 67.5397 19.986 66.7683 20.6687C66.0036 21.3446 65.0513 21.7576 63.9112 21.9078C63.5698 21.9488 63.208 21.9761 62.8257 21.9898C62.4502 21.9966 62.1908 22 62.0474 22H57.5006ZM59.3746 20.2591H62.0474C62.3068 20.2591 62.597 20.2523 62.9178 20.2386C63.2387 20.2182 63.5186 20.1874 63.7576 20.1465C64.5631 19.9963 65.2151 19.6583 65.7135 19.1327C66.2119 18.607 66.5771 17.9516 66.8092 17.1665C67.0413 16.3814 67.1574 15.5348 67.1574 14.6269C67.1574 13.6984 67.0379 12.8416 66.799 12.0565C66.5669 11.2714 66.2016 10.6194 65.7032 10.1006C65.2049 9.58172 64.5563 9.25061 63.7576 9.10724C63.5186 9.05945 63.2353 9.02873 62.9076 9.01508C62.5799 9.00142 62.2932 8.9946 62.0474 8.9946H59.3746V20.2591ZM73.7889 22V7.25372H75.6117V22H73.7889ZM86.8896 22.3072C85.4218 22.3072 84.1759 21.9829 83.1518 21.3344C82.1278 20.6858 81.3461 19.7846 80.8067 18.6309C80.2742 17.4771 80.008 16.1424 80.008 14.6269C80.008 13.1113 80.2742 11.7766 80.8067 10.6228C81.3461 9.46907 82.1278 8.56791 83.1518 7.91935C84.1759 7.27078 85.4218 6.9465 86.8896 6.9465C88.3642 6.9465 89.6135 7.27078 90.6376 7.91935C91.6616 8.56791 92.4399 9.46907 92.9724 10.6228C93.5049 11.7766 93.7712 13.1113 93.7712 14.6269C93.7712 16.1424 93.5049 17.4771 92.9724 18.6309C92.4399 19.7846 91.6616 20.6858 90.6376 21.3344C89.6135 21.9829 88.3642 22.3072 86.8896 22.3072ZM86.8896 20.5663C87.9887 20.5732 88.9035 20.3274 89.634 19.829C90.3713 19.3238 90.9209 18.6241 91.2827 17.7297C91.6514 16.8354 91.8357 15.8011 91.8357 14.6269C91.8357 13.4458 91.6514 12.4115 91.2827 11.524C90.9209 10.6365 90.3713 9.94355 89.634 9.44518C88.9035 8.94681 87.9887 8.69421 86.8896 8.68738C85.7904 8.68055 84.8756 8.92633 84.1451 9.4247C83.4215 9.92307 82.8753 10.6194 82.5067 11.5138C82.138 12.4081 81.9503 13.4458 81.9434 14.6269C81.9366 15.8011 82.1175 16.832 82.4862 17.7195C82.8548 18.607 83.4044 19.3033 84.1349 19.8085C84.8722 20.3069 85.7904 20.5595 86.8896 20.5663Z" fill="white"/>
<rect x="0.832671" y="4.76145" width="20.9325" height="20.9325" rx="10.4662" fill="white" stroke="white" stroke-width="0.951475"/>
<path d="M11.5292 22.3072C10.471 22.3072 9.51523 22.1263 8.66186 21.7645C7.81532 21.3958 7.11555 20.8735 6.56256 20.1977C6.01641 19.515 5.6614 18.706 5.49755 17.7707L7.72998 17.4327C7.95527 18.3339 8.42633 19.0371 9.14316 19.5423C9.86 20.0407 10.6963 20.2898 11.6521 20.2898C12.246 20.2898 12.7922 20.1977 13.2906 20.0133C13.7889 19.8222 14.1883 19.5525 14.4887 19.2044C14.7959 18.8493 14.9495 18.4261 14.9495 17.9345C14.9495 17.6683 14.9017 17.4327 14.8061 17.2279C14.7174 17.0231 14.5911 16.8456 14.4272 16.6954C14.2702 16.5384 14.0757 16.4053 13.8435 16.2961C13.6183 16.18 13.3691 16.081 13.096 15.9991L9.31725 14.8829C8.94859 14.7736 8.57311 14.6337 8.1908 14.463C7.80849 14.2855 7.4569 14.0568 7.13603 13.7769C6.82199 13.4902 6.56598 13.1386 6.368 12.7221C6.17001 12.2989 6.07102 11.7868 6.07102 11.1861C6.07102 10.2781 6.30314 9.51003 6.76737 8.88195C7.23844 8.24704 7.87334 7.76915 8.6721 7.44828C9.47086 7.12059 10.3652 6.95674 11.3551 6.95674C12.3518 6.9704 13.2428 7.1479 14.0279 7.48925C14.8198 7.8306 15.4752 8.32214 15.994 8.96388C16.5197 9.59878 16.8815 10.3702 17.0795 11.2782L14.7857 11.6674C14.6833 11.1144 14.4648 10.6399 14.1303 10.2439C13.7958 9.84114 13.3861 9.53393 12.9014 9.32229C12.4167 9.10383 11.891 8.99118 11.3244 8.98436C10.7782 8.9707 10.2764 9.05263 9.81904 9.23013C9.36845 9.40763 9.00662 9.65681 8.73354 9.97768C8.46729 10.2986 8.33417 10.6672 8.33417 11.0837C8.33417 11.4933 8.45364 11.8244 8.69258 12.077C8.93153 12.3296 9.22509 12.531 9.57326 12.6812C9.92827 12.8245 10.2799 12.944 10.628 13.0396L13.352 13.8076C13.6933 13.9032 14.0791 14.0329 14.5092 14.1968C14.9461 14.3538 15.366 14.5757 15.7688 14.8624C16.1784 15.1491 16.5163 15.5314 16.7826 16.0093C17.0488 16.4804 17.1819 17.0743 17.1819 17.7912C17.1819 18.5353 17.0317 19.1907 16.7314 19.7573C16.431 20.3171 16.0179 20.7882 15.4923 21.1705C14.9734 21.546 14.3726 21.8293 13.6899 22.0205C13.0072 22.2116 12.287 22.3072 11.5292 22.3072Z" fill="#0D0D0D"/>
</svg>
