<svg width="58" height="24" viewBox="0 0 58 24" fill="none" xmlns="http://www.w3.org/2000/svg">
<path d="M11.1179 23.6117H3.46468L0 0.224609H5.34109L7.40022 16.1379L9.23446 0.224609H14.5755L11.1179 23.6117ZM24.8923 23.6117H19.6004V15.9272L15.1167 0.242167H20.6827L22.2498 8.15492L23.81 0.242167H29.3619L24.8923 15.9272V23.6117ZM38.3856 23.6117H30.7815V0.242167H38.3856C40.4283 0.242167 41.9135 0.655753 42.8411 1.48292C43.7735 2.3101 44.2397 3.67571 44.2397 5.57976V6.60397C44.2397 7.70037 44.0031 8.58996 43.5299 9.27277C43.0567 9.95168 42.3351 10.3984 41.3653 10.613C42.6303 10.8783 43.4783 11.5007 43.9094 12.48C44.3404 13.4554 44.5559 14.6474 44.5559 16.056C44.5559 17.5698 44.3873 18.8945 44.0499 20.0299C43.7079 21.1614 43.0895 22.0413 42.1946 22.6694C41.3044 23.2976 40.0347 23.6117 38.3856 23.6117ZM36.2632 3.85324V9.04452H37.4157C37.9358 9.04452 38.2708 8.87674 38.4207 8.54119C38.5659 8.20564 38.6386 7.80181 38.6386 7.3297V4.98279C38.6386 4.22976 38.2403 3.85324 37.4438 3.85324H36.2632ZM36.8254 19.4973C38.2778 19.4973 39.004 18.9218 39.004 17.7708V14.8503C39.004 14.187 38.8845 13.6622 38.6456 13.276C38.4066 12.8897 37.9592 12.6966 37.3033 12.6966H36.2632V19.468C36.4974 19.4876 36.6848 19.4973 36.8254 19.4973ZM58 23.6117H46.4042V0.242167H57.6346V4.75454H52.1178V9.30789H57.4097V13.7091H52.1178V19.0584H58V23.6117Z" fill="white"/>
</svg>
