<svg width="19" height="19" viewBox="0 0 19 19" fill="none" xmlns="http://www.w3.org/2000/svg">
<g clip-path="url(#clip0_2088_2691)">
<mask id="mask0_2088_2691" style="mask-type:luminance" maskUnits="userSpaceOnUse" x="0" y="0" width="19" height="19">
<path d="M18.8792 0.120605H0.120605V18.8792H18.8792V0.120605Z" fill="white"/>
</mask>
<g mask="url(#mask0_2088_2691)">
<mask id="mask1_2088_2691" style="mask-type:luminance" maskUnits="userSpaceOnUse" x="-58612" y="-58612" width="117243" height="117243">
<path d="M-58611.2 -58611.2H58630.2V58630.2H-58611.2V-58611.2Z" fill="white"/>
</mask>
<g mask="url(#mask1_2088_2691)">
<mask id="mask2_2088_2691" style="mask-type:luminance" maskUnits="userSpaceOnUse" x="-58613" y="-58610" width="117242" height="117242">
<path d="M-58612.9 -58609.4H58628.4V58631.9H-58612.9V-58609.4Z" fill="white"/>
</mask>
<g mask="url(#mask2_2088_2691)">
<mask id="mask3_2088_2691" style="mask-type:luminance" maskUnits="userSpaceOnUse" x="-58583" y="-58580" width="117182" height="117182">
<path d="M-58582.7 -58360.7L58379.7 -58579.2L58598.2 58383.2L-58364.2 58601.7L-58582.7 -58360.7Z" fill="white"/>
</mask>
<g mask="url(#mask3_2088_2691)">
<path fill-rule="evenodd" clip-rule="evenodd" d="M7.74834 3.65302C7.91988 3.6527 8.06035 3.71482 8.20088 3.80812C8.34143 3.91702 8.41964 4.04163 8.46674 4.21309L9.29862 7.08095C9.47132 7.70441 9.81548 8.28077 10.2686 8.73217C10.7217 9.18357 11.9234 9.69595 11.9234 9.69595L14.8099 10.5171C14.966 10.5636 15.1065 10.6413 15.2003 10.7814C15.2941 10.9216 15.3568 11.0775 15.3571 11.249C15.3574 11.4205 15.2954 11.5766 15.202 11.7015C15.1087 11.8421 14.9685 11.9203 14.8127 11.9674L11.9292 12.7993C11.3057 12.972 10.7294 13.3161 10.278 13.7692C9.82658 14.2223 9.48457 14.7999 9.3142 15.4241L8.49308 18.3106C8.44658 18.4666 8.36887 18.6071 8.2287 18.701C8.08852 18.7948 7.94828 18.8574 7.77674 18.8577C7.6052 18.8581 7.44914 18.796 7.30861 18.7027C7.16809 18.6094 7.08985 18.4692 7.04278 18.3133L6.21088 15.4298C6.03817 14.8064 5.69401 14.23 5.24092 13.7786C4.78784 13.3272 4.2102 12.9852 3.58609 12.8149L0.699549 11.9937C0.543515 11.9472 0.403019 11.8695 0.309189 11.7293C0.215388 11.6048 0.152719 11.4489 0.152398 11.2774C0.152078 11.1059 0.214165 10.9498 0.30747 10.8093C0.400776 10.6687 0.540981 10.5905 0.69684 10.5434L3.5803 9.71153C4.20376 9.53882 4.78012 9.19466 5.23152 8.74158C5.68291 8.28849 6.02492 7.71085 6.19529 7.08674L7.01645 4.2158C7.06291 4.04417 7.14065 3.91927 7.2808 3.80984C7.42097 3.71601 7.5768 3.65334 7.74834 3.65302Z" fill="white" fill-opacity="0.8"/>
</g>
</g>
<mask id="mask4_2088_2691" style="mask-type:luminance" maskUnits="userSpaceOnUse" x="-58606" y="-58617" width="117242" height="117242">
<path d="M-58605.9 -58616.5H58635.5V58624.9H-58605.9V-58616.5Z" fill="white"/>
</mask>
<g mask="url(#mask4_2088_2691)">
<mask id="mask5_2088_2691" style="mask-type:luminance" maskUnits="userSpaceOnUse" x="-58240" y="-58251" width="116510" height="116510">
<path d="M-58240 -55942.3L55961.3 -58250.5L58269.5 55950.7L-55931.7 58259L-58240 -55942.3Z" fill="white"/>
</mask>
<g mask="url(#mask5_2088_2691)">
<path fill-rule="evenodd" clip-rule="evenodd" d="M14.7057 0.218132C14.7971 0.216285 14.8735 0.229973 14.9509 0.28934C15.0127 0.333788 15.0602 0.424224 15.0922 0.49974L15.5494 2.01377C15.6472 2.33168 15.8357 2.61729 16.0843 2.85599C16.3328 3.09469 16.9474 3.35645 16.9474 3.35645L18.4787 3.75202C18.5554 3.78093 18.6325 3.82507 18.6949 3.89997C18.7419 3.95996 18.7742 4.0507 18.776 4.14206C18.7778 4.23342 18.7489 4.31016 18.7045 4.37199C18.6451 4.44936 18.5699 4.49657 18.4944 4.52857L16.9804 4.98568C16.6625 5.0835 16.3768 5.27207 16.1381 5.52062C15.8994 5.76916 15.7226 6.06216 15.6377 6.38376L15.2421 7.91502C15.2132 7.99177 15.1694 8.08405 15.1094 8.13096C15.0345 8.19341 14.9587 8.21017 14.8673 8.21202C14.7759 8.21387 14.6843 8.20049 14.6221 8.14081C14.5451 8.09667 14.4976 8.00624 14.4656 7.93072L14.0085 6.41669C13.9106 6.09878 13.7221 5.81317 13.4735 5.57447C13.225 5.33578 12.932 5.1589 12.6104 5.07401L11.0791 4.67844C11.0024 4.64953 10.9101 4.6057 10.8629 4.53049C10.8007 4.47081 10.784 4.39499 10.7821 4.30363C10.7803 4.21227 10.7936 4.12061 10.8533 4.05847C10.8975 3.98141 10.9879 3.93389 11.0634 3.90189L12.5774 3.44478C12.8954 3.34696 13.181 3.15839 13.4197 2.90984C13.6584 2.6613 13.8352 2.3683 13.9201 2.0467L14.3157 0.515436C14.3446 0.438688 14.3884 0.346406 14.4636 0.299188C14.5233 0.237051 14.6144 0.219978 14.7057 0.218132Z" fill="white" fill-opacity="0.8"/>
</g>
</g>
</g>
</g>
</g>
<defs>
<clipPath id="clip0_2088_2691">
<rect width="18.7586" height="18.7586" fill="white" transform="translate(0.120605 0.120605)"/>
</clipPath>
</defs>
</svg>
