<svg width="20" height="20" viewBox="0 0 20 20" fill="none" xmlns="http://www.w3.org/2000/svg">
<g clip-path="url(#clip0_1973_2258)">
<mask id="mask0_1973_2258" style="mask-type:luminance" maskUnits="userSpaceOnUse" x="0" y="0" width="20" height="20">
<path d="M19.3797 0.620667H0.621094V19.3793H19.3797V0.620667Z" fill="white"/>
</mask>
<g mask="url(#mask0_1973_2258)">
<mask id="mask1_1973_2258" style="mask-type:luminance" maskUnits="userSpaceOnUse" x="-58611" y="-58611" width="117242" height="117242">
<path d="M-58610.7 -58610.7H58630.7V58630.7H-58610.7V-58610.7Z" fill="white"/>
</mask>
<g mask="url(#mask1_1973_2258)">
<mask id="mask2_1973_2258" style="mask-type:luminance" maskUnits="userSpaceOnUse" x="-58613" y="-58609" width="117242" height="117242">
<path d="M-58612.4 -58608.9H58628.9V58632.4H-58612.4V-58608.9Z" fill="white"/>
</mask>
<g mask="url(#mask2_1973_2258)">
<mask id="mask3_1973_2258" style="mask-type:luminance" maskUnits="userSpaceOnUse" x="-58583" y="-58579" width="117182" height="117182">
<path d="M-58582.2 -58360.2L58380.2 -58578.7L58598.7 58383.7L-58363.7 58602.2L-58582.2 -58360.2Z" fill="white"/>
</mask>
<g mask="url(#mask3_1973_2258)">
<path fill-rule="evenodd" clip-rule="evenodd" d="M8.24883 4.15308C8.42037 4.15276 8.56084 4.21488 8.70137 4.30818C8.84192 4.41708 8.92013 4.54169 8.96723 4.71315L9.7991 7.58101C9.97181 8.20447 10.316 8.78083 10.7691 9.23223C11.2221 9.68363 12.4239 10.196 12.4239 10.196L15.3104 11.0171C15.4665 11.0636 15.607 11.1413 15.7008 11.2815C15.7946 11.4217 15.8573 11.5775 15.8576 11.7491C15.8579 11.9206 15.7958 12.0767 15.7025 12.2016C15.6092 12.3421 15.469 12.4204 15.3131 12.4674L12.4297 13.2993C11.8062 13.472 11.2299 13.8162 10.7785 14.2693C10.3271 14.7224 9.98506 15.3 9.81469 15.9241L8.99356 18.8107C8.94707 18.9667 8.86936 19.1072 8.72918 19.201C8.58901 19.2948 8.44877 19.3575 8.27723 19.3578C8.10569 19.3581 7.94963 19.296 7.8091 19.2027C7.66858 19.1094 7.59034 18.9692 7.54327 18.8134L6.71136 15.9299C6.53866 15.3064 6.1945 14.7301 5.74141 14.2787C5.28832 13.8273 4.71068 13.4853 4.08658 13.3149L1.20004 12.4938C1.044 12.4473 0.903507 12.3696 0.809677 12.2294C0.715877 12.1048 0.653207 11.949 0.652887 11.7775C0.652566 11.6059 0.714653 11.4499 0.807959 11.3093C0.901264 11.1688 1.04147 11.0906 1.19733 11.0435L4.08078 10.2116C4.70425 10.0389 5.28061 9.69473 5.732 9.24164C6.1834 8.78855 6.52541 8.21091 6.69578 7.58681L7.51693 4.71586C7.5634 4.54423 7.64114 4.41933 7.78128 4.3099C7.92146 4.21607 8.07729 4.1534 8.24883 4.15308Z" fill="white"/>
</g>
</g>
<mask id="mask4_1973_2258" style="mask-type:luminance" maskUnits="userSpaceOnUse" x="-58606" y="-58616" width="117242" height="117242">
<path d="M-58605.4 -58616H58636V58625.4H-58605.4V-58616Z" fill="white"/>
</mask>
<g mask="url(#mask4_1973_2258)">
<mask id="mask5_1973_2258" style="mask-type:luminance" maskUnits="userSpaceOnUse" x="-58240" y="-58251" width="116511" height="116511">
<path d="M-58239.5 -55941.8L55961.8 -58250L58270 55951.2L-55931.2 58259.5L-58239.5 -55941.8Z" fill="white"/>
</mask>
<g mask="url(#mask5_1973_2258)">
<path fill-rule="evenodd" clip-rule="evenodd" d="M15.2057 0.718132C15.2971 0.716285 15.3735 0.729973 15.4509 0.78934C15.5127 0.833788 15.5602 0.924224 15.5922 0.99974L16.0494 2.51377C16.1472 2.83168 16.3357 3.11729 16.5843 3.35599C16.8328 3.59469 17.4474 3.85645 17.4474 3.85645L18.9787 4.25202C19.0554 4.28093 19.1325 4.32507 19.1949 4.39997C19.2419 4.45996 19.2742 4.5507 19.276 4.64206C19.2778 4.73342 19.2489 4.81016 19.2045 4.87199C19.1451 4.94936 19.0699 4.99657 18.9944 5.02857L17.4804 5.48568C17.1625 5.5835 16.8768 5.77207 16.6381 6.02062C16.3994 6.26916 16.2226 6.56216 16.1377 6.88376L15.7421 8.41502C15.7132 8.49177 15.6694 8.58405 15.6094 8.63096C15.5345 8.69341 15.4587 8.71017 15.3673 8.71202C15.2759 8.71387 15.1843 8.70049 15.1221 8.64081C15.0451 8.59667 14.9976 8.50624 14.9656 8.43072L14.5085 6.91669C14.4106 6.59878 14.2221 6.31317 13.9735 6.07447C13.725 5.83578 13.432 5.6589 13.1104 5.57401L11.5791 5.17844C11.5024 5.14953 11.4101 5.1057 11.3629 5.03049C11.3007 4.97081 11.284 4.89499 11.2821 4.80363C11.2803 4.71227 11.2936 4.62061 11.3533 4.55847C11.3975 4.48141 11.4879 4.43389 11.5634 4.40189L13.0774 3.94478C13.3954 3.84696 13.681 3.65839 13.9197 3.40984C14.1584 3.1613 14.3352 2.8683 14.4201 2.5467L14.8157 1.01544C14.8446 0.938688 14.8884 0.846406 14.9636 0.799188C15.0233 0.737051 15.1144 0.719978 15.2057 0.718132Z" fill="white"/>
</g>
</g>
</g>
</g>
</g>
<defs>
<clipPath id="clip0_1973_2258">
<rect width="18.7586" height="18.7586" fill="white" transform="translate(0.621094 0.620667)"/>
</clipPath>
</defs>
</svg>
