<svg width="19" height="19" viewBox="0 0 19 19" fill="none" xmlns="http://www.w3.org/2000/svg">
<g clip-path="url(#clip0_1960_2666)">
<path fill-rule="evenodd" clip-rule="evenodd" d="M9.25786 0.409363C4.14488 0.409363 0 4.55425 0 9.66722C0 14.7802 4.14488 18.9251 9.25786 18.9251C14.3708 18.9251 18.5157 14.7802 18.5157 9.66722C18.5157 7.21189 17.5403 4.85712 15.8042 3.12093C14.068 1.38474 11.7132 0.409363 9.25786 0.409363ZM9.25786 17.0735C5.16751 17.0735 1.85159 13.7575 1.85159 9.66718C1.85159 5.5768 5.16751 2.26089 9.25786 2.26089C13.3483 2.26089 16.6642 5.5768 16.6642 9.66718C16.6642 11.6315 15.8839 13.5153 14.4949 14.9042C13.106 16.2932 11.2222 17.0735 9.25786 17.0735ZM12.1463 6.41767C12.3263 6.24124 12.6144 6.24124 12.7944 6.41767L13.2573 6.90834C13.3449 6.99525 13.3942 7.11356 13.3942 7.23699C13.3942 7.36042 13.3449 7.47873 13.2573 7.56564L8.05434 12.7686C7.97034 12.858 7.85307 12.9089 7.73032 12.9089C7.60757 12.9089 7.49029 12.858 7.40629 12.7686L5.23069 10.5744C5.14306 10.4876 5.09377 10.3692 5.09377 10.2458C5.09377 10.1223 5.14306 10.004 5.23069 9.91709L5.72136 9.42647C5.80536 9.33697 5.92263 9.2862 6.04538 9.2862C6.16813 9.2862 6.28541 9.33697 6.36941 9.42647L7.75809 10.8058L12.1463 6.41767Z" fill="white" fill-opacity="0.8"/>
</g>
<defs>
<clipPath id="clip0_1960_2666">
<rect width="18.5157" height="18.5157" fill="white" transform="translate(0 0.409363)"/>
</clipPath>
</defs>
</svg>
