<svg width="222" height="16" viewBox="0 0 222 16" fill="none" xmlns="http://www.w3.org/2000/svg">
<path d="M1.08071 12.1921C0.892896 12.1921 0.70935 12.1323 0.530073 12.0128C0.359333 11.8933 0.273962 11.6969 0.273962 11.4238C0.273962 11.2018 0.329453 11.0225 0.440434 10.8859C0.551415 10.7493 0.679471 10.6512 0.8246 10.5914C0.969729 10.5231 1.09778 10.4889 1.20877 10.4889C1.31975 10.4889 1.44353 10.5146 1.58013 10.5658C1.72526 10.617 1.84904 10.7066 1.95149 10.8347C2.05393 10.9542 2.10515 11.1335 2.10515 11.3725C2.10515 11.6116 2.00271 11.8079 1.79782 11.9616C1.59293 12.1152 1.35389 12.1921 1.08071 12.1921ZM3.13374 12.1921C2.94593 12.1921 2.76238 12.1323 2.5831 12.0128C2.41236 11.8933 2.32699 11.6969 2.32699 11.4238C2.32699 11.2018 2.38248 11.0225 2.49346 10.8859C2.60445 10.7493 2.7325 10.6512 2.87763 10.5914C3.02276 10.5231 3.15082 10.4889 3.2618 10.4889C3.37278 10.4889 3.49656 10.5146 3.63316 10.5658C3.77829 10.617 3.90207 10.7066 4.00452 10.8347C4.10696 10.9542 4.15818 11.1335 4.15818 11.3725C4.15818 11.6116 4.05574 11.8079 3.85085 11.9616C3.64596 12.1152 3.40693 12.1921 3.13374 12.1921ZM5.18677 12.1921C4.99896 12.1921 4.81541 12.1323 4.63613 12.0128C4.46539 11.8933 4.38002 11.6969 4.38002 11.4238C4.38002 11.2018 4.43551 11.0225 4.5465 10.8859C4.65748 10.7493 4.78553 10.6512 4.93066 10.5914C5.07579 10.5231 5.20385 10.4889 5.31483 10.4889C5.42581 10.4889 5.5496 10.5146 5.68619 10.5658C5.83132 10.617 5.9551 10.7066 6.05755 10.8347C6.15999 10.9542 6.21121 11.1335 6.21121 11.3725C6.21121 11.6116 6.10877 11.8079 5.90388 11.9616C5.69899 12.1152 5.45996 12.1921 5.18677 12.1921ZM12.4522 13.319C12.2643 13.319 12.0979 13.2251 11.9527 13.0372C11.8161 12.8494 11.7478 12.5549 11.7478 12.1537C11.7478 11.9232 11.9271 11.2573 12.2857 10.156C12.6528 9.04619 13.2077 7.5266 13.9504 5.59724C13.626 6.07531 13.2802 6.53631 12.9131 6.98023C12.5461 7.41562 12.1704 7.77418 11.7863 8.0559C11.4106 8.33762 11.0435 8.47848 10.685 8.47848C10.113 8.47848 9.66908 8.30347 9.35321 7.95345C9.04588 7.5949 8.89222 7.04426 8.89222 6.30154C8.89222 5.43077 8.95197 4.66243 9.07149 3.99655C9.19955 3.33066 9.34041 2.8099 9.49407 2.43427C9.65628 2.05864 9.78433 1.87083 9.87824 1.87083C10.0063 1.87083 10.1514 1.93486 10.3136 2.06291C10.4844 2.18243 10.5697 2.36598 10.5697 2.61355C10.5697 2.85259 10.5142 3.19407 10.4033 3.63799C10.3008 4.07338 10.1941 4.5728 10.0831 5.13624C9.97215 5.69968 9.91666 6.28447 9.91666 6.8906C9.91666 7.06987 9.95507 7.20647 10.0319 7.30037C10.1087 7.38574 10.2069 7.42843 10.3264 7.42843C10.6423 7.42843 10.9752 7.31745 11.3253 7.09548C11.6753 6.87352 12.021 6.58326 12.3625 6.22471C12.704 5.85762 13.0327 5.45638 13.3485 5.02099C13.6644 4.5856 13.9504 4.15448 14.2065 3.72763C14.4712 3.29224 14.6931 2.89527 14.8724 2.53672C15.1029 2.06718 15.2779 1.75985 15.3974 1.61472C15.5255 1.46105 15.6578 1.38422 15.7944 1.38422C15.9481 1.38422 16.0889 1.46105 16.217 1.61472C16.345 1.75985 16.4091 1.89217 16.4091 2.01169C16.4091 2.13121 16.3194 2.38305 16.1401 2.76722C15.9609 3.15138 15.7304 3.68921 15.4486 4.38071C15.1669 5.06367 14.8767 5.93018 14.5779 6.98023C14.2108 8.2864 13.9077 9.35352 13.6687 10.1816C13.4382 11.0097 13.2461 11.65 13.0924 12.1024C12.9473 12.5634 12.8235 12.8793 12.7211 13.0501C12.6272 13.2293 12.5375 13.319 12.4522 13.319ZM21.0609 12.0256C20.8475 12.0256 20.6213 11.9616 20.3822 11.8335C20.1432 11.7055 19.9212 11.4963 19.7163 11.2061C19.52 10.9158 19.3578 10.5316 19.2297 10.0536C19.1017 9.57549 19.0376 8.98643 19.0376 8.2864C19.0376 7.73149 19.1059 7.16805 19.2425 6.59607C19.3877 6.01555 19.6096 5.46918 19.9084 4.95696C20.2157 4.4362 20.6084 3.98801 21.0865 3.61238C21.5731 3.22822 22.1622 2.96357 22.8537 2.81844C23.1525 2.75014 23.4897 2.68612 23.8653 2.62636C24.2495 2.55806 24.6379 2.4983 25.0306 2.44708C25.4319 2.38732 25.8075 2.34037 26.1575 2.30622C26.5161 2.27207 26.8191 2.255 27.0667 2.255C27.4679 2.255 27.7539 2.32756 27.9247 2.47269C28.1039 2.60928 28.1936 2.74161 28.1936 2.86966C28.1936 2.95503 28.1594 3.03613 28.0911 3.11297C28.0228 3.18126 27.8905 3.22395 27.6942 3.24102C27.6173 3.24956 27.4551 3.2709 27.2076 3.30505C26.96 3.33066 26.6612 3.36908 26.3112 3.4203C25.9612 3.47152 25.5941 3.52701 25.2099 3.58677C24.8343 3.63799 24.4672 3.69348 24.1086 3.75324C23.7586 3.80446 23.4555 3.85142 23.1994 3.8941C22.4909 4.0307 21.9317 4.26546 21.5219 4.59841C21.1121 4.93135 20.8133 5.32405 20.6255 5.77651C20.4377 6.22898 20.3182 6.69424 20.267 7.17232C20.6084 7.09548 20.9798 7.01438 21.381 6.92901C21.7908 6.84364 22.1835 6.76681 22.5592 6.69851C22.9348 6.62168 23.2592 6.56192 23.5324 6.51924C23.8141 6.47655 24.0019 6.45521 24.0958 6.45521C24.2751 6.45521 24.3861 6.49362 24.4288 6.57046C24.48 6.64729 24.5056 6.74547 24.5056 6.86498C24.5056 7.09548 24.13 7.35159 23.3787 7.63332C22.636 7.91504 21.5817 8.15407 20.2157 8.35043C20.2157 8.64068 20.22 8.93948 20.2286 9.24681C20.2456 9.54561 20.2712 9.82306 20.3054 10.0792C20.3395 10.3353 20.3822 10.5402 20.4334 10.6938C20.4847 10.8475 20.553 10.9243 20.6383 10.9243C20.8347 10.9243 21.0908 10.8646 21.4067 10.7451C21.7311 10.6255 22.0683 10.4804 22.4183 10.3097C22.7683 10.1389 23.0885 9.97246 23.3787 9.81026C23.6775 9.64805 23.8952 9.52 24.0318 9.42609C24.194 9.32365 24.369 9.21266 24.5568 9.09315C24.7446 8.97363 24.8855 8.91387 24.9794 8.91387C25.0989 8.91387 25.1587 8.98216 25.1587 9.11876C25.1587 9.19559 25.0904 9.34499 24.9538 9.56695C24.8257 9.78891 24.6379 10.0408 24.3903 10.3225C24.1428 10.5957 23.8482 10.8646 23.5068 11.1292C23.1738 11.3853 22.7982 11.5988 22.3799 11.7695C21.9701 11.9402 21.5304 12.0256 21.0609 12.0256ZM29.8219 12.4226C29.6085 12.4226 29.4335 12.3628 29.2969 12.2433C29.1689 12.1323 29.1048 12.0085 29.1048 11.8719C29.1048 11.7183 29.1262 11.603 29.1689 11.5262C29.2201 11.4408 29.3268 11.3811 29.489 11.3469C29.8902 11.253 30.3043 11.142 30.7311 11.014C31.1665 10.8774 31.572 10.7365 31.9477 10.5914C32.3233 10.4377 32.6263 10.2883 32.8568 10.1432C33.0959 9.99807 33.2154 9.87001 33.2154 9.75903C33.2154 9.65659 33.1215 9.55841 32.9337 9.46451C32.7459 9.36206 32.5068 9.25108 32.2166 9.13156C31.9263 9.01204 31.6147 8.87972 31.2818 8.73459C30.9488 8.58946 30.6372 8.42299 30.347 8.23518C30.0567 8.04736 29.8177 7.83394 29.6299 7.5949C29.442 7.34733 29.3481 7.0656 29.3481 6.74973C29.3481 6.25459 29.4676 5.79359 29.7067 5.36674C29.9543 4.93135 30.2744 4.53011 30.6671 4.16302C31.0598 3.79593 31.4909 3.45872 31.9605 3.15138C32.4385 2.83551 32.9081 2.55806 33.3691 2.31902C33.8386 2.07145 34.2569 1.85376 34.624 1.66594C34.7435 1.59765 34.8588 1.55069 34.9698 1.52508C35.0807 1.49947 35.1789 1.48666 35.2643 1.48666C35.5119 1.48666 35.6911 1.54216 35.8021 1.65314C35.9131 1.76412 35.9686 1.89217 35.9686 2.0373C35.9686 2.15682 35.9046 2.29768 35.7765 2.45988C35.6484 2.61355 35.4649 2.75014 35.2259 2.86966C34.9868 2.98918 34.7008 3.04894 34.3679 3.04894H34.2655C33.9752 3.2026 33.6593 3.38615 33.3178 3.59958C32.9764 3.813 32.6391 4.04777 32.3062 4.30388C31.9733 4.55999 31.6659 4.82464 31.3842 5.09782C31.111 5.36247 30.8891 5.61858 30.7183 5.86615C30.5561 6.11373 30.475 6.33996 30.475 6.54485C30.475 6.79242 30.5689 7.01438 30.7567 7.21073C30.9446 7.40709 31.1836 7.58209 31.4738 7.73576C31.7726 7.88943 32.0842 8.03882 32.4087 8.18395C32.7416 8.32908 33.0532 8.47848 33.3435 8.63215C33.6422 8.77728 33.8856 8.93948 34.0734 9.11876C34.2612 9.2895 34.3551 9.49012 34.3551 9.72062C34.3551 9.98526 34.2612 10.2371 34.0734 10.4761C33.8941 10.7152 33.6551 10.9371 33.3563 11.142C33.0575 11.3384 32.7288 11.5177 32.3702 11.6799C32.0202 11.8335 31.6745 11.9659 31.333 12.0768C30.9915 12.1878 30.6842 12.2732 30.411 12.3329C30.1463 12.3927 29.95 12.4226 29.8219 12.4226ZM39.0411 8.83704C38.9642 8.83704 38.8959 8.79862 38.8362 8.72179C38.7849 8.63642 38.7593 8.52543 38.7593 8.38884C38.7593 8.20103 38.7935 7.9065 38.8618 7.50526C38.9386 7.09548 39.0368 6.62168 39.1563 6.08385C39.2844 5.53748 39.4295 4.96977 39.5917 4.38071C39.7624 3.79166 39.9417 3.21541 40.1295 2.65197C40.3173 2.07999 40.5052 1.57203 40.693 1.12811C40.821 0.829314 40.979 0.679916 41.1668 0.679916C41.3631 0.679916 41.5424 0.773823 41.7046 0.961638C41.8668 1.14945 41.9479 1.37995 41.9479 1.65314C41.9479 1.75558 41.8967 1.94766 41.7942 2.22939C41.7003 2.51111 41.5723 2.85259 41.4101 3.25383C41.2564 3.65507 41.0857 4.08619 40.8979 4.54718C40.71 5.00818 40.518 5.47772 40.3216 5.95579C40.1338 6.42533 39.9588 6.86925 39.7966 7.28757C39.6344 7.70588 39.5063 8.0687 39.4124 8.37604C39.3527 8.56385 39.2972 8.68764 39.2459 8.7474C39.1947 8.80716 39.1264 8.83704 39.0411 8.83704ZM38.2855 12.6531C38.1575 12.6531 38.0251 12.5805 37.8886 12.4354C37.752 12.2903 37.6837 11.9957 37.6837 11.5518C37.6837 11.3042 37.7648 11.1207 37.927 11.0012C38.0892 10.8731 38.2983 10.8091 38.5544 10.8091C38.9898 10.8091 39.2075 11.0353 39.2075 11.4878C39.2075 11.7012 39.1563 11.8933 39.0539 12.064C38.9514 12.2433 38.8276 12.3842 38.6825 12.4866C38.5459 12.5976 38.4136 12.6531 38.2855 12.6531ZM47.2524 7.90223C47.0219 7.88516 46.9152 7.73576 46.9322 7.45404C46.9408 7.38574 46.9877 7.30464 47.0731 7.21073C47.1585 7.10829 47.2567 7.0528 47.3676 7.04426C47.6323 7.01865 47.9567 6.98023 48.3409 6.92901C48.7336 6.86925 49.1647 6.80096 49.6342 6.72412C49.7196 6.30581 49.822 5.86615 49.9415 5.40515C50.0611 4.94416 50.1934 4.49596 50.3385 4.06058C50.4836 3.61665 50.6373 3.21541 50.7995 2.85686C50.9617 2.4983 51.1325 2.21658 51.3117 2.01169C51.4056 1.91778 51.491 1.85376 51.5678 1.81961C51.6447 1.77692 51.713 1.75558 51.7727 1.75558C51.8923 1.75558 51.9862 1.8068 52.0545 1.90925C52.1313 2.01169 52.1697 2.12694 52.1697 2.255C52.1697 2.32329 52.1569 2.39159 52.1313 2.45988C51.9606 2.93796 51.777 3.52701 51.5807 4.22705C51.3843 4.92708 51.1751 5.69114 50.9532 6.51924C51.7386 6.39118 52.524 6.25459 53.3094 6.10946C54.0948 5.96433 54.7692 5.83201 55.3327 5.71249C55.4949 5.64419 55.6187 5.657 55.704 5.7509C55.7979 5.84481 55.8449 5.93872 55.8449 6.03263C55.8449 6.15214 55.8107 6.24178 55.7425 6.30154C55.6827 6.3613 55.6187 6.41252 55.5504 6.45521L55.5376 6.46801C55.3668 6.53631 55.1107 6.61741 54.7692 6.71132C54.4277 6.79669 54.035 6.8906 53.5911 6.99304C53.1472 7.08695 52.6734 7.18085 52.1697 7.27476C51.6746 7.36867 51.1837 7.45404 50.6971 7.53087C50.5007 8.28213 50.3001 9.05473 50.0952 9.84867C49.8989 10.6341 49.7025 11.4067 49.5062 12.1665C49.4208 12.4738 49.3226 12.6659 49.2116 12.7427C49.1092 12.8281 48.9982 12.8708 48.8787 12.8708C48.7421 12.8708 48.6226 12.8196 48.5201 12.7171C48.4262 12.6147 48.4134 12.4055 48.4817 12.0896L49.4165 7.72295C48.9043 7.79979 48.4518 7.85528 48.0591 7.88943C47.675 7.92357 47.4061 7.92784 47.2524 7.90223ZM54.4415 12.5762C54.2537 12.5762 54.1086 12.5208 54.0061 12.4098C53.9037 12.3073 53.8525 12.047 53.8525 11.6286C53.8525 11.2445 53.9208 10.7451 54.0574 10.1304C54.194 9.50719 54.3775 8.81569 54.608 8.0559C54.8385 7.2961 55.0989 6.5107 55.3891 5.69968C55.6794 4.88013 55.9825 4.07765 56.2983 3.29224C56.6227 2.4983 56.9343 1.77265 57.2331 1.1153C57.3441 0.876268 57.4594 0.709796 57.5789 0.615889C57.6984 0.521982 57.8393 0.475028 58.0015 0.475028C58.1125 0.475028 58.2064 0.509176 58.2832 0.577472C58.3686 0.637231 58.4112 0.739675 58.4112 0.884805C58.4112 0.936027 58.3558 1.1025 58.2448 1.38422C58.1423 1.66594 57.9972 2.0373 57.8094 2.4983C57.6301 2.9593 57.4295 3.47579 57.2075 4.04777C56.9856 4.61975 56.7593 5.22161 56.5288 5.85335C56.2983 6.48509 56.0806 7.1211 55.8758 7.76137C55.6709 8.39311 55.4959 8.99924 55.3507 9.57976C55.2056 10.1603 55.1074 10.681 55.0562 11.142C55.2611 10.8945 55.4959 10.5786 55.7605 10.1944C56.0252 9.81026 56.3069 9.39621 56.6057 8.95229C56.9045 8.50836 57.2075 8.0687 57.5149 7.63332C57.8222 7.19793 58.1253 6.80096 58.4241 6.4424C58.7228 6.08385 59.0003 5.79786 59.2564 5.58443C59.5211 5.36247 59.7516 5.25149 59.9479 5.25149C60.2723 5.25149 60.5327 5.35393 60.729 5.55882C60.9339 5.75517 61.0364 6.07958 61.0364 6.53204C61.0364 6.78815 60.9852 7.09548 60.8827 7.45404C60.7888 7.81259 60.6778 8.18822 60.5498 8.58092C60.4217 8.97363 60.3065 9.34926 60.204 9.70781C60.1101 10.0664 60.0632 10.3737 60.0632 10.6298C60.0632 10.9798 60.1955 11.1548 60.4601 11.1548C60.8699 11.1548 61.2797 11.0652 61.6895 10.8859C62.1078 10.7066 62.5047 10.4847 62.8804 10.22C63.256 9.94685 63.6018 9.67366 63.9176 9.40048C64.2335 9.11876 64.5024 8.87972 64.7244 8.68337C64.9634 8.46994 65.164 8.36323 65.3262 8.36323C65.5311 8.36323 65.6336 8.46994 65.6336 8.68337C65.6336 8.74313 65.6208 8.81142 65.5951 8.88826C65.5695 8.96509 65.5012 9.06327 65.3903 9.18278C65.2537 9.33645 65.0573 9.53707 64.8012 9.78464C64.5536 10.0322 64.2634 10.2969 63.9304 10.5786C63.606 10.8603 63.2517 11.125 62.8676 11.3725C62.4919 11.6201 62.1035 11.825 61.7023 11.9872C61.3096 12.1409 60.9254 12.2177 60.5498 12.2177C60.0375 12.2177 59.6406 12.0726 59.3589 11.7823C59.0857 11.4835 58.9491 11.0737 58.9491 10.553C58.9491 10.2286 59.0003 9.83587 59.1027 9.37487C59.2052 8.91387 59.3332 8.42726 59.4869 7.91504C59.6491 7.39428 59.8113 6.88633 59.9735 6.39118C59.7003 6.57899 59.4015 6.86072 59.0771 7.23635C58.7613 7.60344 58.4283 8.02175 58.0783 8.49129C57.7283 8.95229 57.3783 9.42182 57.0283 9.89989C56.6868 10.378 56.3538 10.8219 56.0294 11.2317C55.7135 11.6329 55.419 11.9573 55.1458 12.2049C54.8727 12.4525 54.6379 12.5762 54.4415 12.5762ZM72.6593 6.37837C72.813 6.83084 72.9624 7.30891 73.1075 7.81259C73.2612 8.31628 73.385 8.81142 73.4789 9.29803C73.5813 9.77611 73.6326 10.203 73.6326 10.5786C73.6326 11.0054 73.5258 11.3555 73.3124 11.6286C73.1075 11.8933 72.8429 12.0982 72.5185 12.2433C72.1941 12.397 71.8526 12.4994 71.494 12.5506C71.144 12.6104 70.8196 12.6403 70.5208 12.6403C70.2818 12.6403 70.1153 12.5891 70.0214 12.4866C69.936 12.3927 69.8933 12.2903 69.8933 12.1793C69.8933 12.1024 69.9232 12.0256 69.983 11.9488C70.0427 11.8634 70.1964 11.8036 70.444 11.7695C70.6318 11.7439 70.8452 11.7012 71.0843 11.6414C71.3318 11.5817 71.5709 11.5006 71.8014 11.3981C72.0404 11.2957 72.2368 11.1719 72.3904 11.0268C72.5441 10.8731 72.6209 10.6896 72.6209 10.4761C72.6209 10.0066 72.5526 9.52427 72.416 9.02912C72.288 8.53397 72.1557 8.02602 72.0191 7.50526C71.7203 7.96626 71.3788 8.42299 70.9946 8.87545C70.6105 9.32791 70.2007 9.75903 69.7653 10.1688C69.3299 10.5786 68.8902 10.9414 68.4463 11.2573C68.0024 11.5731 67.5713 11.8207 67.153 12C66.7347 12.1793 66.3462 12.2689 65.9877 12.2689C65.3986 12.2689 64.9205 12.064 64.5534 11.6543C64.1864 11.2359 64.0028 10.6085 64.0028 9.77184C64.0028 9.3023 64.0498 8.81996 64.1437 8.32481C64.2461 7.82967 64.3742 7.37294 64.5278 6.95462C64.69 6.52777 64.8565 6.18629 65.0272 5.93018C65.198 5.66553 65.3559 5.53321 65.5011 5.53321C65.612 5.53321 65.7059 5.56736 65.7828 5.63565C65.8681 5.70395 65.9108 5.82347 65.9108 5.99421C65.9108 6.08812 65.8724 6.27593 65.7956 6.55765C65.7187 6.83084 65.6334 7.15524 65.5395 7.53087C65.4456 7.89796 65.3602 8.2864 65.2834 8.69617C65.2065 9.09741 65.1681 9.47304 65.1681 9.82306C65.1681 10.2841 65.2449 10.6213 65.3986 10.8347C65.5608 11.0481 65.7785 11.1548 66.0517 11.1548C66.3846 11.1548 66.7645 11.0481 67.1914 10.8347C67.6182 10.6213 68.0579 10.3396 68.5103 9.98953C68.9628 9.63098 69.3982 9.23828 69.8165 8.81142C70.2434 8.37604 70.6233 7.93211 70.9562 7.47965C71.2891 7.02719 71.5495 6.59607 71.7373 6.18629C71.7117 6.02409 71.6904 5.85762 71.6733 5.68688C71.6648 5.51614 71.6605 5.3454 71.6605 5.17466C71.6605 4.8844 71.7075 4.64109 71.8014 4.44474C71.8953 4.23985 72.002 4.08192 72.1215 3.97094C72.2496 3.85995 72.3563 3.80446 72.4416 3.80446C72.6295 3.80446 72.7789 3.89837 72.8898 4.08619C73.0008 4.274 73.0563 4.54718 73.0563 4.90574C73.0563 5.11916 73.0222 5.34966 72.9539 5.59724C72.8856 5.84481 72.7874 6.10519 72.6593 6.37837ZM65.9236 3.95813C65.6846 3.95813 65.4968 3.8941 65.3602 3.76605C65.2321 3.62946 65.1681 3.45018 65.1681 3.22822C65.1681 2.97211 65.2535 2.76722 65.4242 2.61355C65.6035 2.45135 65.8041 2.37025 66.0261 2.37025C66.2737 2.37025 66.47 2.44281 66.6151 2.58794C66.7688 2.72453 66.8456 2.92088 66.8456 3.17699C66.8456 3.36481 66.7517 3.54409 66.5639 3.71483C66.3846 3.87703 66.1712 3.95813 65.9236 3.95813ZM89.5959 6.37837C89.7496 6.83084 89.899 7.30891 90.0441 7.81259C90.1978 8.31628 90.3216 8.81142 90.4155 9.29803C90.5179 9.77611 90.5692 10.203 90.5692 10.5786C90.5692 11.0054 90.4624 11.3555 90.249 11.6286C90.0441 11.8933 89.7795 12.0982 89.4551 12.2433C89.1307 12.397 88.7892 12.4994 88.4306 12.5506C88.0806 12.6104 87.7562 12.6403 87.4574 12.6403C87.2184 12.6403 87.0519 12.5891 86.958 12.4866C86.8726 12.3927 86.8299 12.2903 86.8299 12.1793C86.8299 12.1024 86.8598 12.0256 86.9196 11.9488C86.9793 11.8634 87.133 11.8036 87.3806 11.7695C87.5684 11.7439 87.7818 11.7012 88.0209 11.6414C88.2684 11.5817 88.5075 11.5006 88.738 11.3981C88.977 11.2957 89.1733 11.1719 89.327 11.0268C89.4807 10.8731 89.5575 10.6896 89.5575 10.4761C89.5575 10.0066 89.4892 9.52427 89.3526 9.02912C89.2246 8.53397 89.0922 8.02602 88.9557 7.50526C88.6569 7.96626 88.3154 8.42299 87.9312 8.87545C87.547 9.32791 87.1373 9.75903 86.7019 10.1688C86.2665 10.5786 85.8268 10.9414 85.3829 11.2573C84.939 11.5731 84.5079 11.8207 84.0896 12C83.6712 12.1793 83.2828 12.2689 82.9243 12.2689C82.3352 12.2689 81.8571 12.064 81.49 11.6543C81.1229 11.2359 80.9394 10.6085 80.9394 9.77184C80.9394 9.3023 80.9864 8.81996 81.0803 8.32481C81.1827 7.82967 81.3108 7.37294 81.4644 6.95462C81.6266 6.52777 81.7931 6.18629 81.9638 5.93018C82.1346 5.66553 82.2925 5.53321 82.4376 5.53321C82.5486 5.53321 82.6425 5.56736 82.7194 5.63565C82.8047 5.70395 82.8474 5.82347 82.8474 5.99421C82.8474 6.08812 82.809 6.27593 82.7322 6.55765C82.6553 6.83084 82.57 7.15524 82.4761 7.53087C82.3822 7.89796 82.2968 8.2864 82.2199 8.69617C82.1431 9.09741 82.1047 9.47304 82.1047 9.82306C82.1047 10.2841 82.1815 10.6213 82.3352 10.8347C82.4974 11.0481 82.7151 11.1548 82.9883 11.1548C83.3212 11.1548 83.7011 11.0481 84.128 10.8347C84.5548 10.6213 84.9945 10.3396 85.4469 9.98953C85.8994 9.63098 86.3348 9.23828 86.7531 8.81142C87.18 8.37604 87.5599 7.93211 87.8928 7.47965C88.2257 7.02719 88.4861 6.59607 88.6739 6.18629C88.6483 6.02409 88.627 5.85762 88.6099 5.68688C88.6014 5.51614 88.5971 5.3454 88.5971 5.17466C88.5971 4.8844 88.6441 4.64109 88.738 4.44474C88.8319 4.23985 88.9386 4.08192 89.0581 3.97094C89.1862 3.85995 89.2929 3.80446 89.3782 3.80446C89.5661 3.80446 89.7154 3.89837 89.8264 4.08619C89.9374 4.274 89.9929 4.54718 89.9929 4.90574C89.9929 5.11916 89.9588 5.34966 89.8905 5.59724C89.8222 5.84481 89.724 6.10519 89.5959 6.37837ZM82.8602 3.95813C82.6212 3.95813 82.4334 3.8941 82.2968 3.76605C82.1687 3.62946 82.1047 3.45018 82.1047 3.22822C82.1047 2.97211 82.1901 2.76722 82.3608 2.61355C82.5401 2.45135 82.7407 2.37025 82.9627 2.37025C83.2102 2.37025 83.4066 2.44281 83.5517 2.58794C83.7054 2.72453 83.7822 2.92088 83.7822 3.17699C83.7822 3.36481 83.6883 3.54409 83.5005 3.71483C83.3212 3.87703 83.1078 3.95813 82.8602 3.95813ZM98.7596 12.3329C98.4352 12.3329 98.1663 12.1835 97.9528 11.8848C97.7479 11.5774 97.6455 11.1804 97.6455 10.6938C97.6455 10.2414 97.7565 9.79318 97.9784 9.34926C98.2089 8.90533 98.512 8.47848 98.8876 8.0687C99.2633 7.65893 99.673 7.2833 100.117 6.94182C100.561 6.5918 101.005 6.28874 101.449 6.03263C101.901 5.77652 102.315 5.5759 102.691 5.43077C103.067 5.28564 103.365 5.21307 103.587 5.21307C103.707 5.21307 103.805 5.23868 103.882 5.2899C103.959 5.33259 103.997 5.41369 103.997 5.53321C103.997 5.61004 103.967 5.68261 103.907 5.7509C103.916 5.7509 103.924 5.7509 103.933 5.7509C104.121 5.7509 104.215 5.86189 104.215 6.08385C104.215 6.16068 104.185 6.31862 104.125 6.55765C104.065 6.78815 103.997 7.07841 103.92 7.42843C103.843 7.77845 103.775 8.16688 103.715 8.59373C103.656 9.01204 103.626 9.4389 103.626 9.87428C103.626 10.2414 103.767 10.4249 104.048 10.4249C104.364 10.4249 104.684 10.3524 105.009 10.2072C105.333 10.0621 105.649 9.88709 105.956 9.6822C106.264 9.46877 106.545 9.25962 106.801 9.05473C107.058 8.8413 107.275 8.66203 107.455 8.5169C107.634 8.37177 107.762 8.2992 107.839 8.2992C107.907 8.2992 107.967 8.32055 108.018 8.36323C108.069 8.40592 108.095 8.47421 108.095 8.56812C108.095 8.65349 108.009 8.80716 107.839 9.02912C107.668 9.25108 107.442 9.50292 107.16 9.78464C106.878 10.0664 106.562 10.3396 106.212 10.6042C105.862 10.8688 105.504 11.0865 105.137 11.2573C104.77 11.428 104.42 11.5134 104.087 11.5134C103.831 11.5134 103.596 11.4366 103.382 11.2829C103.177 11.1207 103.011 10.8475 102.883 10.4633C102.763 10.0792 102.704 9.54988 102.704 8.87545V8.55531C102.285 9.24681 101.846 9.87855 101.385 10.4505C100.932 11.0225 100.48 11.4792 100.027 11.8207C99.5834 12.1622 99.1608 12.3329 98.7596 12.3329ZM103.344 6.13507C103.301 6.15214 103.242 6.17775 103.165 6.2119C102.772 6.39118 102.362 6.61314 101.935 6.87779C101.517 7.14244 101.107 7.43696 100.706 7.76137C100.313 8.08578 99.959 8.42299 99.6432 8.77301C99.3273 9.12303 99.0754 9.47731 98.8876 9.83587C98.6998 10.1944 98.6059 10.5444 98.6059 10.8859C98.6059 10.9969 98.6273 11.0823 98.6699 11.142C98.7212 11.2018 98.8065 11.2317 98.926 11.2317C99.0968 11.2317 99.3188 11.125 99.5919 10.9115C99.8651 10.6896 100.164 10.3993 100.488 10.0408C100.821 9.6822 101.154 9.28523 101.487 8.84984C101.82 8.41445 102.136 7.9748 102.435 7.53087C102.742 7.08695 103.007 6.67717 103.229 6.30154C103.263 6.24178 103.301 6.18629 103.344 6.13507ZM113.644 12.4226C113.431 12.4226 113.256 12.3628 113.119 12.2433C112.991 12.1323 112.927 12.0085 112.927 11.8719C112.927 11.7183 112.948 11.603 112.991 11.5262C113.042 11.4408 113.149 11.3811 113.311 11.3469C113.712 11.253 114.127 11.142 114.553 11.014C114.989 10.8774 115.394 10.7365 115.77 10.5914C116.146 10.4377 116.449 10.2883 116.679 10.1432C116.918 9.99807 117.038 9.87001 117.038 9.75903C117.038 9.65659 116.944 9.55841 116.756 9.46451C116.568 9.36206 116.329 9.25108 116.039 9.13156C115.749 9.01204 115.437 8.87972 115.104 8.73459C114.771 8.58946 114.459 8.42299 114.169 8.23518C113.879 8.04736 113.64 7.83394 113.452 7.5949C113.264 7.34733 113.17 7.0656 113.17 6.74973C113.17 6.25459 113.29 5.79359 113.529 5.36674C113.777 4.93135 114.097 4.53011 114.489 4.16302C114.882 3.79593 115.313 3.45872 115.783 3.15138C116.261 2.83551 116.73 2.55806 117.191 2.31902C117.661 2.07145 118.079 1.85376 118.446 1.66594C118.566 1.59765 118.681 1.55069 118.792 1.52508C118.903 1.49947 119.001 1.48666 119.087 1.48666C119.334 1.48666 119.513 1.54216 119.624 1.65314C119.735 1.76412 119.791 1.89217 119.791 2.0373C119.791 2.15682 119.727 2.29768 119.599 2.45988C119.471 2.61355 119.287 2.75014 119.048 2.86966C118.809 2.98918 118.523 3.04894 118.19 3.04894H118.088C117.797 3.2026 117.482 3.38615 117.14 3.59958C116.799 3.813 116.461 4.04777 116.128 4.30388C115.796 4.55999 115.488 4.82464 115.206 5.09782C114.933 5.36247 114.711 5.61858 114.541 5.86615C114.378 6.11373 114.297 6.33996 114.297 6.54485C114.297 6.79242 114.391 7.01438 114.579 7.21073C114.767 7.40709 115.006 7.58209 115.296 7.73576C115.595 7.88943 115.906 8.03882 116.231 8.18395C116.564 8.32908 116.875 8.47848 117.166 8.63215C117.465 8.77728 117.708 8.93948 117.896 9.11876C118.083 9.2895 118.177 9.49012 118.177 9.72062C118.177 9.98526 118.083 10.2371 117.896 10.4761C117.716 10.7152 117.477 10.9371 117.179 11.142C116.88 11.3384 116.551 11.5177 116.192 11.6799C115.842 11.8335 115.497 11.9659 115.155 12.0768C114.814 12.1878 114.506 12.2732 114.233 12.3329C113.969 12.3927 113.772 12.4226 113.644 12.4226ZM120.925 12.5762C120.737 12.5762 120.592 12.5208 120.489 12.4098C120.387 12.3073 120.336 12.047 120.336 11.6286C120.336 11.2445 120.404 10.7451 120.541 10.1304C120.677 9.50719 120.861 8.81569 121.091 8.0559C121.322 7.2961 121.582 6.5107 121.872 5.69968C122.163 4.88013 122.466 4.07765 122.782 3.29224C123.106 2.4983 123.418 1.77265 123.716 1.1153C123.827 0.876268 123.943 0.709796 124.062 0.615889C124.182 0.521982 124.323 0.475028 124.485 0.475028C124.596 0.475028 124.69 0.509176 124.767 0.577472C124.852 0.637231 124.895 0.739675 124.895 0.884805C124.895 0.936027 124.839 1.1025 124.728 1.38422C124.626 1.66594 124.481 2.0373 124.293 2.4983C124.113 2.9593 123.913 3.47579 123.691 4.04777C123.469 4.61975 123.243 5.22161 123.012 5.85335C122.782 6.48509 122.564 7.1211 122.359 7.76137C122.154 8.39311 121.979 8.99924 121.834 9.57976C121.689 10.1603 121.591 10.681 121.54 11.142C121.744 10.8945 121.979 10.5786 122.244 10.1944C122.508 9.81026 122.79 9.39621 123.089 8.95229C123.388 8.50836 123.691 8.0687 123.998 7.63332C124.306 7.19793 124.609 6.80096 124.907 6.4424C125.206 6.08385 125.484 5.79786 125.74 5.58443C126.004 5.36247 126.235 5.25149 126.431 5.25149C126.756 5.25149 127.016 5.35393 127.212 5.55882C127.417 5.75517 127.52 6.07958 127.52 6.53204C127.52 6.78815 127.468 7.09548 127.366 7.45404C127.272 7.81259 127.161 8.18822 127.033 8.58092C126.905 8.97363 126.79 9.34926 126.687 9.70781C126.593 10.0664 126.546 10.3737 126.546 10.6298C126.546 10.9798 126.679 11.1548 126.943 11.1548C127.353 11.1548 127.763 11.0652 128.173 10.8859C128.591 10.7066 128.988 10.4847 129.364 10.22C129.739 9.94685 130.085 9.67366 130.401 9.40048C130.717 9.11876 130.986 8.87972 131.208 8.68337C131.447 8.46994 131.647 8.36323 131.81 8.36323C132.014 8.36323 132.117 8.46994 132.117 8.68337C132.117 8.74313 132.104 8.81142 132.078 8.88826C132.053 8.96509 131.985 9.06327 131.874 9.18278C131.737 9.33645 131.541 9.53707 131.285 9.78464C131.037 10.0322 130.747 10.2969 130.414 10.5786C130.089 10.8603 129.735 11.125 129.351 11.3725C128.975 11.6201 128.587 11.825 128.186 11.9872C127.793 12.1409 127.409 12.2177 127.033 12.2177C126.521 12.2177 126.124 12.0726 125.842 11.7823C125.569 11.4835 125.432 11.0737 125.432 10.553C125.432 10.2286 125.484 9.83587 125.586 9.37487C125.689 8.91387 125.817 8.42726 125.97 7.91504C126.132 7.39428 126.295 6.88633 126.457 6.39118C126.184 6.57899 125.885 6.86072 125.56 7.23635C125.245 7.60344 124.912 8.02175 124.562 8.49129C124.212 8.95229 123.862 9.42182 123.512 9.89989C123.17 10.378 122.837 10.8219 122.513 11.2317C122.197 11.6329 121.902 11.9573 121.629 12.2049C121.356 12.4525 121.121 12.5762 120.925 12.5762ZM132.789 12.1281C132.285 12.1281 131.888 11.936 131.598 11.5518C131.307 11.1676 131.162 10.6682 131.162 10.0536C131.162 9.8316 131.192 9.59683 131.252 9.34926C131.32 9.09315 131.406 8.86265 131.508 8.65776C131.448 8.598 131.401 8.5169 131.367 8.41445C131.333 8.30347 131.316 8.16688 131.316 8.00468C131.316 7.50099 131.401 7.03999 131.572 6.62168C131.743 6.20337 131.969 5.84054 132.251 5.53321C132.533 5.21734 132.844 4.97404 133.186 4.8033C133.536 4.63255 133.89 4.54718 134.248 4.54718C134.838 4.54718 135.316 4.76061 135.683 5.18746C136.05 5.60577 136.233 6.24605 136.233 7.10829C136.233 7.56075 136.165 8.02175 136.028 8.49129C135.9 8.96082 135.721 9.41328 135.491 9.84867C135.269 10.2841 135.008 10.6725 134.709 11.014C134.419 11.3555 134.108 11.6286 133.775 11.8335C133.45 12.0299 133.122 12.1281 132.789 12.1281ZM132.353 8.22237C132.404 8.29067 132.43 8.38031 132.43 8.49129C132.43 8.61934 132.404 8.7474 132.353 8.87545C132.311 9.00351 132.264 9.17852 132.212 9.40048C132.161 9.62244 132.136 9.93831 132.136 10.3481C132.136 10.7579 132.298 10.9628 132.622 10.9628C132.981 10.9628 133.314 10.8219 133.621 10.5402C133.928 10.2499 134.202 9.87855 134.441 9.42609C134.68 8.97363 134.863 8.49129 134.991 7.97907C135.128 7.45831 135.196 6.96743 135.196 6.50643C135.196 6.20763 135.141 5.99848 135.03 5.87896C134.919 5.7509 134.718 5.68688 134.428 5.68688C134.129 5.68688 133.817 5.78932 133.493 5.99421C133.177 6.19056 132.912 6.45948 132.699 6.80096C132.486 7.14244 132.379 7.5266 132.379 7.95345C132.379 8.04736 132.37 8.137 132.353 8.22237ZM137.495 15.8032C137.35 15.8032 137.235 15.752 137.149 15.6496C137.073 15.5471 137.034 15.3508 137.034 15.0605C137.034 14.6422 137.064 14.1556 137.124 13.6007C137.184 13.0458 137.265 12.4567 137.367 11.8335C137.478 11.2103 137.598 10.5871 137.726 9.96392C137.862 9.34072 138.003 8.7474 138.148 8.18395C138.302 7.62051 138.451 7.1211 138.596 6.68571C138.742 6.24178 138.874 5.89177 138.993 5.63565C139.122 5.37954 139.233 5.25149 139.326 5.25149C139.489 5.25149 139.617 5.29844 139.711 5.39235C139.813 5.48626 139.864 5.62712 139.864 5.81493C139.864 6.05397 139.792 6.4424 139.647 6.98023C139.501 7.50953 139.314 8.20103 139.083 9.05473C139.297 8.66203 139.527 8.25225 139.775 7.8254C140.022 7.39855 140.283 6.9845 140.556 6.58326C140.829 6.17349 141.102 5.80639 141.375 5.48199C141.657 5.15758 141.93 4.8972 142.195 4.70085C142.459 4.5045 142.716 4.40632 142.963 4.40632C143.228 4.40632 143.463 4.49169 143.667 4.66243C143.872 4.82464 144.03 5.0466 144.141 5.32832C144.261 5.60151 144.321 5.90884 144.321 6.25032C144.321 6.95889 144.201 7.64612 143.962 8.31201C143.723 8.96936 143.39 9.56268 142.963 10.092C142.545 10.6127 142.05 11.0268 141.478 11.3341C140.914 11.6414 140.304 11.7951 139.647 11.7951C139.399 11.7951 139.177 11.7823 138.981 11.7567C138.784 11.7311 138.614 11.7012 138.468 11.6671C138.366 12.2305 138.268 12.811 138.174 13.4086C138.08 14.0062 137.986 14.6422 137.892 15.3166C137.867 15.4959 137.824 15.6197 137.764 15.688C137.704 15.7648 137.615 15.8032 137.495 15.8032ZM143.194 5.37954C143.014 5.37954 142.801 5.48199 142.553 5.68688C142.314 5.89176 142.054 6.16495 141.772 6.50643C141.499 6.83937 141.222 7.21073 140.94 7.62051C140.658 8.02175 140.385 8.43153 140.12 8.84984C139.856 9.26815 139.612 9.65659 139.39 10.0151C139.177 10.3737 139.002 10.6725 138.865 10.9115C139.531 10.8945 140.116 10.7621 140.62 10.5146C141.123 10.2584 141.555 9.93404 141.913 9.54134C142.272 9.1401 142.562 8.70898 142.784 8.24798C143.014 7.77845 143.181 7.32598 143.283 6.8906C143.386 6.44667 143.437 6.06251 143.437 5.7381C143.437 5.49906 143.356 5.37954 143.194 5.37954ZM145.718 12.064C145.556 12.064 145.411 12.0043 145.283 11.8848C145.154 11.7567 145.09 11.5603 145.09 11.2957C145.09 11.1079 145.116 10.8475 145.167 10.5146C145.218 10.1731 145.287 9.80172 145.372 9.40048C145.458 8.99924 145.547 8.60227 145.641 8.20956C145.744 7.80832 145.846 7.44977 145.948 7.1339C146.051 6.81803 146.14 6.58326 146.217 6.4296C146.286 6.31008 146.35 6.23325 146.409 6.1991C146.478 6.16495 146.542 6.14788 146.601 6.14788C146.721 6.14788 146.823 6.18629 146.909 6.26313C147.003 6.33996 147.05 6.48936 147.05 6.71132C147.05 6.83937 147.024 7.0528 146.973 7.35159C146.93 7.64185 146.87 7.98333 146.794 8.37604C146.725 8.7602 146.648 9.15717 146.563 9.56695C146.486 9.96819 146.409 10.3524 146.333 10.7194C146.256 11.0865 146.196 11.3939 146.153 11.6414C146.119 11.778 146.059 11.8848 145.974 11.9616C145.897 12.0299 145.812 12.064 145.718 12.064ZM146.973 4.98257C146.777 4.98257 146.589 4.92281 146.409 4.8033C146.239 4.68378 146.153 4.49169 146.153 4.22705C146.153 4.00508 146.205 3.82581 146.307 3.68921C146.418 3.55262 146.546 3.45445 146.691 3.39469C146.845 3.32639 146.977 3.29224 147.088 3.29224C147.199 3.29224 147.323 3.31785 147.459 3.36908C147.605 3.41176 147.728 3.49713 147.831 3.62519C147.933 3.74471 147.984 3.92398 147.984 4.16302C147.984 4.32522 147.929 4.47035 147.818 4.59841C147.707 4.71793 147.57 4.81183 147.408 4.88013C147.255 4.94842 147.109 4.98257 146.973 4.98257ZM149.53 13.1397C149.385 13.1397 149.27 13.0885 149.185 12.986C149.099 12.8836 149.057 12.7128 149.057 12.4738C149.057 12.047 149.078 11.6073 149.121 11.1548C149.172 10.6938 149.197 10.267 149.197 9.87428C149.197 8.9779 149.116 8.23944 148.954 7.65893C148.8 7.06987 148.463 6.6729 147.943 6.46801C147.823 6.42533 147.738 6.37837 147.686 6.32715C147.627 6.27593 147.597 6.19483 147.597 6.08385C147.597 5.96433 147.644 5.86615 147.738 5.78932C147.823 5.71249 147.985 5.67407 148.224 5.67407C148.421 5.67407 148.681 5.68261 149.005 5.69968C149.33 5.71676 149.68 5.73383 150.055 5.7509C150.32 4.8033 150.619 4.01789 150.952 3.39469C151.285 2.77149 151.648 2.28061 152.04 1.92205C152.442 1.5635 152.864 1.30739 153.308 1.15372C153.76 1.00005 154.23 0.923221 154.717 0.923221C154.93 0.923221 155.067 0.953101 155.126 1.01286C155.186 1.06408 155.216 1.14518 155.216 1.25616C155.216 1.39276 155.173 1.53789 155.088 1.69155C155.003 1.83668 154.828 1.93059 154.563 1.97327C153.982 2.07572 153.466 2.26353 153.014 2.53672C152.561 2.8099 152.168 3.20687 151.835 3.72763C151.502 4.23985 151.225 4.91428 151.003 5.7509C151.823 5.73383 152.527 5.69115 153.116 5.62285C153.705 5.54602 154.196 5.46491 154.589 5.37954C154.99 5.28564 155.31 5.2088 155.549 5.14904C155.788 5.08075 155.972 5.0466 156.1 5.0466C156.245 5.0466 156.334 5.08502 156.369 5.16185C156.403 5.23868 156.42 5.31978 156.42 5.40515C156.42 5.56736 156.266 5.72529 155.959 5.87896C155.651 6.02409 155.246 6.15641 154.742 6.27593C154.247 6.38691 153.701 6.47655 153.103 6.54485C152.506 6.61314 151.916 6.64729 151.336 6.64729C151.242 6.64729 151.148 6.64729 151.054 6.64729C150.969 6.64729 150.879 6.64729 150.785 6.64729C150.768 6.70705 150.755 6.77108 150.747 6.83937C150.662 7.33452 150.576 7.85955 150.491 8.41445C150.414 8.96082 150.341 9.49865 150.273 10.0279C150.213 10.5487 150.166 11.0225 150.132 11.4494C150.098 11.8762 150.081 12.2177 150.081 12.4738C150.081 12.6872 150.03 12.8494 149.927 12.9604C149.825 13.0799 149.693 13.1397 149.53 13.1397ZM149.838 6.59607C149.59 6.57046 149.36 6.53631 149.146 6.49362C149.257 6.62168 149.351 6.77108 149.428 6.94182C149.513 7.11256 149.586 7.2961 149.646 7.49246C149.705 7.17659 149.769 6.87779 149.838 6.59607ZM155.537 15.291C155.111 15.291 154.718 15.2611 154.359 15.2014C154.009 15.1502 153.664 15.0648 153.322 14.9453C152.981 14.8343 152.609 14.6892 152.208 14.5099C152.088 14.4501 151.982 14.3776 151.888 14.2922C151.794 14.2154 151.747 14.1257 151.747 14.0233C151.747 13.8952 151.828 13.7586 151.99 13.6135C152.144 13.4769 152.289 13.4086 152.426 13.4086C152.571 13.4086 152.75 13.4598 152.964 13.5623C153.185 13.6647 153.442 13.7842 153.732 13.9208C154.022 14.066 154.342 14.1897 154.692 14.2922C155.051 14.3946 155.435 14.4459 155.845 14.4459C156.289 14.4459 156.707 14.2623 157.1 13.8952C157.492 13.5281 157.813 12.9988 158.06 12.3073C158.308 11.6244 158.431 10.8005 158.431 9.83587C158.431 9.54561 158.423 9.22547 158.406 8.87545C158.397 8.5169 158.38 8.14127 158.355 7.74857C158.15 8.19249 157.919 8.63215 157.663 9.06753C157.416 9.50292 157.155 9.89563 156.882 10.2456C156.617 10.5957 156.34 10.8774 156.05 11.0908C155.768 11.2957 155.482 11.3981 155.192 11.3981C154.825 11.3981 154.56 11.3042 154.398 11.1164C154.236 10.9286 154.154 10.6383 154.154 10.2456C154.154 9.83587 154.184 9.39194 154.244 8.91387C154.304 8.4358 154.381 7.95345 154.475 7.46684C154.577 6.9717 154.697 6.50216 154.833 6.05824C154.97 5.61431 155.115 5.23015 155.269 4.90574C155.354 4.735 155.482 4.64963 155.653 4.64963C155.772 4.64963 155.887 4.71366 155.998 4.84171C156.118 4.96123 156.178 5.11916 156.178 5.31552C156.178 5.46918 156.144 5.68688 156.075 5.9686C156.007 6.25032 155.922 6.57046 155.819 6.92901C155.717 7.28757 155.614 7.6632 155.512 8.0559C155.409 8.44006 155.324 8.81996 155.256 9.19559C155.187 9.56268 155.153 9.89989 155.153 10.2072C155.153 10.3353 155.239 10.3993 155.409 10.3993C155.503 10.3993 155.636 10.3139 155.806 10.1432C155.986 9.96392 156.182 9.73342 156.395 9.4517C156.617 9.16144 156.839 8.84557 157.061 8.50409C157.292 8.15407 157.514 7.80833 157.727 7.46684C157.941 7.11683 158.124 6.79669 158.278 6.50643C158.269 6.43813 158.265 6.37411 158.265 6.31435C158.265 6.25459 158.265 6.1991 158.265 6.14788C158.265 5.72956 158.308 5.46918 158.393 5.36674C158.487 5.25576 158.606 5.20027 158.752 5.20027C158.999 5.20027 159.174 5.25576 159.277 5.36674C159.379 5.47772 159.43 5.6698 159.43 5.94299C159.43 6.04543 159.418 6.15641 159.392 6.27593C159.366 6.38691 159.324 6.54912 159.264 6.76254C159.332 7.43696 159.388 8.04309 159.43 8.58092C159.482 9.11876 159.507 9.66086 159.507 10.2072C159.507 11.2402 159.341 12.1366 159.008 12.8964C158.683 13.6562 158.222 14.2452 157.625 14.6635C157.036 15.0819 156.34 15.291 155.537 15.291ZM168.673 12.3714C168.375 12.3714 168.127 12.239 167.931 11.9744C167.743 11.7012 167.649 11.2189 167.649 10.5274C167.649 9.80172 167.662 9.09741 167.687 8.41445C167.713 7.72295 167.76 7.10402 167.828 6.55765C167.905 6.01128 168.008 5.5759 168.136 5.25149C168.264 4.92708 168.43 4.76488 168.635 4.76488C168.78 4.76488 168.908 4.84598 169.019 5.00818C169.13 5.16185 169.186 5.36674 169.186 5.62285C169.186 5.8875 169.16 6.24178 169.109 6.68571C169.058 7.12963 168.994 7.60771 168.917 8.11993C168.848 8.62361 168.789 9.11449 168.738 9.59256C168.686 10.0621 168.661 10.4591 168.661 10.7835C168.661 10.9201 168.665 11.031 168.673 11.1164C168.691 11.1933 168.716 11.2317 168.75 11.2317C168.878 11.2317 169.015 11.1207 169.16 10.8987C169.314 10.6682 169.476 10.3694 169.647 10.0023C169.817 9.62671 169.997 9.21693 170.185 8.77301C170.372 8.32055 170.564 7.87235 170.761 7.42843C170.957 6.9845 171.158 6.57899 171.363 6.2119C171.568 5.83627 171.772 5.53748 171.977 5.31552C172.182 5.08502 172.383 4.96977 172.579 4.96977C172.81 4.96977 173.023 5.08075 173.219 5.30271C173.424 5.51614 173.527 5.82347 173.527 6.22471C173.527 6.34423 173.51 6.55338 173.476 6.85218C173.441 7.14244 173.399 7.47538 173.347 7.85101C173.296 8.22664 173.245 8.60227 173.194 8.9779C173.143 9.34499 173.1 9.67366 173.066 9.96392C173.032 10.2456 173.015 10.4463 173.015 10.5658C173.015 11.0097 173.057 11.2317 173.143 11.2317C173.382 11.2317 173.633 11.0823 173.898 10.7835C174.171 10.4761 174.445 10.0834 174.718 9.60537C174.999 9.11876 175.277 8.59373 175.55 8.03029C175.832 7.45831 176.101 6.91194 176.357 6.39118C176.476 6.118 176.574 5.93445 176.651 5.84054C176.737 5.7381 176.822 5.68688 176.907 5.68688C177.027 5.68688 177.138 5.7509 177.24 5.87896C177.351 6.00701 177.407 6.18202 177.407 6.40399C177.407 6.48082 177.403 6.55765 177.394 6.63449C177.386 6.70278 177.364 6.77961 177.33 6.86498C177.04 7.63332 176.728 8.34616 176.395 9.00351C176.062 9.65232 175.721 10.22 175.371 10.7066C175.029 11.1847 174.692 11.5603 174.359 11.8335C174.026 12.0982 173.719 12.2305 173.437 12.2305C172.951 12.2305 172.571 12.0939 172.297 11.8207C172.033 11.539 171.9 11.1634 171.9 10.6938C171.9 10.4975 171.913 10.2414 171.939 9.92551C171.973 9.60964 172.011 9.26815 172.054 8.90106C172.105 8.53397 172.157 8.17969 172.208 7.8382C172.259 7.49672 172.302 7.19793 172.336 6.94182C172.379 6.68571 172.404 6.5107 172.413 6.41679C172.421 6.29727 172.408 6.23751 172.374 6.23751C172.34 6.23751 172.272 6.3485 172.169 6.57046C172.075 6.78388 171.96 7.05707 171.824 7.39001C171.696 7.71442 171.559 8.05163 171.414 8.40165C171.252 8.78581 171.064 9.2084 170.85 9.66939C170.646 10.1219 170.424 10.553 170.185 10.9628C169.954 11.3725 169.711 11.7097 169.455 11.9744C169.199 12.239 168.938 12.3714 168.673 12.3714ZM183.227 6.48082C183.227 6.754 183.141 7.02292 182.971 7.28757C182.8 7.54368 182.574 7.79125 182.292 8.03029C182.01 8.26079 181.699 8.47848 181.357 8.68337C181.016 8.88826 180.674 9.06753 180.333 9.2212C179.991 9.37487 179.68 9.49865 179.398 9.59256C179.33 9.92551 179.295 10.22 179.295 10.4761C179.295 10.6383 179.334 10.7536 179.411 10.8219C179.487 10.8902 179.607 10.9243 179.769 10.9243C180.128 10.9243 180.508 10.8603 180.909 10.7323C181.31 10.6042 181.72 10.4377 182.138 10.2328C182.557 10.0279 182.958 9.81026 183.342 9.57976C183.726 9.34926 184.076 9.13156 184.392 8.92667C184.716 8.72179 184.985 8.55531 185.199 8.42726C185.412 8.2992 185.553 8.23518 185.621 8.23518C185.724 8.23518 185.801 8.26932 185.852 8.33762C185.912 8.39738 185.941 8.46994 185.941 8.55531C185.941 8.62361 185.835 8.75593 185.621 8.95229C185.416 9.14864 185.139 9.37914 184.789 9.64378C184.439 9.89989 184.046 10.1645 183.611 10.4377C183.175 10.7109 182.723 10.967 182.253 11.2061C181.792 11.4451 181.344 11.6372 180.909 11.7823C180.482 11.9274 180.098 12 179.756 12C179.312 12 178.967 11.8335 178.719 11.5006C178.472 11.1676 178.348 10.6512 178.348 9.95112C178.348 9.48158 178.408 9.00778 178.527 8.5297C178.655 8.05163 178.826 7.5949 179.039 7.15951C179.261 6.71559 179.505 6.32288 179.769 5.9814C180.042 5.63139 180.328 5.3582 180.627 5.16185C180.926 4.95696 181.216 4.85452 181.498 4.85452C182.036 4.85452 182.458 5.00392 182.766 5.30271C183.073 5.60151 183.227 5.99421 183.227 6.48082ZM179.667 8.60654C179.931 8.44433 180.205 8.27359 180.486 8.09432C180.768 7.91504 181.028 7.73149 181.267 7.54368C181.507 7.35586 181.699 7.15951 181.844 6.95462C181.997 6.7412 182.074 6.5235 182.074 6.30154C182.074 5.98567 181.903 5.82774 181.562 5.82774C181.349 5.82774 181.122 5.96433 180.883 6.23751C180.653 6.50216 180.431 6.84791 180.217 7.27476C180.004 7.70161 179.82 8.14554 179.667 8.60654ZM185.925 12.0128C185.558 12.0128 185.297 11.9402 185.144 11.7951C184.99 11.65 184.913 11.4366 184.913 11.1548C184.913 9.73769 185.169 8.25652 185.681 6.71132C186.194 5.15758 186.911 3.59958 187.833 2.0373C187.952 1.84095 188.046 1.71716 188.115 1.66594C188.191 1.61472 188.281 1.58911 188.383 1.58911C188.503 1.58911 188.61 1.63179 188.704 1.71716C188.798 1.80253 188.844 1.91778 188.844 2.06291C188.844 2.13975 188.768 2.3489 188.614 2.69038C188.46 3.02333 188.264 3.45445 188.025 3.98374C187.786 4.51304 187.53 5.10636 187.257 5.76371C186.992 6.41252 186.74 7.09122 186.501 7.79979C186.262 8.50836 186.07 9.21266 185.925 9.9127C186.121 9.62244 186.356 9.31084 186.629 8.9779C186.911 8.64495 187.21 8.31201 187.525 7.97907C187.841 7.64612 188.162 7.34306 188.486 7.06987C188.819 6.79669 189.139 6.57899 189.446 6.41679C189.754 6.25459 190.035 6.17349 190.291 6.17349C190.624 6.17349 190.915 6.31435 191.162 6.59607C191.418 6.86925 191.546 7.2833 191.546 7.8382C191.546 8.30774 191.418 8.79008 191.162 9.28523C190.906 9.77184 190.531 10.2243 190.035 10.6426C189.549 11.0524 188.96 11.3853 188.268 11.6414C187.577 11.889 186.796 12.0128 185.925 12.0128ZM185.976 11.0396C186.685 11.0396 187.329 10.9201 187.91 10.681C188.49 10.442 188.985 10.1389 189.395 9.77184C189.813 9.39621 190.134 9.00778 190.356 8.60654C190.586 8.19676 190.701 7.8254 190.701 7.49246C190.701 7.25342 190.62 7.1339 190.458 7.1339C190.262 7.1339 190.01 7.22781 189.702 7.41562C189.395 7.60344 189.062 7.85101 188.704 8.15834C188.354 8.46568 188.004 8.79862 187.654 9.15717C187.304 9.50719 186.979 9.84867 186.68 10.1816C186.39 10.5146 186.155 10.8005 185.976 11.0396ZM194.045 12.2817C193.857 12.2817 193.712 12.2262 193.61 12.1152C193.516 12.0128 193.469 11.8933 193.469 11.7567C193.469 11.6372 193.52 11.5262 193.623 11.4238C193.734 11.3128 193.883 11.2146 194.071 11.1292C194.412 10.9499 194.732 10.7707 195.031 10.5914C195.339 10.4121 195.586 10.22 195.774 10.0151C195.962 9.81026 196.056 9.59256 196.056 9.36206C196.056 9.16571 195.992 9.01631 195.864 8.91387C195.735 8.80289 195.56 8.7474 195.339 8.7474C195.21 8.7474 195.031 8.77301 194.801 8.82423C194.57 8.86691 194.318 8.91814 194.045 8.9779C193.781 9.02912 193.52 9.08034 193.264 9.13156C193.008 9.17425 192.79 9.19559 192.611 9.19559C192.287 9.19559 192.043 9.11876 191.881 8.96509C191.719 8.80289 191.638 8.58519 191.638 8.31201C191.638 8.17542 191.719 7.97053 191.881 7.69734C192.043 7.42416 192.257 7.1211 192.521 6.78815C192.794 6.44667 193.093 6.10519 193.418 5.76371C193.742 5.42223 194.071 5.10636 194.404 4.8161C194.745 4.52584 195.061 4.29107 195.351 4.1118C195.65 3.93252 195.898 3.84288 196.094 3.84288C196.29 3.84288 196.44 3.90691 196.542 4.03496C196.645 4.16302 196.696 4.32522 196.696 4.52157C196.696 4.67524 196.67 4.80756 196.619 4.91854C196.568 5.02099 196.461 5.10209 196.299 5.16185C196.145 5.22161 195.906 5.25576 195.582 5.26429C195.249 5.52894 194.895 5.83201 194.519 6.17349C194.152 6.50643 193.815 6.85218 193.507 7.21073C193.209 7.56075 192.991 7.89796 192.854 8.22237C193.136 8.12846 193.477 8.04736 193.879 7.97907C194.288 7.90223 194.703 7.86382 195.121 7.86382C195.778 7.86382 196.265 8.01321 196.581 8.31201C196.905 8.60227 197.067 8.98643 197.067 9.46451C197.067 9.77184 196.969 10.092 196.773 10.4249C196.585 10.7493 196.337 11.0524 196.03 11.3341C195.723 11.6158 195.394 11.8421 195.044 12.0128C194.694 12.1921 194.361 12.2817 194.045 12.2817ZM200.386 12.3201C200.002 12.3201 199.66 12.2049 199.362 11.9744C199.071 11.7354 198.845 11.4109 198.683 11.0012C198.521 10.5914 198.44 10.1176 198.44 9.57976C198.44 9.01631 198.504 8.4486 198.632 7.87662C198.76 7.30464 198.922 6.77961 199.118 6.30154C199.315 5.82347 199.515 5.44357 199.72 5.16185C199.925 4.87159 200.109 4.72646 200.271 4.72646C200.39 4.72646 200.488 4.76488 200.565 4.84171C200.642 4.91855 200.681 5.02953 200.681 5.17466C200.681 5.2088 200.646 5.32832 200.578 5.53321C200.51 5.72956 200.424 5.98567 200.322 6.30154C200.22 6.60887 200.117 6.95035 200.015 7.32598C199.912 7.70161 199.827 8.08578 199.759 8.47848C199.69 8.87118 199.656 9.24254 199.656 9.59256C199.656 10.1902 199.712 10.6127 199.823 10.8603C199.942 11.0993 200.13 11.2189 200.386 11.2189C201.009 11.2189 201.59 11.0567 202.128 10.7323C202.674 10.3993 203.178 9.96392 203.639 9.42609C204.108 8.87972 204.539 8.27786 204.932 7.62051C204.633 7.6632 204.343 7.69734 204.061 7.72295C203.78 7.74003 203.511 7.75283 203.254 7.76137C203.007 7.76991 202.845 7.74003 202.768 7.67173C202.691 7.60344 202.653 7.49672 202.653 7.35159C202.644 7.22354 202.695 7.10829 202.806 7.00585C202.926 6.9034 203.05 6.84791 203.178 6.83937C203.562 6.80523 203.955 6.76254 204.356 6.71132C204.757 6.6601 205.154 6.60034 205.547 6.53204C205.752 6.13934 205.948 5.74237 206.136 5.34113C206.324 4.93989 206.494 4.55572 206.648 4.18863C206.827 3.63372 207.015 3.11723 207.211 2.63916C207.408 2.15255 207.604 1.75985 207.8 1.46105C207.997 1.15372 208.18 1.00005 208.351 1.00005C208.641 1.00005 208.786 1.14518 208.786 1.43544C208.786 1.4952 208.748 1.66167 208.671 1.93486C208.594 2.20804 208.488 2.56233 208.351 2.99772C208.223 3.4331 208.074 3.92825 207.903 4.48316C207.732 5.02953 207.557 5.60577 207.378 6.2119C208.146 6.05824 208.846 5.90884 209.478 5.76371C210.118 5.61004 210.643 5.48626 211.053 5.39235C211.463 5.28991 211.706 5.23868 211.783 5.23868C211.894 5.23868 211.984 5.29417 212.052 5.40515C212.12 5.5076 212.154 5.60577 212.154 5.69968C212.154 5.77652 212.013 5.87896 211.732 6.00701C211.459 6.13507 211.079 6.27593 210.592 6.4296C210.114 6.57473 209.568 6.72412 208.953 6.87779C208.347 7.02292 207.715 7.15951 207.058 7.28757C206.844 8.01321 206.639 8.73032 206.443 9.4389C206.247 10.1475 206.08 10.7963 205.944 11.3853C205.867 11.761 205.679 11.9488 205.38 11.9488C205.227 11.9488 205.111 11.9104 205.034 11.8335C204.966 11.7567 204.932 11.6244 204.932 11.4366C204.932 11.4109 204.953 11.2829 204.996 11.0524C205.047 10.8134 205.111 10.5188 205.188 10.1688C205.265 9.81026 205.346 9.4389 205.431 9.05473C205.517 8.66203 205.598 8.2992 205.675 7.96626C205.222 8.76874 204.723 9.49865 204.176 10.156C203.63 10.8134 203.037 11.3384 202.397 11.7311C201.765 12.1238 201.095 12.3201 200.386 12.3201ZM200.54 3.47152C200.335 3.47152 200.164 3.40749 200.027 3.27944C199.899 3.15138 199.835 2.99345 199.835 2.80563C199.835 2.57513 199.917 2.38305 200.079 2.22939C200.249 2.06718 200.446 1.98608 200.668 1.98608C200.915 1.98608 201.103 2.05864 201.231 2.20377C201.359 2.34037 201.423 2.51964 201.423 2.74161C201.423 2.92088 201.338 3.08736 201.167 3.24102C200.996 3.39469 200.787 3.47152 200.54 3.47152ZM215.399 6.48082C215.399 6.754 215.314 7.02292 215.143 7.28757C214.972 7.54368 214.746 7.79125 214.464 8.03029C214.183 8.26079 213.871 8.47848 213.53 8.68337C213.188 8.88826 212.847 9.06753 212.505 9.2212C212.164 9.37487 211.852 9.49865 211.57 9.59256C211.502 9.92551 211.468 10.22 211.468 10.4761C211.468 10.6383 211.506 10.7536 211.583 10.8219C211.66 10.8902 211.779 10.9243 211.942 10.9243C212.3 10.9243 212.68 10.8603 213.081 10.7323C213.483 10.6042 213.892 10.4377 214.311 10.2328C214.729 10.0279 215.13 9.81026 215.514 9.57976C215.899 9.34926 216.249 9.13156 216.564 8.92667C216.889 8.72179 217.158 8.55531 217.371 8.42726C217.585 8.2992 217.726 8.23518 217.794 8.23518C217.896 8.23518 217.973 8.26932 218.024 8.33762C218.084 8.39738 218.114 8.46994 218.114 8.55531C218.114 8.62361 218.007 8.75593 217.794 8.95229C217.589 9.14864 217.311 9.37914 216.961 9.64378C216.611 9.89989 216.219 10.1645 215.783 10.4377C215.348 10.7109 214.895 10.967 214.426 11.2061C213.965 11.4451 213.517 11.6372 213.081 11.7823C212.655 11.9274 212.27 12 211.929 12C211.485 12 211.139 11.8335 210.892 11.5006C210.644 11.1676 210.52 10.6512 210.52 9.95112C210.52 9.48158 210.58 9.00778 210.7 8.5297C210.828 8.05163 210.998 7.5949 211.212 7.15951C211.434 6.71559 211.677 6.32288 211.942 5.9814C212.215 5.63139 212.501 5.3582 212.8 5.16185C213.098 4.95696 213.389 4.85452 213.67 4.85452C214.208 4.85452 214.631 5.00392 214.938 5.30271C215.245 5.60151 215.399 5.99421 215.399 6.48082ZM211.839 8.60654C212.104 8.44433 212.377 8.27359 212.659 8.09432C212.941 7.91504 213.201 7.73149 213.44 7.54368C213.679 7.35586 213.871 7.15951 214.016 6.95462C214.17 6.7412 214.247 6.5235 214.247 6.30154C214.247 5.98567 214.076 5.82774 213.734 5.82774C213.521 5.82774 213.295 5.96433 213.056 6.23751C212.825 6.50216 212.603 6.84791 212.39 7.27476C212.176 7.70161 211.993 8.14554 211.839 8.60654ZM218.87 8.83704C218.793 8.83704 218.725 8.79862 218.665 8.72179C218.614 8.63642 218.588 8.52543 218.588 8.38884C218.588 8.20103 218.623 7.9065 218.691 7.50526C218.768 7.09548 218.866 6.62168 218.985 6.08385C219.113 5.53748 219.259 4.96977 219.421 4.38071C219.591 3.79166 219.771 3.21541 219.959 2.65197C220.146 2.07999 220.334 1.57203 220.522 1.12811C220.65 0.829314 220.808 0.679916 220.996 0.679916C221.192 0.679916 221.371 0.773823 221.534 0.961638C221.696 1.14945 221.777 1.37995 221.777 1.65314C221.777 1.75558 221.726 1.94766 221.623 2.22939C221.529 2.51111 221.401 2.85259 221.239 3.25383C221.085 3.65507 220.915 4.08619 220.727 4.54718C220.539 5.00818 220.347 5.47772 220.151 5.95579C219.963 6.42533 219.788 6.86925 219.626 7.28757C219.463 7.70588 219.335 8.0687 219.241 8.37604C219.182 8.56385 219.126 8.68764 219.075 8.7474C219.024 8.80716 218.955 8.83704 218.87 8.83704ZM218.115 12.6531C217.987 12.6531 217.854 12.5805 217.718 12.4354C217.581 12.2903 217.513 11.9957 217.513 11.5518C217.513 11.3042 217.594 11.1207 217.756 11.0012C217.918 10.8731 218.127 10.8091 218.383 10.8091C218.819 10.8091 219.037 11.0353 219.037 11.4878C219.037 11.7012 218.985 11.8933 218.883 12.064C218.78 12.2433 218.657 12.3842 218.512 12.4866C218.375 12.5976 218.243 12.6531 218.115 12.6531Z" fill="white"/>
</svg>
