<svg width="24" height="24" viewBox="0 0 24 24" fill="none" xmlns="http://www.w3.org/2000/svg">
<g clip-path="url(#clip0_1950_1759)">
<mask id="mask0_1950_1759" style="mask-type:luminance" maskUnits="userSpaceOnUse" x="0" y="0" width="24" height="24">
<path d="M0 0H23.5627V23.5627H0V0Z" fill="white"/>
</mask>
<g mask="url(#mask0_1950_1759)">
<path d="M7.59349 8.09969C7.59349 9.62472 6.35723 10.8609 4.83224 10.8609C3.3072 10.8609 2.07098 9.62472 2.07098 8.09969C2.07098 6.5747 3.3072 5.33844 4.83224 5.33844C6.35723 5.33844 7.59349 6.5747 7.59349 8.09969Z" stroke="#CCCFDD" stroke-width="1.1045" stroke-miterlimit="10" stroke-linecap="round" stroke-linejoin="round"/>
<path d="M15.8772 6.25881C15.8772 7.78384 14.641 9.02007 13.116 9.02007C11.591 9.02007 10.3547 7.78384 10.3547 6.25881C10.3547 4.73382 11.591 3.49756 13.116 3.49756C14.641 3.49756 15.8772 4.73382 15.8772 6.25881Z" stroke="#CCCFDD" stroke-width="1.1045" stroke-miterlimit="10" stroke-linecap="round" stroke-linejoin="round"/>
<path d="M8.96788 14.8796C8.90206 12.6496 7.0781 10.861 4.83219 10.861C2.54468 10.861 0.690308 12.7153 0.690308 15.0028V20.0651" stroke="#CCCFDD" stroke-width="1.1045" stroke-miterlimit="10" stroke-linecap="round" stroke-linejoin="round"/>
<path d="M22.8724 8.09967L14.1284 16.8436L11.8274 14.5426L6.30486 20.0651H0.690308" stroke="#CCCFDD" stroke-width="1.1045" stroke-miterlimit="10" stroke-linecap="round" stroke-linejoin="round"/>
<path d="M13.116 9.02008C10.8285 9.02008 8.97412 10.8745 8.97412 13.162V17.3959L11.8274 14.5426L14.1285 16.8436L17.2579 13.7142V13.162C17.2579 10.8745 15.4035 9.02008 13.116 9.02008Z" stroke="#CCCFDD" stroke-width="1.1045" stroke-miterlimit="10" stroke-linecap="round" stroke-linejoin="round"/>
<path d="M20.1111 8.09967H22.8724V10.8609" stroke="#CCCFDD" stroke-width="1.1045" stroke-miterlimit="10" stroke-linecap="round" stroke-linejoin="round"/>
</g>
</g>
<defs>
<clipPath id="clip0_1950_1759">
<rect width="23.5627" height="23.5627" fill="white"/>
</clipPath>
</defs>
</svg>
