<svg width="24" height="24" viewBox="0 0 24 24" fill="none" xmlns="http://www.w3.org/2000/svg">
<g clip-path="url(#clip0_1950_1771)">
<mask id="mask0_1950_1771" style="mask-type:luminance" maskUnits="userSpaceOnUse" x="0" y="0" width="24" height="24">
<path d="M23.5627 0H0V23.5627H23.5627V0Z" fill="white"/>
</mask>
<g mask="url(#mask0_1950_1771)">
<mask id="mask1_1950_1771" style="mask-type:luminance" maskUnits="userSpaceOnUse" x="0" y="0" width="24" height="24">
<path d="M6.12949e-05 0.00146484L23.5628 0.00146511V23.5642H6.10352e-05L6.12949e-05 0.00146484Z" fill="white"/>
</mask>
<g mask="url(#mask1_1950_1771)">
<path d="M8.95735 18.7017C9.01795 19.5514 9.71916 20.2317 10.5704 20.2681C11.0367 20.2881 11.4628 20.1192 11.78 19.8318V23.104H4.23552C3.54521 23.104 2.9856 22.5444 2.9856 21.854V14.3096H11.78V17.3236C11.4797 17.0519 11.0818 16.886 10.6446 16.886C9.66946 16.886 8.88673 17.7115 8.95735 18.7017Z" stroke="#CCCFDD" stroke-width="0.920418" stroke-miterlimit="10" stroke-linecap="round" stroke-linejoin="round"/>
<path d="M18.1358 23.104H19.3226C20.0129 23.104 20.5726 22.5444 20.5726 21.8541V14.3096H17.497C17.7257 14.0028 17.8528 13.616 17.8285 13.1987C17.7796 12.3567 17.1009 11.67 16.2595 11.6121C15.2709 11.5441 14.4479 12.3258 14.4479 13.2998C14.4479 13.6783 14.5722 14.0276 14.7822 14.3096H11.7782V17.3238C11.46 17.0356 11.0319 16.8667 10.5642 16.8879C9.71324 16.9264 9.01373 17.6082 8.95519 18.4581C8.88708 19.4466 9.66884 20.2697 10.6429 20.2697C11.0797 20.2697 11.478 20.1039 11.7782 19.832V23.104H14.0694" stroke="#CCCFDD" stroke-width="0.920418" stroke-miterlimit="10" stroke-linecap="round" stroke-linejoin="round"/>
<path d="M12.6651 0.827866L17.9998 6.16256L15.8252 8.33717C15.7696 7.95899 15.5861 7.59591 15.2743 7.31805C14.6448 6.75706 13.6795 6.7508 13.0433 7.30424C12.2954 7.95487 12.2659 9.09037 12.9547 9.77928C13.2224 10.0469 13.5574 10.2061 13.9054 10.2569L11.7812 12.3811L9.56267 10.1625C9.54279 10.567 9.37858 10.9655 9.06977 11.2743C8.40883 11.9352 7.33537 11.9337 6.67263 11.2709C6.00988 10.6081 6.00836 9.53467 6.66922 8.87381C6.97802 8.565 7.37656 8.40079 7.78133 8.38113L5.56274 6.16256L10.8974 0.827866C11.3855 0.339767 12.177 0.339767 12.6651 0.827866Z" stroke="#CCCFDD" stroke-width="0.920418" stroke-miterlimit="10" stroke-linecap="round" stroke-linejoin="round"/>
</g>
</g>
</g>
<defs>
<clipPath id="clip0_1950_1771">
<rect width="23.5627" height="23.5627" fill="white"/>
</clipPath>
</defs>
</svg>
