<svg width="152" height="44" viewBox="0 0 152 44" fill="none" xmlns="http://www.w3.org/2000/svg">
<g clip-path="url(#clip0_1941_1723)">
<mask id="mask0_1941_1723" style="mask-type:luminance" maskUnits="userSpaceOnUse" x="0" y="0" width="152" height="44">
<path d="M152 0H0V44H152V0Z" fill="white"/>
</mask>
<g mask="url(#mask0_1941_1723)">
<path d="M52.585 24.4673C51.2908 23.7426 50.6096 23.1559 50.6096 22.3277C50.6096 21.2579 51.5292 20.6022 52.9937 20.6022C54.6966 20.6022 56.1951 21.3269 56.1951 21.3269L57.3871 17.6343C57.3871 17.6343 56.2973 16.7716 53.0618 16.7716C48.5662 16.7716 45.4328 19.3943 45.4328 23.0524C45.4328 25.123 46.8974 26.7104 48.8387 27.8493C50.4053 28.7465 50.9502 29.4022 50.9502 30.334C50.9502 31.3348 50.1669 32.1285 48.7024 32.1285C46.5227 32.1285 44.4792 30.9896 44.4792 30.9896L43.2191 34.6822C43.2191 34.6822 45.1263 35.959 48.2938 35.959C52.9256 35.959 56.2292 33.6469 56.2292 29.5057C56.2973 27.2281 54.5944 25.6406 52.585 24.4673Z" fill="white"/>
<path d="M71.0448 16.7025C68.7628 16.7025 66.9917 17.8069 65.5954 19.4633L65.5273 19.4288L67.5026 8.93785H62.3258L57.3193 35.614H62.462L64.1649 26.5033C64.8461 23.0524 66.583 20.9472 68.2176 20.9472C69.3755 20.9472 69.8187 21.741 69.8187 22.8798C69.8187 23.6045 69.7504 24.4672 69.5802 25.1919L67.6386 35.6485H72.7817L74.7908 24.8814C75.0292 23.7425 75.1657 22.3967 75.1657 21.4649C75.2339 18.4625 73.7349 16.7025 71.0448 16.7025Z" fill="white"/>
<path d="M86.8811 16.7024C80.6822 16.7024 76.5613 22.362 76.5613 28.6774C76.5613 32.715 79.0136 35.9934 83.6452 35.9934C89.7414 35.9934 93.8285 30.4719 93.8285 24.0185C93.863 20.2569 91.7174 16.7024 86.8811 16.7024ZM84.3606 31.9558C82.5893 31.9558 81.8746 30.4374 81.8746 28.5393C81.8746 25.5369 83.4067 20.6711 86.1995 20.6711C88.039 20.6711 88.618 22.2585 88.618 23.8114C88.618 27.0554 87.0851 31.9558 84.3606 31.9558Z" fill="white"/>
<path d="M107.043 16.7024C103.569 16.7024 101.594 19.8083 101.594 19.8083H101.526L101.833 17.013H97.2685C97.03 18.9111 96.6213 21.7754 96.2126 23.9495L92.6368 42.9989H97.7799L99.21 35.2687H99.312C99.312 35.2687 100.368 35.9589 102.343 35.9589C108.406 35.9589 112.356 29.6781 112.356 23.3283C112.356 19.8428 110.823 16.7024 107.043 16.7024ZM102.139 32.0593C100.81 32.0593 100.027 31.3001 100.027 31.3001L100.879 26.4342C101.492 23.1903 103.161 21.0161 104.932 21.0161C106.499 21.0161 106.975 22.5001 106.975 23.8805C106.975 27.2279 105 32.0593 102.139 32.0593Z" fill="white"/>
<path d="M119.713 9.21384C118.078 9.21384 116.75 10.5252 116.75 12.2507C116.75 13.8036 117.703 14.8734 119.168 14.8734H119.236C120.837 14.8734 122.233 13.7691 122.267 11.8366C122.301 10.2836 121.279 9.21384 119.713 9.21384Z" fill="white"/>
<path d="M112.493 35.614H117.67L121.177 17.1167H115.967L112.493 35.614Z" fill="white"/>
<path d="M134.256 17.0822H130.679L130.85 16.2194C131.156 14.4249 132.178 12.8375 133.915 12.8375C134.835 12.8375 135.55 13.1135 135.55 13.1135L136.572 9.04139C136.572 9.04139 135.686 8.59273 133.779 8.59273C131.94 8.59273 130.135 9.11042 128.739 10.3182C126.967 11.8367 126.15 14.0108 125.741 16.2194L125.605 17.0822H123.221L122.471 21.0163H124.856L122.131 35.614H127.274L129.999 21.0163H133.54L134.256 17.0822Z" fill="white"/>
<path d="M146.652 17.1167C146.652 17.1167 143.417 25.33 141.987 29.8163H141.919C141.817 28.3669 140.659 17.1167 140.659 17.1167H135.244L138.342 34.0955C138.411 34.4751 138.377 34.7167 138.24 34.9583C137.628 36.1316 136.64 37.2704 135.448 38.0987C134.494 38.8234 133.404 39.272 132.553 39.5826L133.983 43.9998C135.039 43.7582 137.184 42.8955 139.024 41.17C141.374 38.9269 143.554 35.5104 145.767 30.8171L152.068 17.1167H146.652Z" fill="white"/>
<path d="M32.6496 8.34984C32.6192 8.13417 32.4368 8.0109 32.2848 8.0109C32.1328 8.0109 29.1232 7.9493 29.1232 7.9493C29.1232 7.9493 26.6 5.48433 26.3568 5.20702C26.1136 4.96051 25.6272 5.02214 25.4448 5.08376C25.4448 5.08376 24.9584 5.23782 24.168 5.48433C24.0464 5.05296 23.8336 4.52914 23.56 3.97452C22.6784 2.24903 21.3408 1.32466 19.76 1.32466C19.6384 1.32466 19.5472 1.32466 19.4256 1.35547C19.3648 1.29385 19.3344 1.23222 19.2736 1.20141C18.5744 0.461916 17.6928 0.0921676 16.6288 0.12298C14.592 0.184605 12.5552 1.69441 10.8832 4.34427C9.728 6.22382 8.8464 8.56558 8.5728 10.3835C6.232 11.123 4.5904 11.6468 4.5296 11.6468C3.344 12.0166 3.3136 12.0474 3.1616 13.1874C3.1008 14.0502 0 38.3611 0 38.3611L26.0224 42.9213L37.3008 40.0866C37.2704 40.0866 32.68 8.56558 32.6496 8.34984ZM22.8608 5.9157C22.2528 6.10058 21.584 6.31626 20.8544 6.56275C20.8544 5.51513 20.7024 4.03614 20.2464 2.80365C21.7968 3.05015 22.5568 4.83727 22.8608 5.9157ZM19.4864 6.96329C18.1184 7.3947 16.6288 7.8569 15.1392 8.31904C15.5648 6.68601 16.3552 5.08376 17.328 4.00534C17.6928 3.60477 18.2096 3.1734 18.7872 2.9269C19.3952 4.12858 19.5168 5.82326 19.4864 6.96329ZM16.6896 1.50953C17.176 1.50953 17.5712 1.60197 17.9056 1.84847C17.3584 2.12578 16.8112 2.55715 16.3248 3.11178C15.0176 4.52914 14.0144 6.71682 13.6192 8.84285C12.3728 9.24345 11.1568 9.61319 10.0624 9.95213C10.792 6.59357 13.5584 1.60197 16.6896 1.50953Z" fill="#95BF47"/>
<path d="M32.2845 8.01118C32.1325 8.01118 29.1229 7.94958 29.1229 7.94958C29.1229 7.94958 26.5997 5.48458 26.3565 5.20727C26.2653 5.11483 26.1437 5.05321 26.0221 5.05321V42.9215L37.3005 40.0868C37.3005 40.0868 32.7101 8.56578 32.6797 8.35011C32.6189 8.13445 32.4365 8.01118 32.2845 8.01118Z" fill="#5E8E3E"/>
<path d="M19.7598 13.8964L18.4526 18.8572C18.4526 18.8572 16.9934 18.1793 15.2606 18.3025C12.707 18.4566 12.707 20.0896 12.707 20.4902C12.859 22.7087 18.6046 23.2017 18.939 28.4089C19.1822 32.507 16.811 35.3109 13.3454 35.5266C9.21103 35.7423 6.93103 33.2773 6.93103 33.2773L7.81263 29.4874C7.81263 29.4874 10.123 31.2437 11.947 31.1204C13.1326 31.0588 13.5886 30.042 13.5278 29.3642C13.3454 26.4678 8.66383 26.6527 8.35983 21.8767C8.11663 17.8712 10.7006 13.8347 16.4158 13.465C18.635 13.3109 19.7598 13.8964 19.7598 13.8964Z" fill="white"/>
</g>
</g>
<defs>
<clipPath id="clip0_1941_1723">
<rect width="152" height="44" fill="white"/>
</clipPath>
</defs>
</svg>
