<svg width="24" height="24" viewBox="0 0 24 24" fill="none" xmlns="http://www.w3.org/2000/svg">
<path d="M1.47266 14.5131C1.66795 14.5131 1.85524 14.4355 1.99333 14.2975C2.13142 14.1594 2.209 13.9721 2.209 13.7768V11.5015C2.209 11.3805 2.25709 11.2644 2.34271 11.1787C2.42833 11.0931 2.54445 11.045 2.66552 11.045H9.57234V12.0612C9.57234 12.3145 9.62226 12.5654 9.71917 12.7994C9.81614 13.0335 9.95825 13.2461 10.1374 13.4253C10.3166 13.6044 10.5292 13.7465 10.7633 13.8435C10.9973 13.9404 11.2482 13.9903 11.5015 13.9903H12.5177V20.8972C12.5177 20.9571 12.5059 21.0164 12.4829 21.0719C12.46 21.1273 12.4264 21.1776 12.384 21.22C12.3415 21.2624 12.2913 21.296 12.2359 21.3189C12.1804 21.3419 12.1211 21.3537 12.0612 21.3537H2.66552C2.57716 21.3537 2.4888 21.2064 2.41517 21.0076C2.37051 20.8894 2.29951 20.7829 2.20755 20.6962C2.11559 20.6095 2.00509 20.5449 1.88444 20.5073C1.76379 20.4696 1.63615 20.46 1.51122 20.4791C1.38628 20.4981 1.26734 20.5455 1.1634 20.6174C1.01408 20.7192 0.902725 20.8677 0.846771 21.0396C0.790809 21.2114 0.793401 21.397 0.854142 21.5672C0.990238 21.9377 1.2371 22.2573 1.56118 22.4826C1.88526 22.7079 2.27084 22.8279 2.66552 22.8264H12.0612C12.3145 22.8264 12.5654 22.7764 12.7994 22.6795C13.0335 22.5826 13.2461 22.4404 13.4253 22.2613C13.6044 22.0821 13.7465 21.8695 13.8435 21.6354C13.9404 21.4014 13.9903 21.1505 13.9903 20.8972V13.9903H20.8972C21.4083 13.9884 21.8978 13.7845 22.2592 13.4231C22.6206 13.0618 22.8244 12.5722 22.8264 12.0612V2.66552C22.8244 2.15446 22.6206 1.6649 22.2592 1.30352C21.8978 0.942141 21.4083 0.738265 20.8972 0.736328H11.5015C10.9904 0.738265 10.5009 0.942141 10.1395 1.30352C9.77815 1.6649 9.57426 2.15446 9.57234 2.66552V9.57234H2.66552C2.41218 9.57234 2.16131 9.62226 1.92725 9.71917C1.69319 9.81614 1.48052 9.95825 1.30138 10.1374C1.12223 10.3166 0.980128 10.5292 0.883183 10.7633C0.78623 10.9973 0.736328 11.2482 0.736328 11.5015V13.7768C0.736328 13.9721 0.813908 14.1594 0.951993 14.2975C1.09009 14.4355 1.27737 14.5131 1.47266 14.5131ZM11.045 2.66552C11.044 2.6053 11.0552 2.54549 11.0777 2.48965C11.1003 2.43381 11.1339 2.38309 11.1765 2.34049C11.2191 2.2979 11.2698 2.26431 11.3256 2.24172C11.3815 2.21913 11.4413 2.208 11.5015 2.209H20.8972C20.9574 2.208 21.0172 2.21913 21.0731 2.24172C21.1289 2.26431 21.1796 2.2979 21.2222 2.34049C21.2648 2.38309 21.2984 2.43381 21.321 2.48965C21.3435 2.54549 21.3547 2.6053 21.3537 2.66552V12.0612C21.3547 12.1214 21.3435 12.1812 21.321 12.2371C21.2984 12.2929 21.2648 12.3436 21.2222 12.3862C21.1796 12.4288 21.1289 12.4624 21.0731 12.485C21.0172 12.5075 20.9574 12.5187 20.8972 12.5177H11.5015C11.4416 12.5177 11.3823 12.5059 11.3268 12.4829C11.2714 12.46 11.2211 12.4264 11.1787 12.384C11.1363 12.3415 11.1027 12.2913 11.0798 12.2359C11.0568 12.1804 11.045 12.1211 11.045 12.0612V2.66552Z" fill="#CCCFDD"/>
<path d="M21.8767 16.2585C21.9267 16.1706 21.9581 16.0733 21.9688 15.9728C21.9796 15.8722 21.9695 15.7705 21.9392 15.674C21.909 15.5775 21.8592 15.4883 21.7929 15.4119C21.7266 15.3355 21.6454 15.2736 21.5541 15.23C21.4628 15.1864 21.3636 15.1621 21.2625 15.1585C21.1614 15.1549 21.0608 15.1722 20.9667 15.2094C20.8726 15.2464 20.7872 15.3025 20.7157 15.3741C20.6442 15.4456 20.5883 15.5311 20.5513 15.6252C19.5904 17.8032 17.8563 19.5478 15.6841 20.5219C15.4978 20.6045 15.3431 20.7453 15.2436 20.9232C15.144 21.1011 15.1048 21.3065 15.1319 21.5085C15.154 21.7038 15.237 21.8871 15.3691 22.0325C15.5013 22.1779 15.676 22.2779 15.8682 22.3185L17.4513 22.694C17.5949 22.7281 17.7454 22.7181 17.8832 22.6656C18.021 22.6131 18.14 22.5204 18.2245 22.3995C18.2939 22.3009 18.3382 22.1868 18.3532 22.0671C18.3683 21.9475 18.3537 21.826 18.3108 21.7133C18.2679 21.6006 18.198 21.5002 18.1072 21.4208C18.0164 21.3414 17.9075 21.2856 17.7901 21.2582L17.5397 21.1993C19.4534 20.0307 20.966 18.3075 21.8767 16.2585Z" fill="#CCCFDD"/>
<path d="M1.84676 6.95152C1.79877 7.04158 1.77002 7.14062 1.76234 7.24238C1.75466 7.34412 1.76822 7.4464 1.80214 7.54257C1.83606 7.6388 1.88962 7.72694 1.95941 7.80139C2.0292 7.87583 2.11371 7.93496 2.20756 7.97502C2.37666 8.04092 2.56413 8.04202 2.734 7.97818C2.90387 7.91427 3.04417 7.7899 3.12798 7.62894C4.13134 5.56591 5.83562 3.92688 7.93624 3.00477C8.11686 2.92724 8.26796 2.7939 8.36729 2.62431C8.4667 2.45471 8.50918 2.25775 8.48849 2.06226C8.4706 1.8663 8.38887 1.68164 8.25581 1.53664C8.12283 1.39164 7.94589 1.29433 7.75216 1.25966L5.98496 0.876766C5.78966 0.836731 5.58647 0.875919 5.42008 0.985699C5.25368 1.09548 5.13771 1.26687 5.09767 1.46215C5.05764 1.65744 5.09682 1.86063 5.2066 2.02703C5.31638 2.19343 5.48777 2.3094 5.68306 2.34943L5.94814 2.40834C4.18315 3.50952 2.76225 5.08348 1.84676 6.95152Z" fill="#CCCFDD"/>
</svg>
