<svg width="141" height="65" viewBox="0 0 141 65" fill="none" xmlns="http://www.w3.org/2000/svg">
<path d="M38.0236 13.091C37.8676 13.091 37.7333 13.0217 37.6206 12.883C37.5166 12.7443 37.4646 12.5017 37.4646 12.155C37.4646 11.9557 37.5036 11.7217 37.5816 11.453C37.755 10.907 37.9326 10.322 38.1146 9.698C38.3053 9.074 38.483 8.437 38.6476 7.787C38.821 7.137 38.9596 6.50867 39.0636 5.902C39.1676 5.28667 39.2196 4.72333 39.2196 4.212C39.2196 4.03867 39.211 3.86967 39.1936 3.705C39.185 3.54033 39.1633 3.38433 39.1286 3.237C38.2533 4.069 37.443 5.2 36.6976 6.63C35.961 8.05133 35.2893 9.70667 34.6826 11.596C34.5786 11.882 34.4486 12.0813 34.2926 12.194C34.1366 12.3067 33.9893 12.363 33.8506 12.363C33.7293 12.363 33.6123 12.3153 33.4996 12.22C33.387 12.116 33.3306 11.96 33.3306 11.752C33.3306 11.6133 33.3653 11.4183 33.4346 11.167C33.504 10.907 33.6253 10.6687 33.7986 10.452C33.894 9.88 33.972 9.27333 34.0326 8.632C34.102 7.99067 34.1366 7.397 34.1366 6.851C34.1366 6.59967 34.1236 6.36567 34.0976 6.149C34.0803 5.92367 34.05 5.72867 34.0066 5.564C33.556 6.04067 33.1356 6.63867 32.7456 7.358C32.3643 8.06867 32.0263 8.83567 31.7316 9.659C31.437 10.4737 31.19 11.271 30.9906 12.051C30.8346 12.6143 30.5833 12.896 30.2366 12.896C30.098 12.896 29.981 12.8223 29.8856 12.675C29.799 12.5277 29.7556 12.3067 29.7556 12.012C29.7556 11.726 29.825 11.3403 29.9636 10.855C30.1023 10.3697 30.2886 9.83667 30.5226 9.256C30.7653 8.67533 31.034 8.099 31.3286 7.527C31.632 6.94633 31.944 6.41767 32.2646 5.941C32.594 5.45567 32.9146 5.06567 33.2266 4.771C33.5386 4.47633 33.8203 4.329 34.0716 4.329C34.2363 4.329 34.3836 4.35933 34.5136 4.42C34.6436 4.48067 34.7563 4.60633 34.8516 4.797C34.947 4.979 35.0163 5.26067 35.0596 5.642C35.1116 6.01467 35.1376 6.513 35.1376 7.137C35.1376 7.24967 35.1376 7.37967 35.1376 7.527C35.389 6.83367 35.6793 6.162 36.0086 5.512C36.3466 4.85333 36.702 4.264 37.0746 3.744C37.4473 3.224 37.82 2.81233 38.1926 2.509C38.5653 2.20567 38.9163 2.054 39.2456 2.054C39.6183 2.054 39.9216 2.25767 40.1556 2.665C40.3896 3.06367 40.5066 3.692 40.5066 4.55C40.5066 5.36467 40.4416 6.15767 40.3116 6.929C40.1816 7.70033 40.017 8.42833 39.8176 9.113C39.627 9.79767 39.4276 10.4217 39.2196 10.985C39.0203 11.5397 38.847 12.0163 38.6996 12.415C38.6043 12.6577 38.5046 12.831 38.4006 12.935C38.2966 13.039 38.171 13.091 38.0236 13.091ZM44.1478 12.753C43.8184 12.753 43.5454 12.6013 43.3288 12.298C43.1208 11.986 43.0168 11.583 43.0168 11.089C43.0168 10.6557 43.1251 10.2397 43.3418 9.841C43.5584 9.43367 43.8444 9.04367 44.1998 8.671C44.5638 8.29833 44.9668 7.956 45.4088 7.644C45.8508 7.32333 46.2971 7.033 46.7478 6.773C47.2071 6.513 47.6404 6.292 48.0478 6.11C48.4638 5.928 48.8191 5.78933 49.1138 5.694C49.4084 5.59 49.6121 5.538 49.7248 5.538C49.9154 5.538 50.0108 5.642 50.0108 5.85C50.0108 6.032 49.9371 6.19233 49.7898 6.331C49.6511 6.46967 49.4821 6.58667 49.2828 6.682C48.9188 6.864 48.5028 7.08067 48.0348 7.332C47.5754 7.57467 47.1074 7.84767 46.6308 8.151C46.1628 8.44567 45.7251 8.762 45.3178 9.1C44.9191 9.438 44.5984 9.79333 44.3558 10.166C44.1131 10.53 43.9918 10.9027 43.9918 11.284C43.9918 11.3967 44.0134 11.4833 44.0568 11.544C44.1088 11.6047 44.1954 11.635 44.3168 11.635C44.4728 11.635 44.6721 11.5613 44.9148 11.414C45.1661 11.258 45.4391 11.0543 45.7338 10.803C46.0371 10.543 46.3361 10.257 46.6308 9.945C46.9341 9.633 47.2158 9.31667 47.4758 8.996C47.7358 8.66667 47.9481 8.359 48.1128 8.073C48.2081 7.917 48.3164 7.787 48.4378 7.683C48.5591 7.57033 48.6891 7.514 48.8278 7.514C49.0184 7.514 49.1138 7.62667 49.1138 7.852C49.1138 7.92133 49.0878 8.099 49.0358 8.385C48.9924 8.671 48.9448 9.01767 48.8928 9.425C48.8408 9.82367 48.8148 10.244 48.8148 10.686C48.8148 11.6307 49.0401 12.103 49.4908 12.103C49.7421 12.103 50.0021 12.0077 50.2708 11.817C50.5481 11.6263 50.8168 11.3837 51.0768 11.089C51.3454 10.7857 51.5924 10.465 51.8178 10.127C52.0431 9.789 52.2338 9.46833 52.3898 9.165C52.5458 8.86167 52.6541 8.619 52.7148 8.437C52.8534 7.46633 53.0484 6.76867 53.2998 6.344C53.5598 5.91933 53.8241 5.707 54.0928 5.707C54.2661 5.707 54.4048 5.75467 54.5088 5.85C54.6128 5.93667 54.6648 6.13167 54.6648 6.435C54.6648 6.643 54.5824 6.955 54.4178 7.371C54.2531 7.787 54.0321 8.242 53.7548 8.736C53.6768 9.178 53.6334 9.633 53.6248 10.101C53.6161 10.569 53.6638 10.998 53.7678 11.388C53.9931 11.2753 54.2184 11.0717 54.4438 10.777C54.6691 10.4737 54.8988 10.1227 55.1328 9.724C55.3668 9.32533 55.5964 8.91367 55.8218 8.489C56.0558 8.06433 56.2854 7.67433 56.5108 7.319C56.7448 6.955 56.9701 6.66033 57.1868 6.435C57.4121 6.20967 57.6331 6.097 57.8498 6.097C58.1271 6.097 58.3568 6.18367 58.5388 6.357C58.7208 6.52167 58.8594 6.81633 58.9548 7.241C59.0501 7.657 59.0978 8.24633 59.0978 9.009C59.0978 9.41633 59.1368 9.79767 59.2148 10.153C59.3014 10.5083 59.4358 10.7943 59.6178 11.011C59.8084 11.219 60.0511 11.323 60.3458 11.323C60.7878 11.323 61.1821 11.245 61.5288 11.089C61.8754 10.9243 62.1744 10.7423 62.4258 10.543C62.6858 10.335 62.9024 10.153 63.0758 9.997C63.2491 9.83233 63.3834 9.75 63.4788 9.75C63.6781 9.75 63.7778 9.854 63.7778 10.062C63.7778 10.1487 63.7128 10.2873 63.5828 10.478C63.4614 10.66 63.2881 10.868 63.0628 11.102C62.8461 11.3273 62.5948 11.5483 62.3088 11.765C62.0314 11.973 61.7324 12.1463 61.4118 12.285C61.0998 12.4237 60.7834 12.493 60.4628 12.493C59.8648 12.493 59.3751 12.376 58.9938 12.142C58.6211 11.908 58.3438 11.5223 58.1618 10.985C57.9884 10.4477 57.9018 9.72833 57.9018 8.827C57.9018 8.333 57.8844 7.97333 57.8498 7.748C57.8151 7.514 57.7284 7.358 57.5898 7.28C57.4858 7.462 57.3471 7.722 57.1738 8.06C57.0091 8.38933 56.8184 8.75767 56.6018 9.165C56.3938 9.57233 56.1684 9.984 55.9258 10.4C55.6831 10.8073 55.4361 11.1843 55.1848 11.531C54.9334 11.869 54.6821 12.1463 54.4308 12.363C54.1794 12.571 53.9411 12.675 53.7158 12.675C53.5684 12.675 53.4168 12.597 53.2608 12.441C53.1048 12.2763 52.9748 12.064 52.8708 11.804C52.7668 11.5353 52.7148 11.2493 52.7148 10.946C52.7148 10.7467 52.7191 10.5603 52.7278 10.387C52.3724 10.8897 51.9998 11.3577 51.6098 11.791C51.2198 12.2157 50.8298 12.558 50.4398 12.818C50.0498 13.078 49.6858 13.208 49.3478 13.208C49.0791 13.208 48.8278 13.1127 48.5938 12.922C48.3598 12.7227 48.1691 12.389 48.0218 11.921C47.8831 11.4443 47.8051 10.7987 47.7878 9.984C47.4064 10.5213 47.0034 10.998 46.5788 11.414C46.1541 11.83 45.7338 12.1593 45.3178 12.402C44.9018 12.636 44.5118 12.753 44.1478 12.753ZM63.6345 13.338C63.3051 13.338 63.0321 13.1863 62.8155 12.883C62.6075 12.571 62.5035 12.168 62.5035 11.674C62.5035 11.2147 62.6161 10.7597 62.8415 10.309C63.0755 9.85833 63.3831 9.425 63.7645 9.009C64.1458 8.593 64.5618 8.21167 65.0125 7.865C65.4631 7.50967 65.9138 7.202 66.3645 6.942C66.8238 6.682 67.2441 6.47833 67.6255 6.331C68.0068 6.18367 68.3101 6.11 68.5355 6.11C68.6568 6.11 68.7565 6.136 68.8345 6.188C68.9125 6.23133 68.9515 6.31367 68.9515 6.435C68.9515 6.513 68.9211 6.58667 68.8605 6.656C68.8691 6.656 68.8778 6.656 68.8865 6.656C69.0771 6.656 69.1725 6.76867 69.1725 6.994C69.1725 7.072 69.1421 7.23233 69.0815 7.475C69.0208 7.709 68.9515 8.00367 68.8735 8.359C68.7955 8.71433 68.7261 9.10867 68.6655 9.542C68.6048 9.96667 68.5745 10.4 68.5745 10.842C68.5745 11.2147 68.7175 11.401 69.0035 11.401C69.3241 11.401 69.6491 11.3273 69.9785 11.18C70.3078 11.0327 70.6285 10.855 70.9405 10.647C71.2525 10.4303 71.5385 10.218 71.7985 10.01C72.0585 9.79333 72.2795 9.61133 72.4615 9.464C72.6435 9.31667 72.7735 9.243 72.8515 9.243C72.9208 9.243 72.9815 9.26467 73.0335 9.308C73.0855 9.35133 73.1115 9.42067 73.1115 9.516C73.1115 9.60267 73.0248 9.75867 72.8515 9.984C72.6781 10.2093 72.4485 10.465 72.1625 10.751C71.8765 11.037 71.5558 11.3143 71.2005 11.583C70.8451 11.8517 70.4811 12.0727 70.1085 12.246C69.7358 12.4193 69.3805 12.506 69.0425 12.506C68.7825 12.506 68.5441 12.428 68.3275 12.272C68.1195 12.1073 67.9505 11.83 67.8205 11.44C67.6991 11.05 67.6385 10.5127 67.6385 9.828V9.503C67.2138 10.205 66.7675 10.8463 66.2995 11.427C65.8401 12.0077 65.3808 12.4713 64.9215 12.818C64.4708 13.1647 64.0418 13.338 63.6345 13.338ZM68.2885 7.046C68.2451 7.06333 68.1845 7.08933 68.1065 7.124C67.7078 7.306 67.2918 7.53133 66.8585 7.8C66.4338 8.06867 66.0178 8.36767 65.6105 8.697C65.2118 9.02633 64.8521 9.36867 64.5315 9.724C64.2108 10.0793 63.9551 10.439 63.7645 10.803C63.5738 11.167 63.4785 11.5223 63.4785 11.869C63.4785 11.9817 63.5001 12.0683 63.5435 12.129C63.5955 12.1897 63.6821 12.22 63.8035 12.22C63.9768 12.22 64.2021 12.1117 64.4795 11.895C64.7568 11.6697 65.0601 11.375 65.3895 11.011C65.7275 10.647 66.0655 10.244 66.4035 9.802C66.7415 9.36 67.0621 8.91367 67.3655 8.463C67.6775 8.01233 67.9461 7.59633 68.1715 7.215C68.2061 7.15433 68.2451 7.098 68.2885 7.046ZM73.1463 16.432C72.479 16.432 71.9893 16.367 71.6773 16.237C71.3653 16.107 71.2093 15.9337 71.2093 15.717C71.2093 15.5783 71.2526 15.4657 71.3393 15.379C71.4346 15.2923 71.5516 15.249 71.6903 15.249C71.8376 15.249 72.05 15.2707 72.3273 15.314C72.6046 15.366 72.8776 15.392 73.1463 15.392C74.039 15.392 74.7713 15.1277 75.3433 14.599C75.9153 14.0703 76.353 13.26 76.6563 12.168C76.9596 11.0673 77.1633 9.66333 77.2673 7.956C77.0073 8.48467 76.7126 9.01333 76.3833 9.542C76.0626 10.062 75.716 10.5387 75.3433 10.972C74.9793 11.3967 74.6023 11.739 74.2123 11.999C73.8223 12.259 73.4366 12.389 73.0553 12.389C72.6913 12.389 72.4226 12.298 72.2493 12.116C72.0846 11.934 72.0023 11.635 72.0023 11.219C72.0023 10.8463 72.1063 10.452 72.3143 10.036C72.5223 9.61133 72.7996 9.18667 73.1463 8.762C73.493 8.33733 73.8743 7.93433 74.2903 7.553C74.7063 7.163 75.1223 6.82067 75.5383 6.526C75.963 6.22267 76.3573 5.98433 76.7213 5.811C77.0853 5.63767 77.38 5.551 77.6053 5.551C77.8306 5.551 78.004 5.629 78.1253 5.785C78.2466 5.941 78.3073 6.23567 78.3073 6.669C78.3073 7.683 78.2726 8.671 78.2033 9.633C78.1426 10.5863 78.017 11.4747 77.8263 12.298C77.6356 13.1213 77.3496 13.8407 76.9683 14.456C76.5956 15.08 76.0973 15.5653 75.4733 15.912C74.8493 16.2587 74.0736 16.432 73.1463 16.432ZM77.0333 6.682C76.6 6.95933 76.1536 7.27133 75.6943 7.618C75.235 7.96467 74.806 8.333 74.4073 8.723C74.0173 9.113 73.701 9.516 73.4583 9.932C73.2156 10.348 73.0943 10.764 73.0943 11.18C73.0943 11.31 73.1766 11.375 73.3413 11.375C73.4713 11.375 73.649 11.2753 73.8743 11.076C74.1083 10.868 74.3683 10.595 74.6543 10.257C74.9403 9.91033 75.2306 9.53333 75.5253 9.126C75.8286 8.71 76.1103 8.28967 76.3703 7.865C76.6303 7.44033 76.8513 7.046 77.0333 6.682ZM85.7823 7.397C85.7823 7.67433 85.6956 7.94733 85.5223 8.216C85.349 8.476 85.1193 8.72733 84.8333 8.97C84.5473 9.204 84.231 9.425 83.8843 9.633C83.5376 9.841 83.191 10.023 82.8443 10.179C82.4976 10.335 82.1813 10.4607 81.8953 10.556C81.826 10.894 81.7913 11.193 81.7913 11.453C81.7913 11.6177 81.8303 11.7347 81.9083 11.804C81.9863 11.8733 82.1076 11.908 82.2723 11.908C82.6363 11.908 83.022 11.843 83.4293 11.713C83.8366 11.583 84.2526 11.414 84.6773 11.206C85.102 10.998 85.5093 10.777 85.8993 10.543C86.2893 10.309 86.6446 10.088 86.9653 9.88C87.2946 9.672 87.5676 9.503 87.7843 9.373C88.001 9.243 88.144 9.178 88.2133 9.178C88.3173 9.178 88.3953 9.21267 88.4473 9.282C88.508 9.34267 88.5383 9.41633 88.5383 9.503C88.5383 9.57233 88.43 9.70667 88.2133 9.906C88.0053 10.1053 87.7236 10.3393 87.3683 10.608C87.013 10.868 86.6143 11.1367 86.1723 11.414C85.7303 11.6913 85.271 11.9513 84.7943 12.194C84.3263 12.4367 83.8713 12.6317 83.4293 12.779C82.996 12.9263 82.606 13 82.2593 13C81.8086 13 81.4576 12.831 81.2063 12.493C80.955 12.155 80.8293 11.6307 80.8293 10.92C80.8293 10.4433 80.89 9.96233 81.0113 9.477C81.1413 8.99167 81.3146 8.528 81.5313 8.086C81.7566 7.63533 82.0036 7.23667 82.2723 6.89C82.5496 6.53467 82.84 6.25733 83.1433 6.058C83.4466 5.85 83.7413 5.746 84.0273 5.746C84.5733 5.746 85.0023 5.89767 85.3143 6.201C85.6263 6.50433 85.7823 6.903 85.7823 7.397ZM82.1683 9.555C82.437 9.39033 82.7143 9.217 83.0003 9.035C83.2863 8.853 83.5506 8.66667 83.7933 8.476C84.036 8.28533 84.231 8.086 84.3783 7.878C84.5343 7.66133 84.6123 7.44033 84.6123 7.215C84.6123 6.89433 84.439 6.734 84.0923 6.734C83.8756 6.734 83.646 6.87267 83.4033 7.15C83.1693 7.41867 82.944 7.76967 82.7273 8.203C82.5106 8.63633 82.3243 9.087 82.1683 9.555ZM95.4222 16.341C94.9889 16.341 94.5902 16.3107 94.2262 16.25C93.8709 16.198 93.5199 16.1113 93.1732 15.99C92.8265 15.8773 92.4495 15.73 92.0422 15.548C91.9209 15.4873 91.8125 15.4137 91.7172 15.327C91.6219 15.249 91.5742 15.158 91.5742 15.054C91.5742 14.924 91.6565 14.7853 91.8212 14.638C91.9772 14.4993 92.1245 14.43 92.2632 14.43C92.4105 14.43 92.5925 14.482 92.8092 14.586C93.0345 14.69 93.2945 14.8113 93.5892 14.95C93.8839 15.0973 94.2089 15.223 94.5642 15.327C94.9282 15.431 95.3182 15.483 95.7342 15.483C96.1849 15.483 96.6095 15.2967 97.0082 14.924C97.4069 14.5513 97.7319 14.014 97.9832 13.312C98.2345 12.6187 98.3602 11.7823 98.3602 10.803C98.3602 10.5083 98.3515 10.1833 98.3342 9.828C98.3255 9.464 98.3082 9.08267 98.2822 8.684C98.0742 9.13467 97.8402 9.581 97.5802 10.023C97.3289 10.465 97.0645 10.8637 96.7872 11.219C96.5185 11.5743 96.2369 11.8603 95.9422 12.077C95.6562 12.285 95.3659 12.389 95.0712 12.389C94.6985 12.389 94.4299 12.2937 94.2652 12.103C94.1005 11.9123 94.0182 11.6177 94.0182 11.219C94.0182 10.803 94.0485 10.3523 94.1092 9.867C94.1699 9.38167 94.2479 8.892 94.3432 8.398C94.4472 7.89533 94.5685 7.41867 94.7072 6.968C94.8459 6.51733 94.9932 6.12733 95.1492 5.798C95.2359 5.62467 95.3659 5.538 95.5392 5.538C95.6605 5.538 95.7775 5.603 95.8902 5.733C96.0115 5.85433 96.0722 6.01467 96.0722 6.214C96.0722 6.37 96.0375 6.591 95.9682 6.877C95.8989 7.163 95.8122 7.488 95.7082 7.852C95.6042 8.216 95.5002 8.59733 95.3962 8.996C95.2922 9.386 95.2055 9.77167 95.1362 10.153C95.0669 10.5257 95.0322 10.868 95.0322 11.18C95.0322 11.31 95.1189 11.375 95.2922 11.375C95.3875 11.375 95.5219 11.2883 95.6952 11.115C95.8772 10.933 96.0765 10.699 96.2932 10.413C96.5185 10.1183 96.7439 9.79767 96.9692 9.451C97.2032 9.09567 97.4285 8.74467 97.6452 8.398C97.8619 8.04267 98.0482 7.71767 98.2042 7.423C98.1955 7.35367 98.1912 7.28867 98.1912 7.228C98.1912 7.16733 98.1912 7.111 98.1912 7.059C98.1912 6.63433 98.2345 6.37 98.3212 6.266C98.4165 6.15333 98.5379 6.097 98.6852 6.097C98.9365 6.097 99.1142 6.15333 99.2182 6.266C99.3222 6.37867 99.3742 6.57367 99.3742 6.851C99.3742 6.955 99.3612 7.06767 99.3352 7.189C99.3092 7.30167 99.2659 7.46633 99.2052 7.683C99.2745 8.36767 99.3309 8.983 99.3742 9.529C99.4262 10.075 99.4522 10.6253 99.4522 11.18C99.4522 12.2287 99.2832 13.1387 98.9452 13.91C98.6159 14.6813 98.1479 15.2793 97.5412 15.704C96.9432 16.1287 96.2369 16.341 95.4222 16.341ZM103.402 13.13C102.891 13.13 102.488 12.935 102.193 12.545C101.898 12.155 101.751 11.648 101.751 11.024C101.751 10.7987 101.781 10.5603 101.842 10.309C101.911 10.049 101.998 9.815 102.102 9.607C102.041 9.54633 101.994 9.464 101.959 9.36C101.924 9.24733 101.907 9.10867 101.907 8.944C101.907 8.43267 101.994 7.96467 102.167 7.54C102.34 7.11533 102.57 6.747 102.856 6.435C103.142 6.11433 103.458 5.86733 103.805 5.694C104.16 5.52067 104.52 5.434 104.884 5.434C105.482 5.434 105.967 5.65067 106.34 6.084C106.713 6.50867 106.899 7.15867 106.899 8.034C106.899 8.49333 106.83 8.96133 106.691 9.438C106.561 9.91467 106.379 10.374 106.145 10.816C105.92 11.258 105.655 11.6523 105.352 11.999C105.057 12.3457 104.741 12.623 104.403 12.831C104.074 13.0303 103.74 13.13 103.402 13.13ZM102.96 9.165C103.012 9.23433 103.038 9.32533 103.038 9.438C103.038 9.568 103.012 9.698 102.96 9.828C102.917 9.958 102.869 10.1357 102.817 10.361C102.765 10.5863 102.739 10.907 102.739 11.323C102.739 11.739 102.904 11.947 103.233 11.947C103.597 11.947 103.935 11.804 104.247 11.518C104.559 11.2233 104.836 10.8463 105.079 10.387C105.322 9.92767 105.508 9.438 105.638 8.918C105.777 8.38933 105.846 7.891 105.846 7.423C105.846 7.11967 105.79 6.90733 105.677 6.786C105.564 6.656 105.361 6.591 105.066 6.591C104.763 6.591 104.446 6.695 104.117 6.903C103.796 7.10233 103.528 7.37533 103.311 7.722C103.094 8.06867 102.986 8.45867 102.986 8.892C102.986 8.98733 102.977 9.07833 102.96 9.165ZM112.464 13.312C112.316 13.312 112.191 13.247 112.087 13.117C111.983 12.987 111.931 12.7963 111.931 12.545C111.931 12.2503 111.974 11.83 112.061 11.284C112.156 10.738 112.295 10.0143 112.477 9.113C112.243 9.66767 111.983 10.192 111.697 10.686C111.419 11.18 111.125 11.583 110.813 11.895C110.501 12.207 110.18 12.363 109.851 12.363C109.53 12.363 109.244 12.2373 108.993 11.986C108.75 11.7347 108.629 11.2927 108.629 10.66C108.629 10.3047 108.659 9.906 108.72 9.464C108.78 9.01333 108.858 8.567 108.954 8.125C109.049 7.683 109.144 7.28867 109.24 6.942C109.335 6.58667 109.422 6.32667 109.5 6.162C109.56 6.02333 109.621 5.93233 109.682 5.889C109.742 5.837 109.825 5.811 109.929 5.811C110.05 5.811 110.18 5.863 110.319 5.967C110.457 6.071 110.527 6.24433 110.527 6.487C110.527 6.54767 110.496 6.69067 110.436 6.916C110.384 7.13267 110.314 7.40133 110.228 7.722C110.15 8.034 110.067 8.372 109.981 8.736C109.894 9.1 109.82 9.464 109.76 9.828C109.708 10.192 109.682 10.5257 109.682 10.829C109.682 10.9937 109.699 11.128 109.734 11.232C109.768 11.336 109.855 11.388 109.994 11.388C110.115 11.388 110.267 11.2667 110.449 11.024C110.639 10.7813 110.843 10.4607 111.06 10.062C111.285 9.65467 111.515 9.204 111.749 8.71C111.991 8.216 112.225 7.709 112.451 7.189C112.685 6.669 112.897 6.175 113.088 5.707C113.157 5.551 113.231 5.45567 113.309 5.421C113.387 5.37767 113.473 5.356 113.569 5.356C113.725 5.356 113.863 5.421 113.985 5.551C114.115 5.67233 114.18 5.83267 114.18 6.032C114.18 6.162 114.154 6.38733 114.102 6.708C114.058 7.02867 113.993 7.40567 113.907 7.839C113.829 8.26367 113.738 8.71433 113.634 9.191C113.538 9.66767 113.443 10.14 113.348 10.608C113.252 11.0673 113.161 11.4877 113.075 11.869C112.997 12.2503 112.932 12.558 112.88 12.792C112.836 13.0087 112.776 13.1473 112.698 13.208C112.628 13.2773 112.55 13.312 112.464 13.312ZM116.351 13.247C116.212 13.247 116.095 13.1907 116 13.078C115.904 12.9653 115.857 12.8093 115.857 12.61C115.857 12.4627 115.887 12.22 115.948 11.882C116.017 11.5353 116.091 11.1323 116.169 10.673C116.255 10.2137 116.329 9.737 116.39 9.243C116.45 8.74033 116.481 8.25933 116.481 7.8C116.481 7.57467 116.537 7.41 116.65 7.306C116.771 7.19333 116.905 7.137 117.053 7.137C117.191 7.137 117.295 7.22367 117.365 7.397C117.434 7.57033 117.447 7.917 117.404 8.437C117.802 7.553 118.24 6.84233 118.717 6.305C119.202 5.759 119.683 5.369 120.16 5.135C120.636 4.89233 121.065 4.771 121.447 4.771C121.698 4.771 121.88 4.823 121.993 4.927C122.114 5.02233 122.175 5.13067 122.175 5.252C122.175 5.41667 122.105 5.54667 121.967 5.642C121.837 5.72867 121.607 5.83267 121.278 5.954C120.896 6.10133 120.545 6.27467 120.225 6.474C119.913 6.66467 119.614 6.916 119.328 7.228C119.05 7.54 118.777 7.93867 118.509 8.424C118.24 8.90067 117.971 9.49 117.703 10.192C117.434 10.894 117.148 11.739 116.845 12.727C116.793 12.9177 116.723 13.052 116.637 13.13C116.559 13.208 116.463 13.247 116.351 13.247ZM14.5476 30.13C14.0362 30.13 13.6332 29.935 13.3386 29.545C13.0439 29.155 12.8966 28.648 12.8966 28.024C12.8966 27.7987 12.9269 27.5603 12.9876 27.309C13.0569 27.049 13.1436 26.815 13.2476 26.607C13.1869 26.5463 13.1392 26.464 13.1046 26.36C13.0699 26.2473 13.0526 26.1087 13.0526 25.944C13.0526 25.4327 13.1392 24.9647 13.3126 24.54C13.4859 24.1153 13.7156 23.747 14.0016 23.435C14.2876 23.1143 14.6039 22.8673 14.9506 22.694C15.3059 22.5207 15.6656 22.434 16.0296 22.434C16.6276 22.434 17.1129 22.6507 17.4856 23.084C17.8582 23.5087 18.0446 24.1587 18.0446 25.034C18.0446 25.4933 17.9752 25.9613 17.8366 26.438C17.7066 26.9147 17.5246 27.374 17.2906 27.816C17.0652 28.258 16.8009 28.6523 16.4976 28.999C16.2029 29.3457 15.8866 29.623 15.5486 29.831C15.2192 30.0303 14.8856 30.13 14.5476 30.13ZM14.1056 26.165C14.1576 26.2343 14.1836 26.3253 14.1836 26.438C14.1836 26.568 14.1576 26.698 14.1056 26.828C14.0622 26.958 14.0146 27.1357 13.9626 27.361C13.9106 27.5863 13.8846 27.907 13.8846 28.323C13.8846 28.739 14.0492 28.947 14.3786 28.947C14.7426 28.947 15.0806 28.804 15.3926 28.518C15.7046 28.2233 15.9819 27.8463 16.2246 27.387C16.4672 26.9277 16.6536 26.438 16.7836 25.918C16.9222 25.3893 16.9916 24.891 16.9916 24.423C16.9916 24.1197 16.9352 23.9073 16.8226 23.786C16.7099 23.656 16.5062 23.591 16.2116 23.591C15.9082 23.591 15.5919 23.695 15.2626 23.903C14.9419 24.1023 14.6732 24.3753 14.4566 24.722C14.2399 25.0687 14.1316 25.4587 14.1316 25.892C14.1316 25.9873 14.1229 26.0783 14.1056 26.165ZM19.9172 30.247C19.7785 30.247 19.6615 30.1907 19.5662 30.078C19.4708 29.9653 19.4232 29.8093 19.4232 29.61C19.4232 29.4627 19.4535 29.22 19.5142 28.882C19.5835 28.5353 19.6572 28.1323 19.7352 27.673C19.8218 27.2137 19.8955 26.737 19.9562 26.243C20.0168 25.7403 20.0472 25.2593 20.0472 24.8C20.0472 24.5747 20.1035 24.41 20.2162 24.306C20.3375 24.1933 20.4718 24.137 20.6192 24.137C20.7578 24.137 20.8618 24.2237 20.9312 24.397C21.0005 24.5703 21.0135 24.917 20.9702 25.437C21.3688 24.553 21.8065 23.8423 22.2832 23.305C22.7685 22.759 23.2495 22.369 23.7262 22.135C24.2028 21.8923 24.6318 21.771 25.0132 21.771C25.2645 21.771 25.4465 21.823 25.5592 21.927C25.6805 22.0223 25.7412 22.1307 25.7412 22.252C25.7412 22.4167 25.6718 22.5467 25.5332 22.642C25.4032 22.7287 25.1735 22.8327 24.8442 22.954C24.4628 23.1013 24.1118 23.2747 23.7912 23.474C23.4792 23.6647 23.1802 23.916 22.8942 24.228C22.6168 24.54 22.3438 24.9387 22.0752 25.424C21.8065 25.9007 21.5378 26.49 21.2692 27.192C21.0005 27.894 20.7145 28.739 20.4112 29.727C20.3592 29.9177 20.2898 30.052 20.2032 30.13C20.1252 30.208 20.0298 30.247 19.9172 30.247ZM29.7868 23.461C30.0208 22.8977 30.2418 22.317 30.4498 21.719C30.6665 21.121 30.8615 20.51 31.0348 19.886C31.0868 19.7127 31.1648 19.574 31.2688 19.47C31.3815 19.3573 31.5115 19.301 31.6588 19.301C31.7628 19.301 31.8495 19.34 31.9188 19.418C31.9968 19.496 32.0358 19.6 32.0358 19.73C32.0358 19.8947 31.9708 20.1807 31.8408 20.588C31.7195 20.9953 31.5635 21.511 31.3728 22.135C31.1908 22.759 31.0045 23.4783 30.8138 24.293C30.6318 25.099 30.4758 25.9917 30.3458 26.971C30.2245 27.9503 30.1638 28.9947 30.1638 30.104C30.1638 30.3467 30.1118 30.546 30.0078 30.702C29.9038 30.8667 29.7782 30.949 29.6308 30.949C29.5442 30.949 29.4618 30.9273 29.3838 30.884C29.3058 30.8407 29.2365 30.7367 29.1758 30.572C29.1238 30.416 29.0805 30.169 29.0458 29.831C29.0112 29.4843 28.9938 29.0163 28.9938 28.427C28.9938 27.9763 29.0198 27.4867 29.0718 26.958C28.6732 27.6773 28.2398 28.3057 27.7718 28.843C27.3125 29.3717 26.8662 29.779 26.4328 30.065C26.0082 30.351 25.6442 30.494 25.3408 30.494C24.9682 30.494 24.6648 30.3683 24.4308 30.117C24.2055 29.8743 24.0928 29.5103 24.0928 29.025C24.0928 28.6003 24.1925 28.1627 24.3918 27.712C24.5912 27.2613 24.8555 26.8193 25.1848 26.386C25.5142 25.944 25.8782 25.528 26.2768 25.138C26.6755 24.748 27.0742 24.4057 27.4728 24.111C27.8802 23.8077 28.2572 23.5737 28.6038 23.409C28.9505 23.2357 29.2322 23.149 29.4488 23.149C29.5355 23.149 29.6135 23.1793 29.6828 23.24C29.7522 23.3007 29.7868 23.3743 29.7868 23.461ZM29.6178 23.864C29.5572 23.9247 29.4835 23.9853 29.3968 24.046C29.3102 24.1067 29.2148 24.1717 29.1108 24.241C28.7295 24.5097 28.3092 24.8217 27.8498 25.177C27.3992 25.5237 26.9658 25.905 26.5498 26.321C26.1425 26.7283 25.8088 27.1573 25.5488 27.608C25.2888 28.0587 25.1588 28.5223 25.1588 28.999C25.1588 29.207 25.2628 29.311 25.4708 29.311C25.7568 29.311 26.0688 29.1767 26.4068 28.908C26.7535 28.6307 27.1088 28.2493 27.4728 27.764C27.8368 27.27 28.2008 26.6937 28.5648 26.035C28.9288 25.3677 29.2798 24.644 29.6178 23.864ZM38.0847 24.189C38.0847 24.7437 37.8203 25.281 37.2917 25.801C36.763 26.321 35.957 26.7977 34.8737 27.231C34.839 27.4477 34.8217 27.6297 34.8217 27.777C34.8217 28.1237 34.865 28.375 34.9517 28.531C35.047 28.687 35.203 28.765 35.4197 28.765C35.7403 28.765 36.1 28.6653 36.4987 28.466C36.8973 28.258 37.309 27.9937 37.7337 27.673C38.1583 27.3437 38.5743 26.997 38.9817 26.633C39.3977 26.269 39.779 25.9267 40.1257 25.606C40.4723 25.2767 40.767 25.0123 41.0097 24.813C41.2523 24.605 41.417 24.501 41.5037 24.501C41.625 24.501 41.7247 24.5573 41.8027 24.67C41.8807 24.774 41.9197 24.917 41.9197 25.099C41.9197 25.3243 41.9067 25.5843 41.8807 25.879C41.8547 26.165 41.8243 26.4683 41.7897 26.789C42.015 26.1563 42.2967 25.606 42.6347 25.138C42.9813 24.6613 43.3497 24.267 43.7397 23.955C44.1297 23.643 44.511 23.409 44.8837 23.253C45.2563 23.097 45.577 23.019 45.8457 23.019C46.097 23.019 46.2833 23.0667 46.4047 23.162C46.526 23.2573 46.5867 23.37 46.5867 23.5C46.5867 23.6213 46.5303 23.734 46.4177 23.838C46.3137 23.9333 46.071 24.059 45.6897 24.215C45.2477 24.3883 44.8317 24.592 44.4417 24.826C44.0603 25.06 43.705 25.3807 43.3757 25.788C43.0463 26.1867 42.7517 26.7197 42.4917 27.387C42.2317 28.0543 42.0107 28.9123 41.8287 29.961C41.794 30.169 41.7333 30.3163 41.6467 30.403C41.56 30.4983 41.456 30.546 41.3347 30.546C41.248 30.546 41.1613 30.507 41.0747 30.429C40.988 30.3597 40.9187 30.1907 40.8667 29.922C40.8147 29.6447 40.7887 29.2113 40.7887 28.622C40.7887 28.2233 40.806 27.79 40.8407 27.322C40.884 26.854 40.9447 26.3643 41.0227 25.853C40.624 26.2863 40.182 26.7413 39.6967 27.218C39.2113 27.686 38.7087 28.1237 38.1887 28.531C37.6687 28.9297 37.1573 29.2547 36.6547 29.506C36.152 29.7573 35.684 29.883 35.2507 29.883C34.7913 29.883 34.423 29.7227 34.1457 29.402C33.8683 29.0813 33.7297 28.6047 33.7297 27.972C33.7297 27.244 33.825 26.5767 34.0157 25.97C34.2063 25.3633 34.4533 24.839 34.7567 24.397C35.06 23.9463 35.385 23.5997 35.7317 23.357C36.0783 23.1143 36.412 22.993 36.7327 22.993C37.166 22.993 37.4997 23.1057 37.7337 23.331C37.9677 23.5477 38.0847 23.8337 38.0847 24.189ZM35.0817 26.282C35.3417 26.1 35.6233 25.8963 35.9267 25.671C36.2387 25.4457 36.503 25.216 36.7197 24.982C36.945 24.7393 37.0577 24.5183 37.0577 24.319C37.0577 24.1977 37.0273 24.111 36.9667 24.059C36.906 24.007 36.802 23.981 36.6547 23.981C36.4207 23.981 36.204 24.098 36.0047 24.332C35.8053 24.5573 35.6277 24.8477 35.4717 25.203C35.3157 25.5497 35.1857 25.9093 35.0817 26.282ZM52.9452 30.065C52.7805 30.065 52.6332 30.0043 52.5032 29.883C52.3732 29.753 52.3082 29.5537 52.3082 29.285C52.3082 29.0943 52.3342 28.83 52.3862 28.492C52.4382 28.1453 52.5075 27.7683 52.5942 27.361C52.6809 26.9537 52.7719 26.5507 52.8672 26.152C52.9712 25.7447 53.0752 25.3807 53.1792 25.06C53.2832 24.7393 53.3742 24.501 53.4522 24.345C53.5215 24.2237 53.5865 24.1457 53.6472 24.111C53.7165 24.0763 53.7815 24.059 53.8422 24.059C53.9635 24.059 54.0675 24.098 54.1542 24.176C54.2495 24.254 54.2972 24.4057 54.2972 24.631C54.2972 24.761 54.2712 24.9777 54.2192 25.281C54.1759 25.5757 54.1152 25.9223 54.0372 26.321C53.9679 26.711 53.8899 27.114 53.8032 27.53C53.7252 27.9373 53.6472 28.3273 53.5692 28.7C53.4912 29.0727 53.4305 29.3847 53.3872 29.636C53.3525 29.7747 53.2919 29.883 53.2052 29.961C53.1272 30.0303 53.0405 30.065 52.9452 30.065ZM54.2192 22.876C54.0199 22.876 53.8292 22.8153 53.6472 22.694C53.4739 22.5727 53.3872 22.3777 53.3872 22.109C53.3872 21.8837 53.4392 21.7017 53.5432 21.563C53.6559 21.4243 53.7859 21.3247 53.9332 21.264C54.0892 21.1947 54.2235 21.16 54.3362 21.16C54.4489 21.16 54.5745 21.186 54.7132 21.238C54.8605 21.2813 54.9862 21.368 55.0902 21.498C55.1942 21.6193 55.2462 21.8013 55.2462 22.044C55.2462 22.2087 55.1899 22.356 55.0772 22.486C54.9645 22.6073 54.8259 22.7027 54.6612 22.772C54.5052 22.8413 54.3579 22.876 54.2192 22.876ZM57.1499 29.701C56.8986 29.701 56.6732 29.558 56.4739 29.272C56.2746 28.986 56.1749 28.6177 56.1749 28.167C56.1749 27.673 56.2399 27.1443 56.3699 26.581C56.5086 26.0177 56.6776 25.4457 56.8769 24.865C57.0762 24.2757 57.2712 23.708 57.4619 23.162C57.5052 23.0493 57.5659 22.967 57.6439 22.915C57.7306 22.8543 57.8606 22.824 58.0339 22.824C58.3459 22.824 58.5019 22.9757 58.5019 23.279C58.5019 23.3483 58.4672 23.5043 58.3979 23.747C58.3286 23.9897 58.2376 24.2887 58.1249 24.644C58.0209 24.9993 57.9126 25.385 57.7999 25.801C57.6872 26.2083 57.5876 26.62 57.5009 27.036C57.4142 27.452 57.3536 27.8377 57.3189 28.193C57.4576 28.0457 57.6136 27.8203 57.7869 27.517C57.9689 27.2137 58.1639 26.8713 58.3719 26.49C58.5799 26.1 58.7966 25.71 59.0219 25.32C59.2472 24.9213 59.4726 24.5573 59.6979 24.228C59.9319 23.89 60.1572 23.6213 60.3739 23.422C60.5992 23.214 60.8072 23.11 60.9979 23.11C61.2752 23.11 61.5092 23.1967 61.6999 23.37C61.8992 23.5347 62.0509 23.8293 62.1549 24.254C62.2676 24.67 62.3239 25.2593 62.3239 26.022C62.3239 26.4293 62.3629 26.8107 62.4409 27.166C62.5276 27.5213 62.6619 27.8073 62.8439 28.024C63.0346 28.232 63.2772 28.336 63.5719 28.336C64.0139 28.336 64.4082 28.258 64.7549 28.102C65.1016 27.9373 65.4006 27.7553 65.6519 27.556C65.9119 27.348 66.1286 27.166 66.3019 27.01C66.4752 26.8453 66.6096 26.763 66.7049 26.763C66.9042 26.763 67.0039 26.867 67.0039 27.075C67.0039 27.1617 66.9389 27.3003 66.8089 27.491C66.6876 27.673 66.5142 27.881 66.2889 28.115C66.0722 28.3403 65.8209 28.5613 65.5349 28.778C65.2576 28.986 64.9586 29.1593 64.6379 29.298C64.3259 29.4367 64.0096 29.506 63.6889 29.506C63.0909 29.506 62.6012 29.389 62.2199 29.155C61.8472 28.921 61.5699 28.5353 61.3879 27.998C61.2146 27.4607 61.1279 26.7413 61.1279 25.84C61.1279 25.346 61.0976 24.9863 61.0369 24.761C60.9849 24.527 60.8852 24.371 60.7379 24.293C60.6339 24.475 60.4996 24.735 60.3349 25.073C60.1702 25.4023 59.9796 25.7707 59.7629 26.178C59.5549 26.5853 59.3339 26.997 59.0999 27.413C58.8746 27.8203 58.6449 28.1973 58.4109 28.544C58.1769 28.8907 57.9516 29.1723 57.7349 29.389C57.5182 29.597 57.3232 29.701 57.1499 29.701ZM74.3662 30.286C74.1755 30.286 74.0282 30.2297 73.9242 30.117C73.8288 30.013 73.7812 29.8917 73.7812 29.753C73.7812 29.6317 73.8332 29.519 73.9372 29.415C74.0498 29.3023 74.2015 29.2027 74.3922 29.116C74.7388 28.934 75.0638 28.752 75.3672 28.57C75.6792 28.388 75.9305 28.193 76.1212 27.985C76.3118 27.777 76.4072 27.556 76.4072 27.322C76.4072 27.1227 76.3422 26.971 76.2122 26.867C76.0822 26.7543 75.9045 26.698 75.6792 26.698C75.5492 26.698 75.3672 26.724 75.1332 26.776C74.8992 26.8193 74.6435 26.8713 74.3662 26.932C74.0975 26.984 73.8332 27.036 73.5732 27.088C73.3132 27.1313 73.0922 27.153 72.9102 27.153C72.5808 27.153 72.3338 27.075 72.1692 26.919C72.0045 26.7543 71.9222 26.5333 71.9222 26.256C71.9222 26.1173 72.0045 25.9093 72.1692 25.632C72.3338 25.3547 72.5505 25.047 72.8192 24.709C73.0965 24.3623 73.3998 24.0157 73.7292 23.669C74.0585 23.3223 74.3922 23.0017 74.7302 22.707C75.0768 22.4123 75.3975 22.174 75.6922 21.992C75.9955 21.81 76.2468 21.719 76.4462 21.719C76.6455 21.719 76.7972 21.784 76.9012 21.914C77.0052 22.044 77.0572 22.2087 77.0572 22.408C77.0572 22.564 77.0312 22.6983 76.9792 22.811C76.9272 22.915 76.8188 22.9973 76.6542 23.058C76.4982 23.1187 76.2555 23.1533 75.9262 23.162C75.5882 23.4307 75.2285 23.7383 74.8472 24.085C74.4745 24.423 74.1322 24.774 73.8202 25.138C73.5168 25.4933 73.2958 25.8357 73.1572 26.165C73.4432 26.0697 73.7898 25.9873 74.1972 25.918C74.6132 25.84 75.0335 25.801 75.4582 25.801C76.1255 25.801 76.6195 25.9527 76.9402 26.256C77.2695 26.5507 77.4342 26.9407 77.4342 27.426C77.4342 27.738 77.3345 28.063 77.1352 28.401C76.9445 28.7303 76.6932 29.038 76.3812 29.324C76.0692 29.61 75.7355 29.8397 75.3802 30.013C75.0248 30.195 74.6868 30.286 74.3662 30.286ZM84.043 24.397C84.043 24.6743 83.9564 24.9473 83.783 25.216C83.6097 25.476 83.38 25.7273 83.094 25.97C82.808 26.204 82.4917 26.425 82.145 26.633C81.7984 26.841 81.4517 27.023 81.105 27.179C80.7584 27.335 80.442 27.4607 80.156 27.556C80.0867 27.894 80.052 28.193 80.052 28.453C80.052 28.6177 80.091 28.7347 80.169 28.804C80.247 28.8733 80.3684 28.908 80.533 28.908C80.897 28.908 81.2827 28.843 81.69 28.713C82.0974 28.583 82.5134 28.414 82.938 28.206C83.3627 27.998 83.77 27.777 84.16 27.543C84.55 27.309 84.9054 27.088 85.226 26.88C85.5554 26.672 85.8284 26.503 86.045 26.373C86.2617 26.243 86.4047 26.178 86.474 26.178C86.578 26.178 86.656 26.2127 86.708 26.282C86.7687 26.3427 86.799 26.4163 86.799 26.503C86.799 26.5723 86.6907 26.7067 86.474 26.906C86.266 27.1053 85.9844 27.3393 85.629 27.608C85.2737 27.868 84.875 28.1367 84.433 28.414C83.991 28.6913 83.5317 28.9513 83.055 29.194C82.587 29.4367 82.132 29.6317 81.69 29.779C81.2567 29.9263 80.8667 30 80.52 30C80.0694 30 79.7184 29.831 79.467 29.493C79.2157 29.155 79.09 28.6307 79.09 27.92C79.09 27.4433 79.1507 26.9623 79.272 26.477C79.402 25.9917 79.5754 25.528 79.792 25.086C80.0174 24.6353 80.2644 24.2367 80.533 23.89C80.8104 23.5347 81.1007 23.2573 81.404 23.058C81.7074 22.85 82.002 22.746 82.288 22.746C82.834 22.746 83.263 22.8977 83.575 23.201C83.887 23.5043 84.043 23.903 84.043 24.397ZM80.429 26.555C80.6977 26.3903 80.975 26.217 81.261 26.035C81.547 25.853 81.8114 25.6667 82.054 25.476C82.2967 25.2853 82.4917 25.086 82.639 24.878C82.795 24.6613 82.873 24.4403 82.873 24.215C82.873 23.8943 82.6997 23.734 82.353 23.734C82.1364 23.734 81.9067 23.8727 81.664 24.15C81.43 24.4187 81.2047 24.7697 80.988 25.203C80.7714 25.6363 80.585 26.087 80.429 26.555ZM87.7939 30.182C87.3693 30.182 87.0009 30.0867 86.6889 29.896C86.3856 29.6967 86.1516 29.441 85.9869 29.129C85.8223 28.817 85.7399 28.4963 85.7399 28.167C85.7399 27.4737 85.8613 26.841 86.1039 26.269C86.3466 25.6883 86.6499 25.177 87.0139 24.735C87.3866 24.2843 87.7679 23.903 88.1579 23.591C88.5566 23.279 88.9163 23.045 89.2369 22.889C89.5663 22.7243 89.8003 22.642 89.9389 22.642C90.2163 22.642 90.3549 22.7807 90.3549 23.058C90.3549 23.188 90.2683 23.3397 90.0949 23.513C89.9216 23.6777 89.7006 23.8727 89.4319 24.098C89.1633 24.3233 88.8773 24.579 88.5739 24.865C88.2706 25.1423 87.9846 25.4587 87.7159 25.814C87.4473 26.1607 87.2263 26.5507 87.0529 26.984C86.8796 27.4087 86.7929 27.8767 86.7929 28.388C86.7929 28.908 87.0053 29.168 87.4299 29.168C87.8199 29.168 88.2186 29.0943 88.6259 28.947C89.0419 28.7997 89.4493 28.609 89.8479 28.375C90.2553 28.1323 90.6453 27.881 91.0179 27.621C91.3906 27.361 91.7286 27.114 92.0319 26.88C92.3353 26.6373 92.5909 26.4423 92.7989 26.295C93.0069 26.1477 93.1543 26.074 93.2409 26.074C93.4143 26.074 93.5009 26.1693 93.5009 26.36C93.5009 26.5073 93.4013 26.7023 93.2019 26.945C93.0026 27.1877 92.7339 27.452 92.3959 27.738C92.0579 28.024 91.6809 28.3143 91.2649 28.609C90.8489 28.895 90.4286 29.1593 90.0039 29.402C89.5793 29.636 89.1719 29.8267 88.7819 29.974C88.4006 30.1127 88.0713 30.182 87.7939 30.182ZM100.265 30.468C100.014 30.468 99.8363 30.3857 99.7323 30.221C99.6283 30.0563 99.5763 29.7747 99.5763 29.376C99.5763 29.0553 99.6153 28.6567 99.6933 28.18C99.78 27.7033 99.884 27.179 100.005 26.607C100.127 26.0263 100.252 25.4283 100.382 24.813C99.8536 25.5323 99.2686 26.1087 98.6273 26.542C97.9946 26.9667 97.2926 27.244 96.5213 27.374C96.3393 27.7987 96.1313 28.1843 95.8973 28.531C95.6633 28.8777 95.4076 29.155 95.1303 29.363C94.853 29.571 94.5626 29.675 94.2593 29.675C93.8866 29.675 93.5703 29.5233 93.3103 29.22C93.059 28.9167 92.9333 28.4747 92.9333 27.894C92.9333 27.4953 92.9853 27.14 93.0893 26.828C93.1933 26.5073 93.3103 26.2777 93.4403 26.139C93.319 25.8183 93.2583 25.45 93.2583 25.034C93.2583 24.5227 93.3753 24.072 93.6093 23.682C93.8433 23.2833 94.1553 22.9757 94.5453 22.759C94.9353 22.5337 95.3556 22.421 95.8063 22.421C96.1703 22.421 96.4953 22.59 96.7813 22.928C97.0673 23.266 97.2103 23.7513 97.2103 24.384C97.2103 24.9733 97.1063 25.6277 96.8983 26.347C97.375 26.165 97.8516 25.8877 98.3283 25.515C98.8136 25.1423 99.2816 24.696 99.7323 24.176C100.183 23.656 100.59 23.0797 100.954 22.447C101.05 22.291 101.184 22.213 101.357 22.213C101.513 22.213 101.635 22.2607 101.721 22.356C101.817 22.4427 101.864 22.564 101.864 22.72C101.864 22.7633 101.838 22.9107 101.786 23.162C101.743 23.4133 101.682 23.734 101.604 24.124C101.535 24.514 101.457 24.943 101.37 25.411C101.284 25.879 101.197 26.3513 101.11 26.828C101.032 27.3047 100.967 27.7467 100.915 28.154C101.115 27.7727 101.34 27.3567 101.591 26.906C101.843 26.4553 102.098 26.0133 102.358 25.58C102.627 25.138 102.883 24.735 103.125 24.371C103.377 24.007 103.598 23.7167 103.788 23.5C103.988 23.2747 104.144 23.162 104.256 23.162C104.464 23.162 104.646 23.2313 104.802 23.37C104.958 23.5087 105.036 23.6517 105.036 23.799C105.036 23.9983 105.015 24.3017 104.971 24.709C104.928 25.1077 104.876 25.5583 104.815 26.061C104.755 26.5637 104.694 27.0663 104.633 27.569C104.573 28.0717 104.521 28.5267 104.477 28.934C104.434 29.3413 104.412 29.6447 104.412 29.844C104.412 29.974 104.356 30.091 104.243 30.195C104.131 30.299 104.005 30.351 103.866 30.351C103.771 30.351 103.689 30.3207 103.619 30.26C103.559 30.208 103.511 30.0867 103.476 29.896C103.442 29.7053 103.424 29.4107 103.424 29.012C103.424 28.622 103.437 28.1973 103.463 27.738C103.489 27.27 103.524 26.8063 103.567 26.347C103.619 25.879 103.676 25.4587 103.736 25.086C103.537 25.4153 103.307 25.8097 103.047 26.269C102.796 26.7283 102.532 27.2007 102.254 27.686C101.977 28.1713 101.708 28.6263 101.448 29.051C101.188 29.4757 100.954 29.818 100.746 30.078C100.538 30.338 100.378 30.468 100.265 30.468ZM95.7543 26.555C95.8583 26.2257 95.9406 25.8747 96.0013 25.502C96.0706 25.1207 96.1053 24.7393 96.1053 24.358C96.1053 24.1327 96.062 23.9507 95.9753 23.812C95.8886 23.6733 95.7716 23.604 95.6243 23.604C95.399 23.604 95.178 23.669 94.9613 23.799C94.7446 23.9203 94.5626 24.0937 94.4153 24.319C94.2766 24.5443 94.2073 24.813 94.2073 25.125C94.2073 25.515 94.3546 25.8487 94.6493 26.126C94.9526 26.3947 95.321 26.5377 95.7543 26.555ZM95.4033 27.452C94.814 27.426 94.3373 27.2527 93.9733 26.932C93.956 27.0447 93.9386 27.153 93.9213 27.257C93.904 27.3523 93.8953 27.4477 93.8953 27.543C93.8953 27.8117 93.9386 28.024 94.0253 28.18C94.1206 28.3273 94.2636 28.401 94.4543 28.401C94.6103 28.401 94.7706 28.3143 94.9353 28.141C95.1 27.9677 95.256 27.738 95.4033 27.452ZM112.268 23.461C112.502 22.8977 112.723 22.317 112.931 21.719C113.148 21.121 113.343 20.51 113.516 19.886C113.568 19.7127 113.646 19.574 113.75 19.47C113.863 19.3573 113.993 19.301 114.14 19.301C114.244 19.301 114.331 19.34 114.4 19.418C114.478 19.496 114.517 19.6 114.517 19.73C114.517 19.8947 114.452 20.1807 114.322 20.588C114.201 20.9953 114.045 21.511 113.854 22.135C113.672 22.759 113.486 23.4783 113.295 24.293C113.113 25.099 112.957 25.9917 112.827 26.971C112.706 27.9503 112.645 28.9947 112.645 30.104C112.645 30.3467 112.593 30.546 112.489 30.702C112.385 30.8667 112.26 30.949 112.112 30.949C112.026 30.949 111.943 30.9273 111.865 30.884C111.787 30.8407 111.718 30.7367 111.657 30.572C111.605 30.416 111.562 30.169 111.527 29.831C111.493 29.4843 111.475 29.0163 111.475 28.427C111.475 27.9763 111.501 27.4867 111.553 26.958C111.155 27.6773 110.721 28.3057 110.253 28.843C109.794 29.3717 109.348 29.779 108.914 30.065C108.49 30.351 108.126 30.494 107.822 30.494C107.45 30.494 107.146 30.3683 106.912 30.117C106.687 29.8743 106.574 29.5103 106.574 29.025C106.574 28.6003 106.674 28.1627 106.873 27.712C107.073 27.2613 107.337 26.8193 107.666 26.386C107.996 25.944 108.36 25.528 108.758 25.138C109.157 24.748 109.556 24.4057 109.954 24.111C110.362 23.8077 110.739 23.5737 111.085 23.409C111.432 23.2357 111.714 23.149 111.93 23.149C112.017 23.149 112.095 23.1793 112.164 23.24C112.234 23.3007 112.268 23.3743 112.268 23.461ZM112.099 23.864C112.039 23.9247 111.965 23.9853 111.878 24.046C111.792 24.1067 111.696 24.1717 111.592 24.241C111.211 24.5097 110.791 24.8217 110.331 25.177C109.881 25.5237 109.447 25.905 109.031 26.321C108.624 26.7283 108.29 27.1573 108.03 27.608C107.77 28.0587 107.64 28.5223 107.64 28.999C107.64 29.207 107.744 29.311 107.952 29.311C108.238 29.311 108.55 29.1767 108.888 28.908C109.235 28.6307 109.59 28.2493 109.954 27.764C110.318 27.27 110.682 26.6937 111.046 26.035C111.41 25.3677 111.761 24.644 112.099 23.864ZM117.2 30.286C117.009 30.286 116.862 30.2297 116.758 30.117C116.663 30.013 116.615 29.8917 116.615 29.753C116.615 29.6317 116.667 29.519 116.771 29.415C116.884 29.3023 117.035 29.2027 117.226 29.116C117.573 28.934 117.898 28.752 118.201 28.57C118.513 28.388 118.764 28.193 118.955 27.985C119.146 27.777 119.241 27.556 119.241 27.322C119.241 27.1227 119.176 26.971 119.046 26.867C118.916 26.7543 118.738 26.698 118.513 26.698C118.383 26.698 118.201 26.724 117.967 26.776C117.733 26.8193 117.477 26.8713 117.2 26.932C116.931 26.984 116.667 27.036 116.407 27.088C116.147 27.1313 115.926 27.153 115.744 27.153C115.415 27.153 115.168 27.075 115.003 26.919C114.838 26.7543 114.756 26.5333 114.756 26.256C114.756 26.1173 114.838 25.9093 115.003 25.632C115.168 25.3547 115.384 25.047 115.653 24.709C115.93 24.3623 116.234 24.0157 116.563 23.669C116.892 23.3223 117.226 23.0017 117.564 22.707C117.911 22.4123 118.231 22.174 118.526 21.992C118.829 21.81 119.081 21.719 119.28 21.719C119.479 21.719 119.631 21.784 119.735 21.914C119.839 22.044 119.891 22.2087 119.891 22.408C119.891 22.564 119.865 22.6983 119.813 22.811C119.761 22.915 119.653 22.9973 119.488 23.058C119.332 23.1187 119.089 23.1533 118.76 23.162C118.422 23.4307 118.062 23.7383 117.681 24.085C117.308 24.423 116.966 24.774 116.654 25.138C116.351 25.4933 116.13 25.8357 115.991 26.165C116.277 26.0697 116.624 25.9873 117.031 25.918C117.447 25.84 117.867 25.801 118.292 25.801C118.959 25.801 119.453 25.9527 119.774 26.256C120.103 26.5507 120.268 26.9407 120.268 27.426C120.268 27.738 120.168 28.063 119.969 28.401C119.778 28.7303 119.527 29.038 119.215 29.324C118.903 29.61 118.569 29.8397 118.214 30.013C117.859 30.195 117.521 30.286 117.2 30.286Z" fill="#9D9D9D"/>
<path d="M136.97 13C139.915 22.8995 139.682 31.3394 136.098 40.8988C133.409 48.0719 129.149 56.8252 123.282 62.0167C118.731 66.0433 122.384 56.5011 122.442 54.9774C122.525 52.8214 122.563 54.1672 122.119 55.7523C121.496 57.9803 121.144 60.0834 121.28 62.4041C121.366 63.8581 128.599 61.8229 129.996 61.8229" stroke="#2B2B2B" stroke-width="3" stroke-linecap="round"/>
</svg>
