<svg width="58" height="58" viewBox="0 0 58 58" fill="none" xmlns="http://www.w3.org/2000/svg">
<g clip-path="url(#clip0_1960_2649)">
<mask id="mask0_1960_2649" style="mask-type:luminance" maskUnits="userSpaceOnUse" x="0" y="0" width="58" height="58">
<path d="M57.6045 0H0V57.6045H57.6045V0Z" fill="white"/>
</mask>
<g mask="url(#mask0_1960_2649)">
<path fill-rule="evenodd" clip-rule="evenodd" d="M34.1665 3.12308e-06C38.8276 -9.66935e-05 42.6366 -0.000178358 45.6438 0.40413C48.7872 0.826744 51.5124 1.74134 53.6878 3.91671C55.8632 6.09207 56.7778 8.81733 57.2003 11.9606C57.6047 14.9679 57.6046 18.7769 57.6045 23.4381V34.1665C57.6046 38.8276 57.6047 42.6366 57.2003 45.6438C56.7778 48.7872 55.8632 51.5124 53.6878 53.6878C51.5124 55.8632 48.7872 56.7778 45.6438 57.2003C42.6366 57.6047 38.8276 57.6046 34.1665 57.6045H23.4381C18.7769 57.6046 14.9679 57.6047 11.9606 57.2003C8.81733 56.7778 6.09207 55.8632 3.91671 53.6878C1.74134 51.5124 0.826744 48.7872 0.40413 45.6438C-0.000178358 42.6366 -9.66935e-05 38.8276 3.12308e-06 34.1665V23.438C-9.66935e-05 18.7769 -0.000178358 14.9679 0.40413 11.9606C0.826744 8.81733 1.74134 6.09207 3.91671 3.91671C6.09207 1.74134 8.81733 0.826744 11.9606 0.40413C14.9679 -0.000178358 18.7769 -9.66935e-05 23.438 3.12308e-06H34.1665ZM6.09881 6.09881C3.08596 9.11166 3.08596 13.9608 3.08596 23.659V33.9455C3.08596 43.6437 3.08596 48.4928 6.09881 51.5057C9.11166 54.5185 13.9608 54.5185 23.659 54.5185H33.9455C43.6437 54.5185 48.4928 54.5185 51.5057 51.5057C54.5185 48.4928 54.5185 43.6437 54.5185 33.9455V23.659C54.5185 13.9608 54.5185 9.11166 51.5057 6.09881C48.4928 3.08596 43.6437 3.08596 33.9455 3.08596H23.659C13.9608 3.08596 9.11166 3.08596 6.09881 6.09881Z" fill="url(#paint0_linear_1960_2649)"/>
<path d="M3.08594 23.6587C3.08594 13.9605 3.08594 9.1114 6.09879 6.09856C9.11163 3.08571 13.9607 3.08571 23.659 3.08571H33.9455C43.6437 3.08571 48.4928 3.08571 51.5057 6.09856C54.5185 9.1114 54.5185 13.9605 54.5185 23.6587V33.9452C54.5185 43.6435 54.5185 48.4925 51.5057 51.5055C48.4928 54.5183 43.6437 54.5183 33.9455 54.5183H23.659C13.9607 54.5183 9.11163 54.5183 6.09879 51.5055C3.08594 48.4925 3.08594 43.6435 3.08594 33.9452V23.6587Z" fill="white"/>
<path fill-rule="evenodd" clip-rule="evenodd" d="M44.5035 19.5443L34.8983 38.06H25.8763L29.896 30.3863H29.7157C26.3995 34.6313 21.4514 37.4259 14.4014 38.06V30.4926C14.4014 30.4926 18.9115 30.2298 21.5628 27.4811H14.4014V19.5444H22.45V26.0722L22.6308 26.0715L25.9198 19.5444H32.0068V26.0309L32.1875 26.0306L35.5999 19.5443H44.5035Z" fill="#161616"/>
<path fill-rule="evenodd" clip-rule="evenodd" d="M33.9455 6.17166H23.659C18.7226 6.17166 15.3308 6.17822 12.783 6.52075C10.3241 6.85135 9.11837 7.44317 8.28088 8.28066C7.4434 9.11814 6.85158 10.3239 6.52097 12.7828C6.17844 15.3306 6.17189 18.7223 6.17189 23.6587V33.9452C6.17189 38.8816 6.17844 42.2734 6.52097 44.8212C6.85158 47.2801 7.4434 48.4859 8.28088 49.3233C9.11837 50.1608 10.3241 50.7526 12.783 51.0832C15.3308 51.4257 18.7226 51.4323 23.659 51.4323H33.9455C38.8819 51.4323 42.2736 51.4257 44.8214 51.0832C47.2803 50.7526 48.4861 50.1608 49.3235 49.3233C50.161 48.4859 50.7528 47.2801 51.0834 44.8212C51.426 42.2734 51.4326 38.8816 51.4326 33.9452V23.6587C51.4326 18.7223 51.426 15.3306 51.0834 12.7828C50.7528 10.3239 50.161 9.11814 49.3235 8.28066C48.4861 7.44317 47.2803 6.85135 44.8214 6.52075C42.2736 6.17822 38.8819 6.17166 33.9455 6.17166ZM6.09879 6.09856C3.08594 9.1114 3.08594 13.9605 3.08594 23.6587V33.9452C3.08594 43.6435 3.08594 48.4925 6.09879 51.5055C9.11163 54.5183 13.9607 54.5183 23.659 54.5183H33.9455C43.6437 54.5183 48.4928 54.5183 51.5057 51.5055C54.5185 48.4925 54.5185 43.6435 54.5185 33.9452V23.6587C54.5185 13.9605 54.5185 9.1114 51.5057 6.09856C48.4928 3.08571 43.6437 3.08571 33.9455 3.08571H23.659C13.9607 3.08571 9.11163 3.08571 6.09879 6.09856Z" fill="#161616"/>
</g>
</g>
<defs>
<linearGradient id="paint0_linear_1960_2649" x1="0" y1="0" x2="58.3251" y2="6.37887" gradientUnits="userSpaceOnUse">
<stop stop-color="#FF7448"/>
<stop offset="0.567708" stop-color="#FF4848"/>
<stop offset="1" stop-color="#6248FF"/>
</linearGradient>
<clipPath id="clip0_1960_2649">
<rect width="57.6045" height="57.6045" fill="white"/>
</clipPath>
</defs>
</svg>
