<svg width="5" height="8" viewBox="0 0 5 8" fill="none" xmlns="http://www.w3.org/2000/svg">
<path d="M2.05302 6.03252C2.05302 5.79099 2.07147 5.56455 2.10837 5.35321C2.14863 5.14187 2.22243 4.94059 2.32978 4.74938C2.42035 4.56823 2.52602 4.4223 2.64679 4.3116C2.77091 4.19755 2.9051 4.08684 3.04934 3.9795C3.19695 3.86879 3.35126 3.7279 3.51228 3.55681C3.64647 3.40921 3.73536 3.25993 3.77897 3.10897C3.82594 2.95802 3.84942 2.79532 3.84942 2.62088C3.84942 2.4934 3.83432 2.37431 3.80413 2.26361C3.77394 2.15291 3.72362 2.0573 3.65317 1.97679C3.54583 1.84261 3.40996 1.74868 3.24559 1.695C3.08121 1.63797 2.91013 1.60946 2.73233 1.60946C2.57131 1.60946 2.417 1.63127 2.2694 1.67488C2.12515 1.71849 2.00438 1.78558 1.9071 1.87615C1.8031 1.96337 1.72595 2.0724 1.67563 2.20323C1.62866 2.3307 1.60686 2.46992 1.61021 2.62088H0.503192C0.530029 2.30554 0.61054 2.01034 0.744724 1.73526C0.878909 1.46018 1.06006 1.2371 1.28817 1.06601C1.48274 0.911701 1.70414 0.797644 1.95239 0.723843C2.20063 0.646686 2.44887 0.608108 2.69711 0.608108C3.0527 0.608108 3.38816 0.663459 3.70349 0.774162C4.02218 0.884864 4.2872 1.06434 4.49854 1.31258C4.65285 1.48702 4.76858 1.68662 4.84574 1.91138C4.92625 2.13278 4.96651 2.36257 4.96651 2.60075C4.96651 2.91944 4.89774 3.21464 4.7602 3.48637C4.62601 3.75809 4.45325 4.00633 4.24191 4.23109C4.13121 4.3485 4.01883 4.45585 3.90477 4.55313C3.79071 4.64706 3.68504 4.73932 3.58776 4.82989C3.49048 4.92046 3.40996 5.01943 3.34623 5.12677C3.25565 5.28109 3.20366 5.4203 3.19024 5.54442C3.17682 5.66519 3.17011 5.82789 3.17011 6.03252H2.05302ZM2.05806 8V6.78228H3.17011V8H2.05806Z" fill="#909090"/>
</svg>
