<svg width="48" height="48" viewBox="0 0 48 48" fill="none" xmlns="http://www.w3.org/2000/svg">
<path d="M41.9454 13.4348C41.0166 14.6738 39.8938 15.7547 38.6204 16.6355C38.6204 16.9592 38.6204 17.2828 38.6204 17.6245C38.6306 23.5022 36.2828 29.1382 32.1034 33.269C27.9238 37.3998 22.2622 39.6798 16.3879 39.5978C12.9917 39.6092 9.6391 38.8338 6.5926 37.3322C6.42832 37.2604 6.32238 37.098 6.323 36.9186V36.7208C6.323 36.4626 6.53222 36.2534 6.7903 36.2534C10.1286 36.1432 13.3478 34.9858 15.9924 32.9448C12.9708 32.8838 10.2521 31.0938 9.00096 28.3414C8.93778 28.1912 8.95744 28.0186 9.0529 27.8864C9.14834 27.7542 9.30576 27.6814 9.46826 27.6942C10.3866 27.7864 11.3141 27.701 12.2002 27.4424C8.86454 26.75 6.35818 23.9808 5.99948 20.5914C5.98674 20.4288 6.0596 20.2714 6.19176 20.1758C6.3239 20.0804 6.49624 20.0606 6.64652 20.124C7.54164 20.519 8.50794 20.727 9.48624 20.7352C6.56344 18.8169 5.30098 15.1681 6.41286 11.8524C6.52764 11.5303 6.80338 11.2922 7.13876 11.2259C7.47412 11.1595 7.81968 11.2746 8.0484 11.5288C11.9925 15.7265 17.4118 18.2279 23.1636 18.5056C23.0164 17.9177 22.944 17.3135 22.948 16.7074C23.0018 13.5294 24.9682 10.6984 27.9266 9.53974C30.8848 8.38108 34.2496 9.12406 36.4458 11.4209C37.9426 11.1357 39.3898 10.6329 40.7412 9.92842C40.8402 9.86662 40.9658 9.86662 41.0648 9.92842C41.1266 10.0275 41.1266 10.153 41.0648 10.2521C40.4102 11.751 39.3044 13.0082 37.9016 13.8484C39.13 13.7059 40.3368 13.4161 41.4962 12.9853C41.5938 12.9188 41.722 12.9188 41.8196 12.9853C41.9014 13.0227 41.9626 13.0942 41.9868 13.1808C42.011 13.2675 41.9958 13.3604 41.9454 13.4348Z" fill="white"/>
</svg>
