<svg width="35" height="43" viewBox="0 0 35 43" fill="none" xmlns="http://www.w3.org/2000/svg">
<g clip-path="url(#clip0_1980_1691)">
<path d="M7.67263 7.64447V11.7397H12.6534V14.4016H7.67263V30.5778H4.8457V4.91431H12.5861V7.64447H7.67263Z" fill="white"/>
<path d="M9.49023 30.5095V15.9714H12.3845V27.8476H15.8845V30.5778H9.49023V30.5095Z" fill="white"/>
<path d="M17.9043 26.619C15.8851 26.619 14.4043 25.5952 14.4043 23.2745V4.9142H17.2312V23.2063C17.2312 23.8888 17.4331 24.0936 17.837 24.0936C18.2408 24.0936 18.3755 23.8888 18.3755 23.2063V4.84595H21.2024V23.2063C21.2024 25.3904 19.9908 26.619 17.9043 26.619ZM25.1735 30.5777H22.1447L24.6351 21.8412L22.4139 14.0602H25.3755L26.3178 18.292L27.2601 14.0602H30.087L27.7312 22.5237L30.0197 30.5777H27.0581L26.1158 26.1412L25.1735 30.5777ZM30.1543 4.9142H22.3466V7.64436H30.087V4.9142H30.1543Z" fill="white"/>
<path d="M20.9998 27.7794H17.2979V30.5095H20.9998V27.7794ZM30.1536 9.4873H22.3459V12.2175H30.0863V9.4873H30.1536Z" fill="white"/>
<path d="M35 35.4921H0V0H35V35.4921ZM2.82692 32.6254H32.1731V2.86667H2.82692V32.6254ZM3.16346 41.7032H1.34615L1.07692 42.3175H0L1.48077 38.2905H2.96154L4.50962 42.3175H3.36538L3.16346 41.7032ZM2.89423 40.9524L2.35577 39.3825H2.15385L1.61538 40.9524H2.89423Z" fill="white"/>
<path d="M5.04785 40.338C5.04785 39.0412 5.92285 38.2222 7.2017 38.2222C8.0767 38.2222 9.019 38.6317 9.22093 39.8603H8.21131C8.0767 39.3825 7.67285 39.1777 7.2017 39.1777C6.59593 39.1777 6.05747 39.6555 6.05747 40.4063C6.05747 41.1571 6.52862 41.6349 7.2017 41.6349C7.67285 41.6349 8.00939 41.4301 8.21131 40.8841H9.22093C9.019 42.1126 8.14401 42.5222 7.2017 42.5222C5.99016 42.4539 5.04785 41.6349 5.04785 40.338Z" fill="white"/>
<path d="M13.1254 41.7032H11.2408L11.0388 42.3175H9.96191L11.4427 38.2905H12.9235L14.4042 42.3175H13.3273L13.1254 41.7032ZM12.8561 40.9524L12.3177 39.3826H12.1158L11.51 40.9524H12.8561ZM19.4523 40.3381C19.4523 41.4985 18.8465 42.3175 17.2985 42.3175H15.4138V38.2905H17.2985C18.8465 38.3588 19.4523 39.1778 19.4523 40.3381ZM18.3754 40.3381C18.3754 39.5874 17.9715 39.2461 17.2985 39.2461H16.4908V41.4302H17.2985C17.9715 41.4302 18.3754 41.0889 18.3754 40.3381ZM20.5292 38.3588H23.8946V39.2461H21.5388V39.9969H23.76V40.7477H21.5388V41.4985H23.8946V42.3175H20.5292V38.3588Z" fill="white"/>
<path d="M25.1055 38.3586H26.4516L27.3266 40.9523H27.3939L28.2689 38.3586H29.6151V42.3174H28.6055V40.1332H28.5382L27.7978 42.3174H26.9901L26.2497 40.1332H26.1824V42.3174H25.1728V38.3586H25.1055Z" fill="white"/>
<path d="M33.3173 41.0889V42.3175H32.2404V41.0207L30.625 38.2905H31.7692L32.7788 39.9969H32.8462L33.8558 38.2905H35L33.3173 41.0889Z" fill="white"/>
</g>
<defs>
<clipPath id="clip0_1980_1691">
<rect width="35" height="43" fill="white"/>
</clipPath>
</defs>
</svg>
