<svg width="28" height="35" viewBox="0 0 28 35" fill="none" xmlns="http://www.w3.org/2000/svg">
<path d="M15.653 34.9785C13.9845 34.9785 12.3623 35.0269 10.6937 34.9785C7.5884 34.8818 5.45628 33.1876 4.01948 30.4285C2.90707 28.3471 2.72164 26.1206 3.0462 23.7972C3.18532 22.8775 3.27794 22.0063 3.37056 21.0866C3.41691 20.4089 3.27794 19.7798 2.95342 19.1505C1.88729 17.2627 0.867736 15.2782 0.357902 13.1C-0.198204 10.6798 -0.151894 8.30801 0.821387 6.03303C1.9801 3.32246 4.06579 1.67669 6.75401 0.950631C11.5743 -0.356192 16.4409 -0.307828 21.2611 1.04736C23.9029 1.77342 25.9887 3.37082 27.1937 6.03295C28.2598 8.50155 28.2133 11.0185 27.3792 13.4871C26.8231 15.1813 25.9887 16.7787 25.1544 18.3275C24.5983 19.3923 24.4129 20.4573 24.7372 21.6674C25.3861 24.136 25.4787 26.6046 24.5055 29.0248C23.6248 31.203 22.3734 33.0907 20.2878 34.204C19.2216 34.7848 18.0629 34.9785 16.8579 34.9785H15.6527H15.653ZM22.9297 9.9537C22.7906 9.22765 22.698 8.50159 22.4199 7.8239C21.771 6.17812 20.3805 5.549 18.8046 5.35534C16.3018 5.01659 13.7526 4.72601 11.2035 5.25861C9.90563 5.549 8.56168 5.74265 7.26384 6.12996C6.10513 6.51723 5.27077 7.38842 4.99272 8.64688C4.57555 10.7283 5.08534 12.6159 6.15144 14.3585C6.42953 14.8426 6.93928 15.0362 7.49558 14.9393C7.86645 14.8425 8.23712 14.6973 8.60799 14.552C10.2302 13.8259 11.8987 13.3903 13.7063 13.2935C15.7457 13.2451 17.7387 13.6808 19.5926 14.5036C20.7513 15.036 21.5392 14.6972 22.0492 13.4872C22.559 12.4222 22.837 11.2121 22.9298 9.95362L22.9297 9.9537Z" fill="white"/>
</svg>
