<svg width="71" height="34" viewBox="0 0 71 34" fill="none" xmlns="http://www.w3.org/2000/svg">
<g clip-path="url(#clip0_1980_1684)">
<path d="M22.6748 7.24841C22.6748 5.98648 21.4554 4.64765 19.3411 4.64765C16.9643 4.64765 14.3599 6.39242 13.9553 9.8797C13.5484 13.4054 15.7359 14.9636 17.9335 14.9636C20.1312 14.9636 21.2886 14.1042 22.464 12.9531C21.4497 11.6708 20.1402 12.2679 19.8934 12.3923C19.6195 12.5302 19.26 12.7202 18.5308 12.7202C17.6788 12.7202 16.8156 12.3335 16.8156 10.747C22.26 10.2234 22.6748 8.51147 22.6748 7.24841ZM19.9768 7.45986C19.943 7.84885 19.7829 8.52278 17.0274 8.89254C17.609 6.82211 18.7179 6.66833 19.2284 6.66833C19.7085 6.66833 20.0151 7.04148 19.9768 7.45986ZM10.7558 7.7957C10.7558 7.7957 9.58484 11.4809 9.49355 11.7896C9.46313 11.4809 8.60549 4.8625 8.60549 4.8625C6.61073 4.8625 5.5446 6.28387 4.98224 7.79457C4.98224 7.79457 3.55773 11.4899 3.44278 11.7986C3.43601 11.5091 3.22301 7.83301 3.22301 7.83301C3.10243 5.98535 1.42209 4.86702 0.0595703 4.86702L1.69821 14.8935C3.78989 14.8867 4.91011 13.4676 5.50065 11.9592C5.50065 11.9592 6.75386 8.69918 6.8057 8.55105C6.81809 8.69239 7.70728 14.8935 7.70728 14.8935C9.80122 14.8935 10.9305 13.5637 11.539 12.1118L14.4771 4.86702C12.4079 4.86702 11.3181 6.285 10.7558 7.7957ZM30.3653 4.63409C29.0783 4.63409 28.0865 5.33516 27.2514 6.3732L27.2526 6.36528L27.9953 0.340576C26.2822 0.340576 24.8814 1.83771 24.6143 4.05853L23.3115 14.8155C24.2999 14.8155 25.3468 14.5271 25.9126 13.7978C26.4186 14.4502 27.1703 14.9704 28.2838 14.9704C31.1733 14.9704 33.1602 11.5996 33.1602 8.43458C33.1602 5.54661 31.7605 4.63409 30.3653 4.63409ZM30.1005 9.80167C29.8007 11.5702 28.8202 12.7643 27.8713 12.7643C26.9145 12.7643 26.511 12.3391 26.511 12.3391C26.6891 10.7934 26.8074 9.84464 27.1568 9.0271C27.5039 8.21069 28.3266 6.90692 29.1876 6.90692C30.0238 6.90692 30.4002 8.03316 30.1005 9.80167ZM40.4056 4.86815H38.3827L38.3917 4.76186C38.5303 3.43661 38.8459 2.74006 39.8703 2.63376C40.569 2.5614 40.8868 2.19616 40.9601 1.80265C41.0176 1.49282 41.2136 0.400507 41.2136 0.400507C37.1543 0.377891 35.883 2.1351 35.5573 4.80709L35.5506 4.86702L35.51 4.86815C34.8507 4.86815 34.1272 5.61672 34.001 6.56769L33.9559 6.91823H35.306L34.1734 16.3262L33.8296 18.0178L33.9694 18.0223C35.8639 17.95 37.0833 16.4506 37.3526 14.2682L38.2373 6.91823H38.8706C39.4916 6.91823 40.2219 6.29291 40.356 5.25035L40.4056 4.86815ZM50.9057 4.69288C48.5751 4.69288 46.3775 6.41504 45.7013 9.12435C45.0262 11.8314 46.0529 15.0292 49.4789 15.0292C52.9072 15.0292 54.8772 11.6968 54.8772 8.92872C54.8772 6.16062 53.0109 4.69288 50.9057 4.69288ZM51.8524 9.72139C51.7307 10.9494 51.1908 12.805 49.7156 12.805C48.2336 12.805 48.4444 10.6271 48.5886 9.59361C48.7419 8.48546 49.3617 6.9171 50.6826 6.9171C51.8749 6.9171 51.9887 8.33394 51.8524 9.72139ZM66.3905 7.7957C66.3905 7.7957 65.2184 11.4809 65.1294 11.7896C65.0978 11.4809 64.2402 4.8625 64.2402 4.8625C62.2454 4.8625 61.1793 6.28387 60.6169 7.79457C60.6169 7.79457 59.1936 11.4899 59.0775 11.7986C59.0707 11.5091 58.8588 7.83301 58.8588 7.83301C58.7383 5.98535 57.0557 4.86702 55.6954 4.86702L57.3329 14.8935C59.4246 14.8867 60.5448 13.4676 61.1365 11.9592C61.1365 11.9592 62.3886 8.69918 62.4404 8.55105C62.4539 8.69239 63.342 14.8935 63.342 14.8935C65.4359 14.8935 66.5652 13.5637 67.1737 12.1118L70.1118 4.86702C68.0426 4.86702 66.9528 6.285 66.3905 7.7957ZM42.3102 0.400507L40.6107 14.1483L40.6062 14.1461L40.2613 15.8456L40.4 15.8501C42.2302 15.8275 43.5273 14.2173 43.7719 12.1865L44.7524 4.29486C45.0522 1.89311 43.6231 0.400507 42.3102 0.400507Z" fill="white"/>
<path fill-rule="evenodd" clip-rule="evenodd" d="M27.0479 23.7847C26.749 23.7847 26.4623 23.9038 26.251 24.1159C26.0396 24.3279 25.9209 24.6155 25.9209 24.9154V32.8308C25.9209 33.1307 26.0396 33.4183 26.251 33.6303C26.4623 33.8424 26.749 33.9615 27.0479 33.9615H42.8257C43.1246 33.9615 43.4112 33.8424 43.6226 33.6303C43.8339 33.4183 43.9526 33.1307 43.9526 32.8308V24.9154C43.9526 24.6155 43.8339 24.3279 43.6226 24.1159C43.4112 23.9038 43.1246 23.7847 42.8257 23.7847H27.0479ZM29.8124 26.6749V30.904H30.3229V29.3593H31.2436C31.5716 29.3593 31.8409 29.2994 32.0506 29.1784C32.2514 29.0676 32.4137 28.898 32.516 28.6922C32.6174 28.4886 32.6682 28.2625 32.6682 28.0137C32.6682 27.7638 32.6174 27.5388 32.516 27.3353C32.412 27.1307 32.248 26.9629 32.0461 26.8547C31.8364 26.7348 31.566 26.6749 31.2358 26.6749H29.8124ZM30.3229 28.9048H31.2279C31.4533 28.9048 31.6358 28.8652 31.7733 28.7872C31.9036 28.7157 32.0079 28.6044 32.0709 28.4694C32.1358 28.3261 32.1681 28.17 32.1655 28.0126C32.1681 27.8563 32.1358 27.7013 32.0709 27.5592C32.008 27.4242 31.9027 27.3137 31.7711 27.2448C31.5996 27.1605 31.4097 27.1208 31.2189 27.1295H30.3218L30.3229 28.9048ZM33.4897 26.6749V30.904H34.0002V29.2519H34.9221C34.9582 29.2519 34.9942 29.2519 35.0292 29.2496L35.9172 30.9028H36.51L35.5577 29.1592C35.6175 29.1388 35.6738 29.1151 35.7268 29.0879C35.9253 28.9889 36.0883 28.8304 36.1934 28.6345C36.2948 28.4423 36.3455 28.2207 36.3455 27.9719C36.3455 27.7231 36.2948 27.5004 36.1934 27.3047C36.0886 27.1061 35.9247 26.9452 35.7245 26.8445C35.5127 26.7314 35.2422 26.6749 34.9131 26.6749H33.4897ZM34.0002 28.7894H34.9052C35.1306 28.7894 35.3109 28.7555 35.4484 28.6899C35.5774 28.6332 35.6835 28.5344 35.7493 28.4095C35.8155 28.2734 35.848 28.1233 35.844 27.9719C35.844 27.8023 35.8124 27.6553 35.7493 27.5275C35.6837 27.3986 35.577 27.2955 35.4462 27.2346C35.2737 27.1576 35.0859 27.1216 34.8973 27.1295H34.0002V28.7894ZM40.5108 29.9451C40.6709 29.6205 40.7509 29.2349 40.7509 28.7894C40.7509 28.3428 40.6709 27.9583 40.5108 27.6327C40.3653 27.3251 40.1365 27.0649 39.8504 26.8818C39.5626 26.7033 39.2297 26.6114 38.8914 26.6172C38.5533 26.6112 38.2207 26.7031 37.9334 26.8818C37.647 27.0648 37.4177 27.325 37.2719 27.6327C37.1118 27.9583 37.0307 28.3428 37.0307 28.7894C37.0307 29.2349 37.1118 29.6205 37.2719 29.9451C37.4319 30.2696 37.6528 30.5206 37.9323 30.697C38.2118 30.8723 38.5319 30.9605 38.8902 30.9605C39.2509 30.9605 39.5698 30.8723 39.8504 30.697C40.1299 30.5206 40.3497 30.2696 40.5108 29.9451ZM40.0747 27.8622C40.1964 28.1144 40.2573 28.4231 40.2573 28.7894C40.2573 29.1558 40.1964 29.4645 40.0747 29.7167C39.9689 29.9507 39.7979 30.149 39.5822 30.2877C39.3752 30.4176 39.1354 30.4851 38.8914 30.4822C38.6466 30.4849 38.4061 30.4174 38.1983 30.2877C37.9831 30.148 37.8122 29.9495 37.7058 29.7155C37.5852 29.4645 37.5255 29.1558 37.5255 28.7883C37.5255 28.4231 37.5852 28.1144 37.7058 27.8622C37.8126 27.6285 37.9834 27.4301 38.1983 27.29C38.4062 27.1607 38.6467 27.0936 38.8914 27.0967C39.1461 27.0967 39.376 27.1611 39.5822 27.29C39.7896 27.4201 39.9541 27.61 40.0747 27.8622Z" fill="white"/>
</g>
<defs>
<clipPath id="clip0_1980_1684">
<rect width="71" height="34" fill="white"/>
</clipPath>
</defs>
</svg>
