<svg width="9" height="9" viewBox="0 0 9 9" fill="none" xmlns="http://www.w3.org/2000/svg">
<path d="M8.0482 2.68552L3.58244 7.15131C3.54288 7.19118 3.48904 7.21362 3.43287 7.21362C3.37671 7.21362 3.32287 7.19118 3.28331 7.15131L1.0125 4.88049C0.972626 4.84094 0.950195 4.7871 0.950195 4.73093C0.950195 4.67477 0.972626 4.62092 1.0125 4.58137L1.30742 4.28646C1.34697 4.24658 1.40081 4.22415 1.45697 4.22415C1.51315 4.22415 1.56699 4.24658 1.60654 4.28646L3.43077 6.1107L7.4542 2.08727C7.53753 2.00647 7.66999 2.00647 7.75332 2.08727L8.0482 2.38639C8.08812 2.42595 8.11051 2.47979 8.11051 2.53596C8.11051 2.59212 8.08812 2.64596 8.0482 2.68552Z" fill="black"/>
</svg>
