<svg width="36" height="16" viewBox="0 0 36 16" fill="none" xmlns="http://www.w3.org/2000/svg">
<path fill-rule="evenodd" clip-rule="evenodd" d="M7.45583 2.08949H5.84883C4.96131 2.08949 4.24183 2.80897 4.24183 3.6965C4.24183 4.58402 4.96131 5.3035 5.84883 5.3035H7.45583V2.08949ZM7.45583 1H8.54533H10.1523C11.6416 1 12.8488 2.20726 12.8488 3.6965C12.8488 4.57532 12.4285 5.35597 11.7777 5.84824C12.4285 6.34053 12.8488 7.12118 12.8488 8C12.8488 9.48923 11.6416 10.6965 10.1523 10.6965C9.55018 10.6965 8.99412 10.4991 8.54533 10.1655V10.6965V12.3035C8.54533 13.7927 7.33806 15 5.84883 15C4.35959 15 3.15234 13.7927 3.15234 12.3035C3.15234 11.4246 3.57275 10.644 4.22344 10.1517C3.57275 9.65946 3.15234 8.87882 3.15234 8C3.15234 7.12118 3.57276 6.34053 4.22346 5.84826C3.57276 5.35597 3.15234 4.57532 3.15234 3.6965C3.15234 2.20726 4.35959 1 5.84883 1H7.45583ZM8.54533 2.08949V5.3035H10.1523C11.0399 5.3035 11.7593 4.58402 11.7593 3.6965C11.7593 2.80897 11.0399 2.08949 10.1523 2.08949H8.54533ZM5.84883 9.60699H7.45583V8.00414V8V7.99586V6.393H5.84883C4.96131 6.393 4.24183 7.11248 4.24183 8C4.24183 8.8854 4.95787 9.60357 5.84246 9.607L5.84883 9.60699ZM4.24183 12.3035C4.24183 11.4181 4.95787 10.6999 5.84246 10.6965H5.84883H7.45583V12.3035C7.45583 13.191 6.73635 13.9105 5.84883 13.9105C4.96131 13.9105 4.24183 13.191 4.24183 12.3035ZM8.54533 7.9968C8.54706 7.11075 9.26587 6.393 10.1523 6.393C11.0399 6.393 11.7593 7.11248 11.7593 8C11.7593 8.88753 11.0399 9.60701 10.1523 9.60701C9.26587 9.60701 8.54706 8.88926 8.54533 8.00321V7.9968Z" fill="black"/>
<path fill-rule="evenodd" clip-rule="evenodd" d="M36 3L30.8946 12.8415H26.0992L28.2358 8.76279H28.1399C26.3772 11.0191 23.7473 12.5045 20 12.8415V8.81922C20 8.81922 22.3972 8.67961 23.8065 7.21859H20V3.00008H24.2781V6.46975L24.3741 6.46937L26.1223 3.00008H29.3577V6.44775L29.4537 6.4476L31.2675 3H36Z" fill="black"/>
</svg>
